<svg width="3766" height="130" viewBox="0 0 3766 130" fill="none" xmlns="http://www.w3.org/2000/svg">
<g filter="url(#filter0_d_83_102)">
<path fill-rule="evenodd" clip-rule="evenodd" d="M1402.97 0.0488291C1402.73 0.103355 1402.22 0.197614 1401.84 0.258186C1399.01 0.70983 1395.72 2.02265 1393.52 3.58036C1392.62 4.22009 1390.79 6.04858 1390.15 6.95338C1388.42 9.38771 1387.27 12.4648 1386.73 16.0712C1386.36 18.5233 1386.24 19.8137 1386.24 21.257C1386.24 24.0603 1386.98 30.5065 1387.86 35.331C1388.07 36.48 1388.28 37.889 1388.34 38.4621C1388.79 43.034 1389.11 45.1503 1390.12 50.2473C1390.38 51.5835 1390.79 53.7456 1391.03 55.052C1391.62 58.1999 1392.34 61.5629 1392.91 63.7775L1393.38 65.5792L1388.08 65.5798C1385.16 65.5801 1382.31 65.6111 1381.74 65.6487L1380.71 65.7171L1379.89 67.0248L1379.08 68.3325L1379.25 68.4059C1379.35 68.4463 1382.76 68.4829 1386.83 68.4874L1394.22 68.4953L1394.96 70.7015C1396.42 75.0227 1397.06 76.3694 1398.75 78.6277C1399.69 79.8863 1402.8 83.0658 1404.63 84.6278L1405.75 85.5879L1406.83 87.0555C1408.87 89.8122 1409.7 91.2011 1410.19 92.723C1410.52 93.7319 1410.86 95.7569 1411.01 97.6467C1411.27 100.903 1411.75 104.013 1412.37 106.389C1413.3 109.955 1415.13 113.587 1417.1 115.763C1419.55 118.474 1421.78 119.886 1425.65 121.18C1427.49 121.795 1428.2 121.865 1431.88 121.8L1435.03 121.744L1435.68 121.587C1439.31 120.707 1442.97 119.162 1445.74 117.348L1447.02 116.511L1448.38 115.15C1449.7 113.827 1451.09 112.155 1452.44 110.279C1454.73 107.102 1457.08 102.313 1458.14 98.6725C1458.49 97.4735 1459.1 94.7966 1459.32 93.4757C1459.8 90.6749 1459.73 85.825 1459.16 82.4228C1458.14 76.3884 1457.04 72.9266 1454.61 68.1375C1452.56 64.104 1450.25 60.7719 1447.09 57.2999C1445.09 55.1024 1441.77 52.1472 1439.91 50.8967L1439.25 50.4531L1438.87 50.4852L1438.49 50.5172L1438.31 51.0571C1438.21 51.354 1438.02 52.2616 1437.88 53.0739L1437.63 54.5508L1437.81 54.9236C1437.91 55.1285 1438.39 55.6508 1438.89 56.0845C1442.77 59.4918 1445.19 62.1948 1447.66 65.9032C1451.11 71.0589 1453.38 76.7625 1454.38 82.713L1454.56 83.7724L1454.6 87.3099L1454.65 90.8474L1454.42 92.4217C1453.9 96.0087 1452.59 99.9122 1450.88 102.991C1448.43 107.399 1444.61 111.736 1441.54 113.611C1439.17 115.055 1436.4 116.062 1433.6 116.498L1432.44 116.678L1430.39 116.658L1428.34 116.637L1427.26 116.417C1423.89 115.728 1421.27 114.17 1419.38 111.737C1418.1 110.087 1417.7 109.215 1416.53 105.583C1415.43 102.132 1415.32 101.658 1415 99.1044L1414.87 98.0246L1415.1 96.8186C1415.45 95.0107 1415.91 93.5897 1416.74 91.7324C1417.92 89.1078 1418.87 87.9301 1420.98 86.5109C1424.54 84.1096 1425.94 82.9036 1427.3 81.0788C1428.23 79.8429 1428.61 79.1984 1429.61 77.1862C1432.93 70.5257 1434.65 65.0393 1436.28 55.9158C1436.52 54.55 1436.86 52.6794 1437.04 51.7589C1437.76 47.903 1438.99 39.9123 1439.62 34.8614C1440.37 28.8187 1440.49 27.7101 1440.6 25.5219C1440.65 24.4826 1440.72 23.5109 1440.75 23.3624C1440.92 22.5937 1441.18 19.1046 1441.18 17.64C1441.18 14.3124 1440.5 10.9109 1439.35 8.50472C1438.37 6.46201 1436.72 4.41929 1435.25 3.42304C1433.03 1.9204 1430.2 1.12293 1426.81 1.03828L1425.17 0.997358L1424.67 1.2147C1424.4 1.33434 1424.18 1.48474 1424.18 1.5492C1424.18 1.61355 1423.87 1.42665 1423.49 1.13373C1423.11 0.840907 1422.51 0.493347 1422.17 0.361406L1421.54 0.121494L1420.51 0.108105L1419.49 0.0946089L1418.66 0.510191C1417.65 1.01118 1416.75 1.90464 1416.32 2.81754L1416.03 3.44172V4.79395V6.14608L1416.38 6.85502C1416.8 7.71685 1417.68 8.57986 1418.52 8.96338C1420.13 9.70017 1422.23 9.46275 1423.59 8.38919C1424.15 7.94607 1424.79 6.94561 1425.07 6.0543C1425.2 5.62695 1425.32 5.25769 1425.34 5.23372C1425.35 5.20986 1425.47 5.31492 1425.59 5.46726C1425.81 5.75684 1425.83 5.76192 1427.58 5.98391C1431.08 6.42637 1432.26 6.90145 1433.78 8.46261C1434.9 9.60732 1435.67 11.0558 1436.19 12.977L1436.41 13.807L1436.5 17.37C1436.55 19.5444 1436.55 21.1856 1436.49 21.5809C1436.43 21.9372 1436.39 22.7632 1436.38 23.4164C1436.38 24.0697 1436.34 25.0171 1436.28 25.5219C1436.23 26.0266 1436.13 26.9984 1436.06 27.6813C1435.92 29.2118 1435.76 30.717 1435.63 31.7842C1435.58 32.2296 1435.48 33.1042 1435.41 33.7277C1435.07 36.9255 1434.55 41.148 1434.33 42.5274C1434.28 42.8837 1434.13 43.8554 1434 44.6868C1433.72 46.5463 1433.33 48.7055 1433.04 50.0466C1432.92 50.6023 1432.62 52.1746 1432.39 53.5404C1431.23 60.2811 1429.96 65.1904 1428.29 69.4121C1426.56 73.7615 1423.33 78.9541 1421.62 80.1352C1420.29 81.0542 1419.21 81.7262 1418.59 82.0177C1417.79 82.3955 1415.67 82.8467 1414.68 82.8494C1412.74 82.8547 1409.62 81.737 1407.35 80.2186C1404.76 78.4925 1402.09 75.432 1400.87 72.7971C1400.29 71.5433 1399.3 68.7283 1399.4 68.6287C1399.44 68.5845 1405.75 68.5206 1413.42 68.4865C1421.09 68.4524 1427.37 68.416 1427.38 68.4055C1427.43 68.3209 1428.28 66.0286 1428.31 65.9032L1428.34 65.7412L1413.37 65.6872C1405.13 65.6575 1398.37 65.6059 1398.34 65.5727C1398.21 65.4467 1396.84 60.3476 1396.28 57.9133C1395.6 54.9796 1395.24 53.16 1394.93 51.1111C1394.58 48.8064 1393.1 38.5154 1392.81 36.373C1392.67 35.3041 1392.43 33.6521 1392.28 32.702C1391.86 30.0917 1391.51 27.5987 1391.29 25.7378L1391.09 24.0643L1391.09 20.6092L1391.09 17.1541L1391.35 15.9664C1392.07 12.5575 1393.45 9.87962 1395.42 8.03051C1397.07 6.47809 1399.35 5.36977 1401.62 5.01281C1403.34 4.74127 1403.59 4.57121 1403.71 3.56999C1403.8 2.79389 1404.02 2.2685 1404.58 1.55222C1405.14 0.833889 1405.32 0.501877 1405.23 0.365293C1405.08 0.107889 1403.6 -0.0975801 1402.97 0.0488291ZM1407.72 0.162091C1406.49 0.408806 1405.27 1.2146 1404.64 2.19876C1404.27 2.78461 1403.78 4.21512 1403.78 4.73004C1403.78 5.34083 1404.23 6.73949 1404.64 7.36292C1405.32 8.42244 1406.44 9.12685 1407.76 9.33232L1408.53 9.45076L1409.3 9.33059C1410.27 9.17965 1411.39 8.61193 1411.99 7.95698C1412.23 7.69212 1412.59 7.15086 1412.77 6.75428L1413.12 6.03303L1413.11 4.73738L1413.11 3.44172L1412.8 2.79389C1412.35 1.8662 1411.43 0.990771 1410.4 0.500797L1409.56 0.101735L1408.91 0.0777654C1408.55 0.0645929 1408.01 0.102491 1407.72 0.162091ZM1425.06 3.33375C1425.07 3.53825 1425.25 3.88268 1425.25 3.71165C1425.26 3.62257 1425.21 3.47681 1425.15 3.38774C1425.1 3.29866 1425.05 3.27437 1425.06 3.33375ZM1342.19 31.2474C1341.71 31.3937 1341.27 31.883 1341.09 32.4817C1340.93 33.0273 1340.62 34.599 1339.65 39.8281C1339.36 41.3721 1338.8 44.3602 1338.4 46.4683C1338.01 48.5765 1337.44 51.6132 1337.15 53.2165C1336.85 54.8199 1336.56 56.3261 1336.51 56.5636C1336.45 56.8012 1336.13 58.4531 1335.8 60.2347C1335.09 64.0645 1335.05 64.2209 1334.66 64.551L1334.36 64.8057L1333.68 64.8653C1333.31 64.8981 1329.96 64.978 1326.25 65.0428C1316.84 65.2074 1313.32 65.3224 1312.86 65.4802C1311.89 65.8193 1311.6 66.3086 1310.98 68.6564C1310.27 71.3243 1309.65 73.4677 1309.59 73.5374C1309.55 73.5746 1309.49 73.582 1309.47 73.5536C1309.4 73.492 1308.95 71.1311 1308.64 69.2503C1308.52 68.508 1308.25 67.0018 1308.05 65.9032C1307.84 64.8046 1307.53 62.9825 1307.36 61.8542C1306.76 57.8534 1305.71 51.7881 1305.5 51.1111C1305.09 49.7796 1303.4 49.5071 1302.54 50.6344C1302.24 51.0218 1301.28 53.3816 1300.16 56.4557C1299.11 59.3338 1297.49 63.6051 1297.18 64.2836C1296.88 64.9527 1296.56 65.3288 1296.17 65.4779C1296.01 65.5383 1291.92 65.5792 1286.04 65.5792C1280.62 65.5792 1274.8 65.6113 1273.09 65.6506L4 65.722V67.1622V68.6024L1282.28 68.5964C1289.04 68.5932 1295.37 68.5525 1296.35 68.5059L1298.13 68.4215L1298.54 68.2252C1298.77 68.1172 1299.07 67.8542 1299.21 67.6409C1299.51 67.1843 1300.42 64.9886 1301.74 61.5303C1302.86 58.6006 1303.09 58.0719 1303.26 57.9653C1303.53 57.7998 1303.58 58.0372 1304.5 63.6358C1304.77 65.2688 1305.33 68.6213 1305.75 71.0858C1306.17 73.5502 1306.63 76.344 1306.77 77.2941C1307.18 79.9934 1307.46 81.4478 1307.62 81.7589C1307.82 82.1417 1308.21 82.4898 1308.59 82.6371L1308.91 82.7578L1309.43 82.6341L1309.95 82.5102L1310.28 82.1306C1310.46 81.9218 1310.66 81.6227 1310.72 81.466C1310.92 80.9723 1311.89 77.5716 1312.27 76.0525C1312.82 73.8491 1314.14 69.2755 1314.34 68.8893C1314.6 68.3622 1314.92 68.0708 1315.28 68.0147C1315.47 67.9865 1317.66 67.9368 1320.15 67.9043C1322.65 67.8718 1327.31 67.7919 1330.52 67.7267L1336.35 67.6082L1336.81 67.3905C1337.33 67.1492 1337.73 66.6299 1337.9 65.9571C1338.02 65.5233 1338.7 62.0139 1338.83 61.2064C1338.93 60.58 1339.79 56.0163 1340.39 52.9466C1340.68 51.4917 1341.07 49.3903 1341.27 48.2768C1341.47 47.1634 1341.68 46.2524 1341.72 46.2524C1341.76 46.2524 1341.8 46.6046 1341.8 47.0352C1341.8 47.4658 1341.85 48.5468 1341.91 49.4375C1341.97 50.3283 1342.06 52.1017 1342.13 53.3785C1342.19 54.6552 1342.28 56.5258 1342.34 57.5354C1342.39 58.5449 1342.49 60.6827 1342.56 62.2861C1342.62 63.8895 1342.75 66.4403 1342.83 67.9546C1342.92 69.4689 1343.04 72.0197 1343.09 73.6231C1343.15 75.2265 1343.25 77.4129 1343.31 78.4818C1343.56 82.9352 1343.65 84.6717 1343.75 87.3355C1343.8 88.8795 1343.9 90.993 1343.96 92.0322C1344.1 94.6298 1344.26 97.9981 1344.4 101.588C1344.57 106.017 1344.92 111.649 1345.05 111.985C1345.21 112.405 1345.67 112.847 1346.08 112.985L1346.44 113.103L1346.85 112.974C1347.32 112.824 1347.69 112.51 1347.91 112.088C1348.07 111.788 1348.4 110.16 1348.81 107.688C1349.38 104.203 1350.3 98.4712 1350.77 95.4873C1350.89 94.6856 1351.38 91.6975 1351.85 88.8471C1352.32 85.9966 1352.75 83.3486 1352.81 82.9626C1352.86 82.5766 1353.16 80.8275 1353.46 79.0757C1353.76 77.3238 1354.22 74.5544 1354.49 72.9213C1355.01 69.7438 1355.15 69.2129 1355.58 68.8077L1355.85 68.5485L1363.16 68.4876C1367.18 68.4541 1370.47 68.4176 1370.48 68.4066C1370.67 68.1581 1372.05 65.9869 1372.1 65.8622L1372.16 65.6872L1370.13 65.6725C1364.51 65.632 1353.75 65.7077 1353.53 65.7891C1353.05 65.9716 1352.61 66.446 1352.45 66.9591C1352.28 67.5071 1352.26 67.6502 1351.35 73.1912C1351.03 75.2103 1350.64 77.5911 1350.49 78.4818C1350.35 79.3726 1349.89 82.1906 1349.48 84.7442C1347.71 95.6304 1347.47 97.0899 1347.43 97.0458C1347.4 97.0203 1347.27 94.9465 1347.13 92.4373C1346.89 88.1001 1346.81 86.4063 1346.55 80.8032C1346.2 73.2449 1345.99 68.9415 1345.79 65.0934C1345.59 61.3416 1345.49 59.3606 1345.32 55.8078C1345.22 53.9075 1345.1 51.6725 1345.04 50.8412C1344.99 50.0098 1344.91 48.6007 1344.88 47.71C1344.84 46.8192 1344.77 45.3859 1344.71 44.5248C1344.66 43.6638 1344.54 41.5028 1344.44 39.7227C1344.09 32.7049 1344.06 32.4163 1343.78 31.8662C1343.51 31.3342 1342.81 31.0606 1342.19 31.2474ZM1412.14 42.0408C1408.65 42.2161 1405.94 42.7259 1400.65 44.2056C1397.89 44.9749 1395.75 45.9648 1395.61 46.5391C1395.46 47.12 1395.93 49.6885 1396.28 50.2192L1396.44 50.4633H1396.83C1397.06 50.4633 1397.85 50.1971 1398.8 49.8007C1402.12 48.408 1402.8 48.159 1404.59 47.7065C1408.86 46.6223 1413.19 46.2513 1417.17 46.6308C1421.89 47.0824 1425.34 47.999 1429.76 49.9831C1430.57 50.3452 1431.22 50.5712 1431.46 50.5712H1431.85L1432.05 50.239C1432.3 49.8363 1432.74 47.8347 1432.75 47.0286L1432.77 46.4453L1432.4 46.1375C1431.97 45.7825 1429.94 44.9197 1427.91 44.233C1422.8 42.5052 1417.52 41.7712 1412.14 42.0408ZM1387.74 50.6697C1386.41 51.2903 1380.84 56.4122 1378.34 59.3169C1371.1 67.702 1367.38 76.4926 1367.1 85.8379L1367.05 87.4716L1367.22 87.8053C1367.54 88.4218 1367.86 88.4751 1370.01 88.2649C1371.21 88.1464 1371.56 88.0219 1371.67 87.6596C1371.71 87.5407 1371.73 86.9819 1371.72 86.4177C1371.7 85.4062 1371.93 82.7676 1372.15 81.505C1372.52 79.4094 1373.39 76.4354 1374.25 74.3088C1375.69 70.7657 1378.23 66.6702 1381.19 63.0959C1382.54 61.4655 1385.73 58.231 1387.65 56.5497C1388.5 55.806 1389.23 55.0689 1389.31 54.8939C1389.45 54.556 1389.43 54.4108 1389.07 52.4067C1388.86 51.2051 1388.56 50.4608 1388.3 50.4656C1388.23 50.4669 1387.98 50.5588 1387.74 50.6697ZM1435.21 66.1461C1434.8 67.1292 1434.41 68.2872 1434.48 68.3556C1434.52 68.3952 1437.5 68.4164 1441.11 68.4026L1447.67 68.3777L1447.65 68.2277C1447.65 68.1452 1447.28 67.5708 1446.84 66.9512L1446.05 65.8248L1445.09 65.756C1444.56 65.7182 1442.16 65.6872 1439.76 65.6872H1435.4L1435.21 66.1461ZM1455.21 65.8696L1455.08 65.9608L1455.69 67.1467L1456.31 68.3325L1461.27 68.3665C1464 68.3853 1468.68 68.3674 1471.66 68.3267L3761.09 68.2528V67.078V65.9032L1472.26 65.9031C1469.6 65.9029 1464.7 65.8749 1461.38 65.8406C1458.05 65.8064 1455.28 65.8194 1455.21 65.8696ZM1369.71 90.4174C1368.76 90.5072 1367.37 90.8891 1366.37 91.3302C1364.91 91.9779 1363.24 93.3289 1362.15 94.7391C1360.77 96.5244 1359.94 99.0395 1359.94 101.442V102.515L1360.21 103.588C1360.81 106.039 1361.77 107.72 1363.46 109.3C1365.4 111.117 1367.96 112.172 1370.74 112.301L1371.99 112.359L1372.89 112.177C1375.65 111.617 1377.54 110.623 1379.27 108.807C1380.6 107.418 1381.42 105.948 1381.91 104.074L1382.18 103.022V101.272V99.523L1381.96 98.6658C1380.97 94.8798 1378.35 92.0801 1374.69 90.8923C1372.96 90.3294 1371.8 90.2194 1369.71 90.4174Z" fill="#E94041"/>
<rect x="-2.5" y="2.5" width="804" height="87" rx="22.5" transform="matrix(-1 0 0 1 2281 15)" fill="#E9E6D7" stroke="#3B5A6D" stroke-width="5"/>
<path d="M1562.86 45.8571H1568V51H1562.86V45.8571ZM1557.71 45.8571H1562.86V51H1557.71V45.8571ZM1557.71 40.7143H1562.86V45.8571H1557.71V40.7143ZM1562.86 40.7143H1568V45.8571H1562.86V40.7143ZM1557.71 35.5714H1562.86V40.7143H1557.71V35.5714ZM1552.57 35.5714H1557.71V40.7143H1552.57V35.5714ZM1552.57 40.7143H1557.71V45.8571H1552.57V40.7143ZM1547.43 40.7143H1552.57V45.8571H1547.43V40.7143ZM1542.29 40.7143H1547.43V45.8571H1542.29V40.7143ZM1542.29 35.5714H1547.43V40.7143H1542.29V35.5714ZM1537.14 35.5714H1542.29V40.7143H1537.14V35.5714ZM1547.43 35.5714H1552.57V40.7143H1547.43V35.5714ZM1537.14 40.7143H1542.29V45.8571H1537.14V40.7143ZM1532 40.7143H1537.14V45.8571H1532V40.7143ZM1532 45.8571H1537.14V51H1532V45.8571ZM1537.14 45.8571H1542.29V51H1537.14V45.8571ZM1537.14 51H1542.29V56.1429H1537.14V51ZM1537.14 56.1429H1542.29V61.2857H1537.14V56.1429ZM1532 56.1429H1537.14V61.2857H1532V56.1429ZM1532 51H1537.14V56.1429H1532V51ZM1537.14 61.2857H1542.29V66.4286H1537.14V61.2857ZM1542.29 61.2857H1547.43V66.4286H1542.29V61.2857ZM1542.29 56.1429H1547.43V61.2857H1542.29V56.1429ZM1547.43 56.1429H1552.57V61.2857H1547.43V56.1429ZM1552.57 56.1429H1557.71V61.2857H1552.57V56.1429ZM1557.71 56.1429H1562.86V61.2857H1557.71V56.1429ZM1557.71 61.2857H1562.86V66.4286H1557.71V61.2857ZM1552.57 61.2857H1557.71V66.4286H1552.57V61.2857ZM1547.43 61.2857H1552.57V66.4286H1547.43V61.2857ZM1562.86 61.2857H1568V66.4286H1562.86V61.2857ZM1562.86 66.4286H1568V71.5714H1562.86V66.4286ZM1557.71 66.4286H1562.86V71.5714H1557.71V66.4286ZM1552.57 76.7143H1557.71V81.8571H1552.57V76.7143ZM1557.71 76.7143H1562.86V81.8571H1557.71V76.7143ZM1557.71 71.5714H1562.86V76.7143H1557.71V71.5714ZM1562.86 71.5714H1568V76.7143H1562.86V71.5714ZM1562.86 76.7143H1568V81.8571H1562.86V76.7143ZM1557.71 81.8571H1562.86V87H1557.71V81.8571ZM1552.57 81.8571H1557.71V87H1552.57V81.8571ZM1547.43 81.8571H1552.57V87H1547.43V81.8571ZM1542.29 81.8571H1547.43V87H1542.29V81.8571ZM1537.14 81.8571H1542.29V87H1537.14V81.8571ZM1537.14 76.7143H1542.29V81.8571H1537.14V76.7143ZM1542.29 76.7143H1547.43V81.8571H1542.29V76.7143ZM1547.43 76.7143H1552.57V81.8571H1547.43V76.7143ZM1532 76.7143H1537.14V81.8571H1532V76.7143ZM1532 71.5714H1537.14V76.7143H1532V71.5714ZM1537.14 71.5714H1542.29V76.7143H1537.14V71.5714ZM1573.16 35.5714H1578.3V40.7143H1573.16V35.5714ZM1578.3 35.5714H1583.44V40.7143H1578.3V35.5714ZM1578.3 40.7143H1583.44V45.8571H1578.3V40.7143ZM1578.3 45.8571H1583.44V51H1578.3V45.8571ZM1573.16 45.8571H1578.3V51H1573.16V45.8571ZM1573.16 40.7143H1578.3V45.8571H1573.16V40.7143ZM1573.16 51H1578.3V56.1429H1573.16V51ZM1573.16 56.1429H1578.3V61.2857H1573.16V56.1429ZM1578.3 56.1429H1583.44V61.2857H1578.3V56.1429ZM1578.3 51H1583.44V56.1429H1578.3V51ZM1578.3 61.2857H1583.44V66.4286H1578.3V61.2857ZM1583.44 61.2857H1588.58V66.4286H1583.44V61.2857ZM1583.44 56.1429H1588.58V61.2857H1583.44V56.1429ZM1583.44 66.4286H1588.58V71.5714H1583.44V66.4286ZM1588.58 66.4286H1593.73V71.5714H1588.58V66.4286ZM1588.58 61.2857H1593.73V66.4286H1588.58V61.2857ZM1593.73 61.2857H1598.87V66.4286H1593.73V61.2857ZM1593.73 66.4286H1598.87V71.5714H1593.73V66.4286ZM1598.87 66.4286H1604.01V71.5714H1598.87V66.4286ZM1598.87 61.2857H1604.01V66.4286H1598.87V61.2857ZM1598.87 56.1429H1604.01V61.2857H1598.87V56.1429ZM1604.01 56.1429H1609.16V61.2857H1604.01V56.1429ZM1604.01 61.2857H1609.16V66.4286H1604.01V61.2857ZM1604.01 51H1609.16V56.1429H1604.01V51ZM1604.01 45.8571H1609.16V51H1604.01V45.8571ZM1604.01 40.7143H1609.16V45.8571H1604.01V40.7143ZM1604.01 35.5714H1609.16V40.7143H1604.01V35.5714ZM1609.16 35.5714H1614.3V40.7143H1609.16V35.5714ZM1609.16 40.7143H1614.3V45.8571H1609.16V40.7143ZM1609.16 45.8571H1614.3V51H1609.16V45.8571ZM1609.16 51H1614.3V56.1429H1609.16V51ZM1609.16 56.1429H1614.3V61.2857H1609.16V56.1429ZM1588.58 71.5714H1593.73V76.7143H1588.58V71.5714ZM1588.58 76.7143H1593.73V81.8571H1588.58V76.7143ZM1588.58 81.8571H1593.73V87H1588.58V81.8571ZM1593.73 81.8571H1598.87V87H1593.73V81.8571ZM1593.73 76.7143H1598.87V81.8571H1593.73V76.7143ZM1593.73 71.5714H1598.87V76.7143H1593.73V71.5714ZM1619.47 81.8571H1624.61V87H1619.47V81.8571ZM1619.47 76.7143H1624.61V81.8571H1619.47V76.7143ZM1619.47 71.5714H1624.61V76.7143H1619.47V71.5714ZM1619.47 66.4286H1624.61V71.5714H1619.47V66.4286ZM1619.47 61.2857H1624.61V66.4286H1619.47V61.2857ZM1619.47 56.1429H1624.61V61.2857H1619.47V56.1429ZM1624.61 56.1429H1629.75V61.2857H1624.61V56.1429ZM1624.61 51H1629.75V56.1429H1624.61V51ZM1624.61 45.8571H1629.75V51H1624.61V45.8571ZM1624.61 40.7143H1629.75V45.8571H1624.61V40.7143ZM1619.47 40.7143H1624.61V45.8571H1619.47V40.7143ZM1619.47 35.5714H1624.61V40.7143H1619.47V35.5714ZM1619.47 45.8571H1624.61V51H1619.47V45.8571ZM1619.47 51H1624.61V56.1429H1619.47V51ZM1624.61 35.5714H1629.75V40.7143H1624.61V35.5714ZM1624.61 61.2857H1629.75V66.4286H1624.61V61.2857ZM1624.61 66.4286H1629.75V71.5714H1624.61V66.4286ZM1624.61 71.5714H1629.75V76.7143H1624.61V71.5714ZM1624.61 76.7143H1629.75V81.8571H1624.61V76.7143ZM1624.61 81.8571H1629.75V87H1624.61V81.8571ZM1629.75 45.8571H1634.9V51H1629.75V45.8571ZM1629.75 51H1634.9V56.1429H1629.75V51ZM1634.9 51H1640.04V56.1429H1634.9V51ZM1634.9 56.1429H1640.04V61.2857H1634.9V56.1429ZM1640.04 56.1429H1645.18V61.2857H1640.04V56.1429ZM1640.04 61.2857H1645.18V66.4286H1640.04V61.2857ZM1645.18 56.1429H1650.33V61.2857H1645.18V56.1429ZM1645.18 51H1650.33V56.1429H1645.18V51ZM1650.33 51H1655.47V56.1429H1650.33V51ZM1650.33 45.8571H1655.47V51H1650.33V45.8571ZM1655.47 35.5714H1660.61V40.7143H1655.47V35.5714ZM1655.47 40.7143H1660.61V45.8571H1655.47V40.7143ZM1655.47 45.8571H1660.61V51H1655.47V45.8571ZM1655.47 51H1660.61V56.1429H1655.47V51ZM1655.47 56.1429H1660.61V61.2857H1655.47V56.1429ZM1655.47 61.2857H1660.61V66.4286H1655.47V61.2857ZM1655.47 66.4286H1660.61V71.5714H1655.47V66.4286ZM1655.47 71.5714H1660.61V76.7143H1655.47V71.5714ZM1655.47 76.7143H1660.61V81.8571H1655.47V76.7143ZM1655.47 81.8571H1660.61V87H1655.47V81.8571ZM1660.61 81.8571H1665.75V87H1660.61V81.8571ZM1660.61 76.7143H1665.75V81.8571H1660.61V76.7143ZM1660.61 71.5714H1665.75V76.7143H1660.61V71.5714ZM1660.61 66.4286H1665.75V71.5714H1660.61V66.4286ZM1660.61 61.2857H1665.75V66.4286H1660.61V61.2857ZM1660.61 56.1429H1665.75V61.2857H1660.61V56.1429ZM1660.61 51H1665.75V56.1429H1660.61V51ZM1660.61 45.8571H1665.75V51H1660.61V45.8571ZM1660.61 40.7143H1665.75V45.8571H1660.61V40.7143ZM1660.61 35.5714H1665.75V40.7143H1660.61V35.5714ZM1629.75 40.7143H1634.9V45.8571H1629.75V40.7143ZM1634.9 45.8571H1640.04V51H1634.9V45.8571ZM1640.04 51H1645.18V56.1429H1640.04V51ZM1645.18 45.8571H1650.33V51H1645.18V45.8571ZM1650.33 40.7143H1655.47V45.8571H1650.33V40.7143ZM1670.94 35.5714H1676.08V40.7143H1670.94V35.5714ZM1676.08 35.5714H1681.22V40.7143H1676.08V35.5714ZM1681.22 35.5714H1686.37V40.7143H1681.22V35.5714ZM1686.37 35.5714H1691.51V40.7143H1686.37V35.5714ZM1691.51 35.5714H1696.65V40.7143H1691.51V35.5714ZM1696.65 35.5714H1701.79V40.7143H1696.65V35.5714ZM1696.65 40.7143H1701.79V45.8571H1696.65V40.7143ZM1691.51 40.7143H1696.65V45.8571H1691.51V40.7143ZM1686.37 40.7143H1691.51V45.8571H1686.37V40.7143ZM1681.22 40.7143H1686.37V45.8571H1681.22V40.7143ZM1676.08 40.7143H1681.22V45.8571H1676.08V40.7143ZM1670.94 40.7143H1676.08V45.8571H1670.94V40.7143ZM1701.79 40.7143H1706.94V45.8571H1701.79V40.7143ZM1696.65 45.8571H1701.79V51H1696.65V45.8571ZM1701.79 45.8571H1706.94V51H1701.79V45.8571ZM1701.79 51H1706.94V56.1429H1701.79V51ZM1701.79 56.1429H1706.94V61.2857H1701.79V56.1429ZM1696.65 56.1429H1701.79V61.2857H1696.65V56.1429ZM1696.65 51H1701.79V56.1429H1696.65V51ZM1696.65 61.2857H1701.79V66.4286H1696.65V61.2857ZM1696.65 66.4286H1701.79V71.5714H1696.65V66.4286ZM1691.51 66.4286H1696.65V71.5714H1691.51V66.4286ZM1691.51 61.2857H1696.65V66.4286H1691.51V61.2857ZM1686.37 61.2857H1691.51V66.4286H1686.37V61.2857ZM1686.37 66.4286H1691.51V71.5714H1686.37V66.4286ZM1681.22 66.4286H1686.37V71.5714H1681.22V66.4286ZM1681.22 61.2857H1686.37V66.4286H1681.22V61.2857ZM1676.08 61.2857H1681.22V66.4286H1676.08V61.2857ZM1670.94 61.2857H1676.08V66.4286H1670.94V61.2857ZM1670.94 66.4286H1676.08V71.5714H1670.94V66.4286ZM1676.08 66.4286H1681.22V71.5714H1676.08V66.4286ZM1670.94 45.8571H1676.08V51H1670.94V45.8571ZM1676.08 45.8571H1681.22V51H1676.08V45.8571ZM1676.08 51H1681.22V56.1429H1676.08V51ZM1676.08 56.1429H1681.22V61.2857H1676.08V56.1429ZM1670.94 51H1676.08V56.1429H1670.94V51ZM1670.94 56.1429H1676.08V61.2857H1670.94V56.1429ZM1670.94 71.5714H1676.08V76.7143H1670.94V71.5714ZM1676.08 71.5714H1681.22V76.7143H1676.08V71.5714ZM1676.08 76.7143H1681.22V81.8571H1676.08V76.7143ZM1676.08 81.8571H1681.22V87H1676.08V81.8571ZM1670.94 81.8571H1676.08V87H1670.94V81.8571ZM1670.94 76.7143H1676.08V81.8571H1670.94V76.7143ZM1701.79 61.2857H1706.94V66.4286H1701.79V61.2857ZM1712.09 35.5714H1717.24V40.7143H1712.09V35.5714ZM1717.24 35.5714H1722.38V40.7143H1717.24V35.5714ZM1722.38 35.5714H1727.52V40.7143H1722.38V35.5714ZM1727.52 35.5714H1732.67V40.7143H1727.52V35.5714ZM1732.67 35.5714H1737.81V40.7143H1732.67V35.5714ZM1737.81 35.5714H1742.95V40.7143H1737.81V35.5714ZM1737.81 40.7143H1742.95V45.8571H1737.81V40.7143ZM1732.67 40.7143H1737.81V45.8571H1732.67V40.7143ZM1727.52 40.7143H1732.67V45.8571H1727.52V40.7143ZM1722.38 40.7143H1727.52V45.8571H1722.38V40.7143ZM1717.24 40.7143H1722.38V45.8571H1717.24V40.7143ZM1712.09 40.7143H1717.24V45.8571H1712.09V40.7143ZM1722.38 45.8571H1727.52V51H1722.38V45.8571ZM1722.38 51H1727.52V56.1429H1722.38V51ZM1722.38 56.1429H1727.52V61.2857H1722.38V56.1429ZM1722.38 61.2857H1727.52V66.4286H1722.38V61.2857ZM1722.38 66.4286H1727.52V71.5714H1722.38V66.4286ZM1722.38 71.5714H1727.52V76.7143H1722.38V71.5714ZM1727.52 66.4286H1732.67V71.5714H1727.52V66.4286ZM1727.52 61.2857H1732.67V66.4286H1727.52V61.2857ZM1727.52 56.1429H1732.67V61.2857H1727.52V56.1429ZM1727.52 51H1732.67V56.1429H1727.52V51ZM1727.52 45.8571H1732.67V51H1727.52V45.8571ZM1727.52 71.5714H1732.67V76.7143H1727.52V71.5714ZM1727.52 76.7143H1732.67V81.8571H1727.52V76.7143ZM1727.52 81.8571H1732.67V87H1727.52V81.8571ZM1722.38 81.8571H1727.52V87H1722.38V81.8571ZM1722.38 76.7143H1727.52V81.8571H1722.38V76.7143ZM1758.38 35.5714H1763.52V40.7143H1758.38V35.5714ZM1753.24 35.5714H1758.38V40.7143H1753.24V35.5714ZM1753.24 40.7143H1758.38V45.8571H1753.24V40.7143ZM1758.38 40.7143H1763.52V45.8571H1758.38V40.7143ZM1763.52 40.7143H1768.67V45.8571H1763.52V40.7143ZM1763.52 35.5714H1768.67V40.7143H1763.52V35.5714ZM1768.67 35.5714H1773.81V40.7143H1768.67V35.5714ZM1773.81 35.5714H1778.95V40.7143H1773.81V35.5714ZM1773.81 40.7143H1778.95V45.8571H1773.81V40.7143ZM1768.67 40.7143H1773.81V45.8571H1768.67V40.7143ZM1768.67 45.8571H1773.81V51H1768.67V45.8571ZM1773.81 45.8571H1778.95V51H1773.81V45.8571ZM1778.95 40.7143H1784.09V45.8571H1778.95V40.7143ZM1778.95 45.8571H1784.09V51H1778.95V45.8571ZM1778.95 51H1784.09V56.1429H1778.95V51ZM1778.95 56.1429H1784.09V61.2857H1778.95V56.1429ZM1778.95 61.2857H1784.09V66.4286H1778.95V61.2857ZM1778.95 66.4286H1784.09V71.5714H1778.95V66.4286ZM1778.95 71.5714H1784.09V76.7143H1778.95V71.5714ZM1778.95 76.7143H1784.09V81.8571H1778.95V76.7143ZM1773.81 76.7143H1778.95V81.8571H1773.81V76.7143ZM1773.81 71.5714H1778.95V76.7143H1773.81V71.5714ZM1773.81 66.4286H1778.95V71.5714H1773.81V66.4286ZM1773.81 61.2857H1778.95V66.4286H1773.81V61.2857ZM1773.81 56.1429H1778.95V61.2857H1773.81V56.1429ZM1773.81 51H1778.95V56.1429H1773.81V51ZM1768.67 71.5714H1773.81V76.7143H1768.67V71.5714ZM1768.67 76.7143H1773.81V81.8571H1768.67V76.7143ZM1773.81 81.8571H1778.95V87H1773.81V81.8571ZM1768.67 81.8571H1773.81V87H1768.67V81.8571ZM1763.52 81.8571H1768.67V87H1763.52V81.8571ZM1763.52 76.7143H1768.67V81.8571H1763.52V76.7143ZM1758.38 81.8571H1763.52V87H1758.38V81.8571ZM1753.24 81.8571H1758.38V87H1753.24V81.8571ZM1753.24 76.7143H1758.38V81.8571H1753.24V76.7143ZM1758.38 76.7143H1763.52V81.8571H1758.38V76.7143ZM1758.38 71.5714H1763.52V76.7143H1758.38V71.5714ZM1753.24 71.5714H1758.38V76.7143H1753.24V71.5714ZM1748.09 76.7143H1753.24V81.8571H1748.09V76.7143ZM1748.09 71.5714H1753.24V76.7143H1748.09V71.5714ZM1748.09 66.4286H1753.24V71.5714H1748.09V66.4286ZM1748.09 61.2857H1753.24V66.4286H1748.09V61.2857ZM1748.09 56.1429H1753.24V61.2857H1748.09V56.1429ZM1748.09 51H1753.24V56.1429H1748.09V51ZM1748.09 45.8571H1753.24V51H1748.09V45.8571ZM1753.24 45.8571H1758.38V51H1753.24V45.8571ZM1748.09 40.7143H1753.24V45.8571H1748.09V40.7143ZM1758.38 45.8571H1763.52V51H1758.38V45.8571ZM1753.24 51H1758.38V56.1429H1753.24V51ZM1753.24 56.1429H1758.38V61.2857H1753.24V56.1429ZM1753.24 61.2857H1758.38V66.4286H1753.24V61.2857ZM1753.24 66.4286H1758.38V71.5714H1753.24V66.4286ZM1789.25 81.8571H1794.39V87H1789.25V81.8571ZM1789.25 76.7143H1794.39V81.8571H1789.25V76.7143ZM1789.25 71.5714H1794.39V76.7143H1789.25V71.5714ZM1789.25 66.4286H1794.39V71.5714H1789.25V66.4286ZM1789.25 61.2857H1794.39V66.4286H1789.25V61.2857ZM1789.25 56.1429H1794.39V61.2857H1789.25V56.1429ZM1794.39 56.1429H1799.54V61.2857H1794.39V56.1429ZM1794.39 51H1799.54V56.1429H1794.39V51ZM1794.39 45.8571H1799.54V51H1794.39V45.8571ZM1794.39 40.7143H1799.54V45.8571H1794.39V40.7143ZM1789.25 40.7143H1794.39V45.8571H1789.25V40.7143ZM1789.25 35.5714H1794.39V40.7143H1789.25V35.5714ZM1789.25 45.8571H1794.39V51H1789.25V45.8571ZM1789.25 51H1794.39V56.1429H1789.25V51ZM1794.39 35.5714H1799.54V40.7143H1794.39V35.5714ZM1794.39 61.2857H1799.54V66.4286H1794.39V61.2857ZM1794.39 66.4286H1799.54V71.5714H1794.39V66.4286ZM1794.39 71.5714H1799.54V76.7143H1794.39V71.5714ZM1794.39 76.7143H1799.54V81.8571H1794.39V76.7143ZM1794.39 81.8571H1799.54V87H1794.39V81.8571ZM1799.54 45.8571H1804.68V51H1799.54V45.8571ZM1799.54 51H1804.68V56.1429H1799.54V51ZM1804.68 51H1809.82V56.1429H1804.68V51ZM1804.68 56.1429H1809.82V61.2857H1804.68V56.1429ZM1809.82 56.1429H1814.96V61.2857H1809.82V56.1429ZM1809.82 61.2857H1814.96V66.4286H1809.82V61.2857ZM1814.96 56.1429H1820.11V61.2857H1814.96V56.1429ZM1814.96 51H1820.11V56.1429H1814.96V51ZM1820.11 51H1825.25V56.1429H1820.11V51ZM1820.11 45.8571H1825.25V51H1820.11V45.8571ZM1825.25 35.5714H1830.39V40.7143H1825.25V35.5714ZM1825.25 40.7143H1830.39V45.8571H1825.25V40.7143ZM1825.25 45.8571H1830.39V51H1825.25V45.8571ZM1825.25 51H1830.39V56.1429H1825.25V51ZM1825.25 56.1429H1830.39V61.2857H1825.25V56.1429ZM1825.25 61.2857H1830.39V66.4286H1825.25V61.2857ZM1825.25 66.4286H1830.39V71.5714H1825.25V66.4286ZM1825.25 71.5714H1830.39V76.7143H1825.25V71.5714ZM1825.25 76.7143H1830.39V81.8571H1825.25V76.7143ZM1825.25 81.8571H1830.39V87H1825.25V81.8571ZM1830.39 81.8571H1835.54V87H1830.39V81.8571ZM1830.39 76.7143H1835.54V81.8571H1830.39V76.7143ZM1830.39 71.5714H1835.54V76.7143H1830.39V71.5714ZM1830.39 66.4286H1835.54V71.5714H1830.39V66.4286ZM1830.39 61.2857H1835.54V66.4286H1830.39V61.2857ZM1830.39 56.1429H1835.54V61.2857H1830.39V56.1429ZM1830.39 51H1835.54V56.1429H1830.39V51ZM1830.39 45.8571H1835.54V51H1830.39V45.8571ZM1830.39 40.7143H1835.54V45.8571H1830.39V40.7143ZM1830.39 35.5714H1835.54V40.7143H1830.39V35.5714ZM1799.54 40.7143H1804.68V45.8571H1799.54V40.7143ZM1804.68 45.8571H1809.82V51H1804.68V45.8571ZM1809.82 51H1814.96V56.1429H1809.82V51ZM1814.96 45.8571H1820.11V51H1814.96V45.8571ZM1820.11 40.7143H1825.25V45.8571H1820.11V40.7143ZM1871.58 45.8571H1876.72V51H1871.58V45.8571ZM1866.43 45.8571H1871.58V51H1866.43V45.8571ZM1866.43 40.7143H1871.58V45.8571H1866.43V40.7143ZM1871.58 40.7143H1876.72V45.8571H1871.58V40.7143ZM1866.43 35.5714H1871.58V40.7143H1866.43V35.5714ZM1861.29 35.5714H1866.43V40.7143H1861.29V35.5714ZM1861.29 40.7143H1866.43V45.8571H1861.29V40.7143ZM1856.15 40.7143H1861.29V45.8571H1856.15V40.7143ZM1851 40.7143H1856.15V45.8571H1851V40.7143ZM1851 35.5714H1856.15V40.7143H1851V35.5714ZM1845.86 35.5714H1851V40.7143H1845.86V35.5714ZM1856.15 35.5714H1861.29V40.7143H1856.15V35.5714ZM1845.86 40.7143H1851V45.8571H1845.86V40.7143ZM1840.72 40.7143H1845.86V45.8571H1840.72V40.7143ZM1840.72 45.8571H1845.86V51H1840.72V45.8571ZM1845.86 45.8571H1851V51H1845.86V45.8571ZM1845.86 51H1851V56.1429H1845.86V51ZM1845.86 56.1429H1851V61.2857H1845.86V56.1429ZM1840.72 56.1429H1845.86V61.2857H1840.72V56.1429ZM1840.72 51H1845.86V56.1429H1840.72V51ZM1845.86 61.2857H1851V66.4286H1845.86V61.2857ZM1851 61.2857H1856.15V66.4286H1851V61.2857ZM1851 56.1429H1856.15V61.2857H1851V56.1429ZM1856.15 56.1429H1861.29V61.2857H1856.15V56.1429ZM1861.29 56.1429H1866.43V61.2857H1861.29V56.1429ZM1866.43 56.1429H1871.58V61.2857H1866.43V56.1429ZM1866.43 61.2857H1871.58V66.4286H1866.43V61.2857ZM1861.29 61.2857H1866.43V66.4286H1861.29V61.2857ZM1856.15 61.2857H1861.29V66.4286H1856.15V61.2857ZM1871.58 61.2857H1876.72V66.4286H1871.58V61.2857ZM1871.58 66.4286H1876.72V71.5714H1871.58V66.4286ZM1866.43 66.4286H1871.58V71.5714H1866.43V66.4286ZM1861.29 76.7143H1866.43V81.8571H1861.29V76.7143ZM1866.43 76.7143H1871.58V81.8571H1866.43V76.7143ZM1866.43 71.5714H1871.58V76.7143H1866.43V71.5714ZM1871.58 71.5714H1876.72V76.7143H1871.58V71.5714ZM1871.58 76.7143H1876.72V81.8571H1871.58V76.7143ZM1866.43 81.8571H1871.58V87H1866.43V81.8571ZM1861.29 81.8571H1866.43V87H1861.29V81.8571ZM1856.15 81.8571H1861.29V87H1856.15V81.8571ZM1851 81.8571H1856.15V87H1851V81.8571ZM1845.86 81.8571H1851V87H1845.86V81.8571ZM1845.86 76.7143H1851V81.8571H1845.86V76.7143ZM1851 76.7143H1856.15V81.8571H1851V76.7143ZM1856.15 76.7143H1861.29V81.8571H1856.15V76.7143ZM1840.72 76.7143H1845.86V81.8571H1840.72V76.7143ZM1840.72 71.5714H1845.86V76.7143H1840.72V71.5714ZM1845.86 71.5714H1851V76.7143H1845.86V71.5714ZM1912.69 40.7143H1917.83V45.8571H1912.69V40.7143ZM1917.83 40.7143H1922.98V45.8571H1917.83V40.7143ZM1917.83 35.5714H1922.98V40.7143H1917.83V35.5714ZM1922.98 40.7143H1928.12V45.8571H1922.98V40.7143ZM1922.98 45.8571H1928.12V51H1922.98V45.8571ZM1928.12 45.8571H1933.26V51H1928.12V45.8571ZM1917.83 45.8571H1922.98V51H1917.83V45.8571ZM1912.69 45.8571H1917.83V51H1912.69V45.8571ZM1907.55 45.8571H1912.69V51H1907.55V45.8571ZM1907.55 51H1912.69V56.1429H1907.55V51ZM1902.41 51H1907.55V56.1429H1902.41V51ZM1912.69 51H1917.83V56.1429H1912.69V51ZM1907.55 56.1429H1912.69V61.2857H1907.55V56.1429ZM1907.55 61.2857H1912.69V66.4286H1907.55V61.2857ZM1907.55 66.4286H1912.69V71.5714H1907.55V66.4286ZM1912.69 66.4286H1917.83V71.5714H1912.69V66.4286ZM1917.83 66.4286H1922.98V71.5714H1917.83V66.4286ZM1922.98 66.4286H1928.12V71.5714H1922.98V66.4286ZM1928.12 66.4286H1933.26V71.5714H1928.12V66.4286ZM1933.26 66.4286H1938.41V71.5714H1933.26V66.4286ZM1933.26 61.2857H1938.41V66.4286H1933.26V61.2857ZM1933.26 56.1429H1938.41V61.2857H1933.26V56.1429ZM1933.26 51H1938.41V56.1429H1933.26V51ZM1928.12 51H1933.26V56.1429H1928.12V51ZM1922.98 51H1928.12V56.1429H1922.98V51ZM1928.12 56.1429H1933.26V61.2857H1928.12V56.1429ZM1928.12 61.2857H1933.26V66.4286H1928.12V61.2857ZM1928.12 71.5714H1933.26V76.7143H1928.12V71.5714ZM1933.26 71.5714H1938.41V76.7143H1933.26V71.5714ZM1933.26 76.7143H1938.41V81.8571H1933.26V76.7143ZM1933.26 81.8571H1938.41V87H1933.26V81.8571ZM1928.12 81.8571H1933.26V87H1928.12V81.8571ZM1928.12 76.7143H1933.26V81.8571H1928.12V76.7143ZM1922.98 71.5714H1928.12V76.7143H1922.98V71.5714ZM1917.83 71.5714H1922.98V76.7143H1917.83V71.5714ZM1912.69 71.5714H1917.83V76.7143H1912.69V71.5714ZM1907.55 71.5714H1912.69V76.7143H1907.55V71.5714ZM1907.55 76.7143H1912.69V81.8571H1907.55V76.7143ZM1907.55 81.8571H1912.69V87H1907.55V81.8571ZM1902.41 81.8571H1907.55V87H1902.41V81.8571ZM1902.41 76.7143H1907.55V81.8571H1902.41V76.7143ZM1902.41 71.5714H1907.55V76.7143H1902.41V71.5714ZM1902.41 66.4286H1907.55V71.5714H1902.41V66.4286ZM1902.41 61.2857H1907.55V66.4286H1902.41V61.2857ZM1902.41 56.1429H1907.55V61.2857H1902.41V56.1429ZM1958.99 61.2857H1964.13V66.4286H1958.99V61.2857ZM1958.99 56.1429H1964.13V61.2857H1958.99V56.1429ZM1964.13 56.1429H1969.28V61.2857H1964.13V56.1429ZM1964.13 61.2857H1969.28V66.4286H1964.13V61.2857ZM1964.13 66.4286H1969.28V71.5714H1964.13V66.4286ZM1958.99 66.4286H1964.13V71.5714H1958.99V66.4286ZM1958.99 45.8571H1964.13V51H1958.99V45.8571ZM1958.99 51H1964.13V56.1429H1958.99V51ZM1953.85 56.1429H1958.99V61.2857H1953.85V56.1429ZM1953.85 51H1958.99V56.1429H1953.85V51ZM1953.85 45.8571H1958.99V51H1953.85V45.8571ZM1943.56 35.5714H1948.71V40.7143H1943.56V35.5714ZM1948.71 35.5714H1953.85V40.7143H1948.71V35.5714ZM1953.85 35.5714H1958.99V40.7143H1953.85V35.5714ZM1953.85 40.7143H1958.99V45.8571H1953.85V40.7143ZM1948.71 40.7143H1953.85V45.8571H1948.71V40.7143ZM1943.56 40.7143H1948.71V45.8571H1943.56V40.7143ZM1943.56 45.8571H1948.71V51H1943.56V45.8571ZM1948.71 45.8571H1953.85V51H1948.71V45.8571ZM1948.71 51H1953.85V56.1429H1948.71V51ZM1948.71 56.1429H1953.85V61.2857H1948.71V56.1429ZM1943.56 56.1429H1948.71V61.2857H1943.56V56.1429ZM1943.56 51H1948.71V56.1429H1943.56V51ZM1943.56 61.2857H1948.71V66.4286H1943.56V61.2857ZM1948.71 61.2857H1953.85V66.4286H1948.71V61.2857ZM1948.71 66.4286H1953.85V71.5714H1948.71V66.4286ZM1948.71 71.5714H1953.85V76.7143H1948.71V71.5714ZM1948.71 76.7143H1953.85V81.8571H1948.71V76.7143ZM1948.71 81.8571H1953.85V87H1948.71V81.8571ZM1943.56 81.8571H1948.71V87H1943.56V81.8571ZM1943.56 76.7143H1948.71V81.8571H1943.56V76.7143ZM1943.56 71.5714H1948.71V76.7143H1943.56V71.5714ZM1943.56 66.4286H1948.71V71.5714H1943.56V66.4286ZM1964.13 71.5714H1969.28V76.7143H1964.13V71.5714ZM1964.13 76.7143H1969.28V81.8571H1964.13V76.7143ZM1969.28 71.5714H1974.42V76.7143H1969.28V71.5714ZM1969.28 66.4286H1974.42V71.5714H1969.28V66.4286ZM1969.28 76.7143H1974.42V81.8571H1969.28V76.7143ZM1969.28 81.8571H1974.42V87H1969.28V81.8571ZM1974.42 81.8571H1979.56V87H1974.42V81.8571ZM1979.56 81.8571H1984.71V87H1979.56V81.8571ZM1979.56 76.7143H1984.71V81.8571H1979.56V76.7143ZM1979.56 71.5714H1984.71V76.7143H1979.56V71.5714ZM1974.42 71.5714H1979.56V76.7143H1974.42V71.5714ZM1974.42 76.7143H1979.56V81.8571H1974.42V76.7143ZM1974.42 66.4286H1979.56V71.5714H1974.42V66.4286ZM1979.56 61.2857H1984.71V66.4286H1979.56V61.2857ZM1979.56 56.1429H1984.71V61.2857H1979.56V56.1429ZM1979.56 66.4286H1984.71V71.5714H1979.56V66.4286ZM1974.42 61.2857H1979.56V66.4286H1974.42V61.2857ZM1974.42 56.1429H1979.56V61.2857H1974.42V56.1429ZM1974.42 51H1979.56V56.1429H1974.42V51ZM1979.56 51H1984.71V56.1429H1979.56V51ZM1979.56 45.8571H1984.71V51H1979.56V45.8571ZM1974.42 35.5714H1979.56V40.7143H1974.42V35.5714ZM1979.56 35.5714H1984.71V40.7143H1979.56V35.5714ZM1979.56 40.7143H1984.71V45.8571H1979.56V40.7143ZM1974.42 40.7143H1979.56V45.8571H1974.42V40.7143ZM1974.42 45.8571H1979.56V51H1974.42V45.8571ZM2000.16 40.7143H2005.3V45.8571H2000.16V40.7143ZM2005.3 40.7143H2010.45V45.8571H2005.3V40.7143ZM2005.3 35.5714H2010.45V40.7143H2005.3V35.5714ZM2010.45 40.7143H2015.59V45.8571H2010.45V40.7143ZM2010.45 45.8571H2015.59V51H2010.45V45.8571ZM2015.59 45.8571H2020.73V51H2015.59V45.8571ZM2005.3 45.8571H2010.45V51H2005.3V45.8571ZM2000.16 45.8571H2005.3V51H2000.16V45.8571ZM1995.02 45.8571H2000.16V51H1995.02V45.8571ZM1995.02 51H2000.16V56.1429H1995.02V51ZM1989.88 51H1995.02V56.1429H1989.88V51ZM2000.16 51H2005.3V56.1429H2000.16V51ZM1995.02 56.1429H2000.16V61.2857H1995.02V56.1429ZM1995.02 61.2857H2000.16V66.4286H1995.02V61.2857ZM1995.02 66.4286H2000.16V71.5714H1995.02V66.4286ZM2000.16 66.4286H2005.3V71.5714H2000.16V66.4286ZM2005.3 66.4286H2010.45V71.5714H2005.3V66.4286ZM2010.45 66.4286H2015.59V71.5714H2010.45V66.4286ZM2015.59 66.4286H2020.73V71.5714H2015.59V66.4286ZM2020.73 66.4286H2025.88V71.5714H2020.73V66.4286ZM2020.73 61.2857H2025.88V66.4286H2020.73V61.2857ZM2020.73 56.1429H2025.88V61.2857H2020.73V56.1429ZM2020.73 51H2025.88V56.1429H2020.73V51ZM2015.59 51H2020.73V56.1429H2015.59V51ZM2010.45 51H2015.59V56.1429H2010.45V51ZM2015.59 56.1429H2020.73V61.2857H2015.59V56.1429ZM2015.59 61.2857H2020.73V66.4286H2015.59V61.2857ZM2015.59 71.5714H2020.73V76.7143H2015.59V71.5714ZM2020.73 71.5714H2025.88V76.7143H2020.73V71.5714ZM2020.73 76.7143H2025.88V81.8571H2020.73V76.7143ZM2020.73 81.8571H2025.88V87H2020.73V81.8571ZM2015.59 81.8571H2020.73V87H2015.59V81.8571ZM2015.59 76.7143H2020.73V81.8571H2015.59V76.7143ZM2010.45 71.5714H2015.59V76.7143H2010.45V71.5714ZM2005.3 71.5714H2010.45V76.7143H2005.3V71.5714ZM2000.16 71.5714H2005.3V76.7143H2000.16V71.5714ZM1995.02 71.5714H2000.16V76.7143H1995.02V71.5714ZM1995.02 76.7143H2000.16V81.8571H1995.02V76.7143ZM1995.02 81.8571H2000.16V87H1995.02V81.8571ZM1989.88 81.8571H1995.02V87H1989.88V81.8571ZM1989.88 76.7143H1995.02V81.8571H1989.88V76.7143ZM1989.88 71.5714H1995.02V76.7143H1989.88V71.5714ZM1989.88 66.4286H1995.02V71.5714H1989.88V66.4286ZM1989.88 61.2857H1995.02V66.4286H1989.88V61.2857ZM1989.88 56.1429H1995.02V61.2857H1989.88V56.1429ZM2031.03 35.5714H2036.17V40.7143H2031.03V35.5714ZM2036.17 35.5714H2041.32V40.7143H2036.17V35.5714ZM2036.17 40.7143H2041.32V45.8571H2036.17V40.7143ZM2036.17 45.8571H2041.32V51H2036.17V45.8571ZM2036.17 51H2041.32V56.1429H2036.17V51ZM2031.03 51H2036.17V56.1429H2031.03V51ZM2031.03 45.8571H2036.17V51H2031.03V45.8571ZM2031.03 40.7143H2036.17V45.8571H2031.03V40.7143ZM2031.03 56.1429H2036.17V61.2857H2031.03V56.1429ZM2031.03 61.2857H2036.17V66.4286H2031.03V61.2857ZM2031.03 66.4286H2036.17V71.5714H2031.03V66.4286ZM2036.17 61.2857H2041.32V66.4286H2036.17V61.2857ZM2036.17 56.1429H2041.32V61.2857H2036.17V56.1429ZM2036.17 66.4286H2041.32V71.5714H2036.17V66.4286ZM2036.17 71.5714H2041.32V76.7143H2036.17V71.5714ZM2031.03 76.7143H2036.17V81.8571H2031.03V76.7143ZM2031.03 71.5714H2036.17V76.7143H2031.03V71.5714ZM2031.03 81.8571H2036.17V87H2031.03V81.8571ZM2036.17 81.8571H2041.32V87H2036.17V81.8571ZM2036.17 76.7143H2041.32V81.8571H2036.17V76.7143ZM2041.32 81.8571H2046.46V87H2041.32V81.8571ZM2046.46 81.8571H2051.6V87H2046.46V81.8571ZM2051.6 81.8571H2056.75V87H2051.6V81.8571ZM2051.6 76.7143H2056.75V81.8571H2051.6V76.7143ZM2046.46 76.7143H2051.6V81.8571H2046.46V76.7143ZM2041.32 76.7143H2046.46V81.8571H2041.32V76.7143ZM2061.88 35.5714H2067.02V40.7143H2061.88V35.5714ZM2067.02 35.5714H2072.16V40.7143H2067.02V35.5714ZM2067.02 40.7143H2072.16V45.8571H2067.02V40.7143ZM2067.02 45.8571H2072.16V51H2067.02V45.8571ZM2061.88 45.8571H2067.02V51H2061.88V45.8571ZM2061.88 40.7143H2067.02V45.8571H2061.88V40.7143ZM2061.88 51H2067.02V56.1429H2061.88V51ZM2061.88 56.1429H2067.02V61.2857H2061.88V56.1429ZM2067.02 56.1429H2072.16V61.2857H2067.02V56.1429ZM2067.02 51H2072.16V56.1429H2067.02V51ZM2067.02 61.2857H2072.16V66.4286H2067.02V61.2857ZM2072.16 61.2857H2077.3V66.4286H2072.16V61.2857ZM2072.16 56.1429H2077.3V61.2857H2072.16V56.1429ZM2072.16 66.4286H2077.3V71.5714H2072.16V66.4286ZM2077.3 66.4286H2082.45V71.5714H2077.3V66.4286ZM2077.3 61.2857H2082.45V66.4286H2077.3V61.2857ZM2082.45 61.2857H2087.59V66.4286H2082.45V61.2857ZM2082.45 66.4286H2087.59V71.5714H2082.45V66.4286ZM2087.59 66.4286H2092.73V71.5714H2087.59V66.4286ZM2087.59 61.2857H2092.73V66.4286H2087.59V61.2857ZM2087.59 56.1429H2092.73V61.2857H2087.59V56.1429ZM2092.73 56.1429H2097.88V61.2857H2092.73V56.1429ZM2092.73 61.2857H2097.88V66.4286H2092.73V61.2857ZM2092.73 51H2097.88V56.1429H2092.73V51ZM2092.73 45.8571H2097.88V51H2092.73V45.8571ZM2092.73 40.7143H2097.88V45.8571H2092.73V40.7143ZM2092.73 35.5714H2097.88V40.7143H2092.73V35.5714ZM2097.88 35.5714H2103.02V40.7143H2097.88V35.5714ZM2097.88 40.7143H2103.02V45.8571H2097.88V40.7143ZM2097.88 45.8571H2103.02V51H2097.88V45.8571ZM2097.88 51H2103.02V56.1429H2097.88V51ZM2097.88 56.1429H2103.02V61.2857H2097.88V56.1429ZM2077.3 71.5714H2082.45V76.7143H2077.3V71.5714ZM2077.3 76.7143H2082.45V81.8571H2077.3V76.7143ZM2077.3 81.8571H2082.45V87H2077.3V81.8571ZM2082.45 81.8571H2087.59V87H2082.45V81.8571ZM2082.45 76.7143H2087.59V81.8571H2082.45V76.7143ZM2082.45 71.5714H2087.59V76.7143H2082.45V71.5714ZM2108.19 35.5714H2113.33V40.7143H2108.19V35.5714ZM2113.33 35.5714H2118.47V40.7143H2113.33V35.5714ZM2118.47 35.5714H2123.62V40.7143H2118.47V35.5714ZM2123.62 35.5714H2128.76V40.7143H2123.62V35.5714ZM2128.76 35.5714H2133.9V40.7143H2128.76V35.5714ZM2133.9 35.5714H2139.04V40.7143H2133.9V35.5714ZM2139.04 35.5714H2144.19V40.7143H2139.04V35.5714ZM2144.19 35.5714H2149.33V40.7143H2144.19V35.5714ZM2144.19 40.7143H2149.33V45.8571H2144.19V40.7143ZM2139.04 40.7143H2144.19V45.8571H2139.04V40.7143ZM2133.9 40.7143H2139.04V45.8571H2133.9V40.7143ZM2128.76 40.7143H2133.9V45.8571H2128.76V40.7143ZM2108.19 40.7143H2113.33V45.8571H2108.19V40.7143ZM2113.33 40.7143H2118.47V45.8571H2113.33V40.7143ZM2118.47 40.7143H2123.62V45.8571H2118.47V40.7143ZM2123.62 40.7143H2128.76V45.8571H2123.62V40.7143ZM2139.04 45.8571H2144.19V51H2139.04V45.8571ZM2133.9 45.8571H2139.04V51H2133.9V45.8571ZM2144.19 45.8571H2149.33V51H2144.19V45.8571ZM2133.9 51H2139.04V56.1429H2133.9V51ZM2139.04 51H2144.19V56.1429H2139.04V51ZM2133.9 56.1429H2139.04V61.2857H2133.9V56.1429ZM2128.76 56.1429H2133.9V61.2857H2128.76V56.1429ZM2128.76 61.2857H2133.9V66.4286H2128.76V61.2857ZM2123.62 56.1429H2128.76V61.2857H2123.62V56.1429ZM2128.76 51H2133.9V56.1429H2128.76V51ZM2123.62 61.2857H2128.76V66.4286H2123.62V61.2857ZM2118.47 61.2857H2123.62V66.4286H2118.47V61.2857ZM2118.47 66.4286H2123.62V71.5714H2118.47V66.4286ZM2123.62 66.4286H2128.76V71.5714H2123.62V66.4286ZM2113.33 66.4286H2118.47V71.5714H2113.33V66.4286ZM2113.33 71.5714H2118.47V76.7143H2113.33V71.5714ZM2108.19 71.5714H2113.33V76.7143H2108.19V71.5714ZM2118.47 71.5714H2123.62V76.7143H2118.47V71.5714ZM2118.47 76.7143H2123.62V81.8571H2118.47V76.7143ZM2113.33 76.7143H2118.47V81.8571H2113.33V76.7143ZM2113.33 81.8571H2118.47V87H2113.33V81.8571ZM2108.19 81.8571H2113.33V87H2108.19V81.8571ZM2108.19 76.7143H2113.33V81.8571H2108.19V76.7143ZM2118.47 81.8571H2123.62V87H2118.47V81.8571ZM2123.62 81.8571H2128.76V87H2123.62V81.8571ZM2128.76 81.8571H2133.9V87H2128.76V81.8571ZM2133.9 81.8571H2139.04V87H2133.9V81.8571ZM2139.04 81.8571H2144.19V87H2139.04V81.8571ZM2139.04 76.7143H2144.19V81.8571H2139.04V76.7143ZM2144.19 81.8571H2149.33V87H2144.19V81.8571ZM2144.19 76.7143H2149.33V81.8571H2144.19V76.7143ZM2133.9 76.7143H2139.04V81.8571H2133.9V76.7143ZM2123.62 76.7143H2128.76V81.8571H2123.62V76.7143ZM2128.76 76.7143H2133.9V81.8571H2128.76V76.7143ZM2154.5 35.5714H2159.64V40.7143H2154.5V35.5714ZM2159.64 35.5714H2164.79V40.7143H2159.64V35.5714ZM2159.64 40.7143H2164.79V45.8571H2159.64V40.7143ZM2159.64 45.8571H2164.79V51H2159.64V45.8571ZM2159.64 51H2164.79V56.1429H2159.64V51ZM2154.5 51H2159.64V56.1429H2154.5V51ZM2154.5 45.8571H2159.64V51H2154.5V45.8571ZM2154.5 40.7143H2159.64V45.8571H2154.5V40.7143ZM2154.5 56.1429H2159.64V61.2857H2154.5V56.1429ZM2154.5 61.2857H2159.64V66.4286H2154.5V61.2857ZM2154.5 66.4286H2159.64V71.5714H2154.5V66.4286ZM2159.64 61.2857H2164.79V66.4286H2159.64V61.2857ZM2159.64 56.1429H2164.79V61.2857H2159.64V56.1429ZM2159.64 66.4286H2164.79V71.5714H2159.64V66.4286ZM2159.64 71.5714H2164.79V76.7143H2159.64V71.5714ZM2154.5 76.7143H2159.64V81.8571H2154.5V76.7143ZM2154.5 71.5714H2159.64V76.7143H2154.5V71.5714ZM2154.5 81.8571H2159.64V87H2154.5V81.8571ZM2159.64 81.8571H2164.79V87H2159.64V81.8571ZM2159.64 76.7143H2164.79V81.8571H2159.64V76.7143ZM2164.79 81.8571H2169.93V87H2164.79V81.8571ZM2169.93 81.8571H2175.07V87H2169.93V81.8571ZM2175.07 81.8571H2180.21V87H2175.07V81.8571ZM2175.07 76.7143H2180.21V81.8571H2175.07V76.7143ZM2169.93 76.7143H2175.07V81.8571H2169.93V76.7143ZM2164.79 76.7143H2169.93V81.8571H2164.79V76.7143ZM2164.79 35.5714H2169.93V40.7143H2164.79V35.5714ZM2169.93 35.5714H2175.07V40.7143H2169.93V35.5714ZM2175.07 35.5714H2180.21V40.7143H2175.07V35.5714ZM2180.21 35.5714H2185.36V40.7143H2180.21V35.5714ZM2175.07 40.7143H2180.21V45.8571H2175.07V40.7143ZM2169.93 40.7143H2175.07V45.8571H2169.93V40.7143ZM2164.79 40.7143H2169.93V45.8571H2164.79V40.7143ZM2164.79 61.2857H2169.93V66.4286H2164.79V61.2857ZM2169.93 56.1429H2175.07V61.2857H2169.93V56.1429ZM2164.79 56.1429H2169.93V61.2857H2164.79V56.1429ZM2169.93 61.2857H2175.07V66.4286H2169.93V61.2857ZM2180.21 40.7143H2185.36V45.8571H2180.21V40.7143ZM2180.21 76.7143H2185.36V81.8571H2180.21V76.7143ZM2180.21 81.8571H2185.36V87H2180.21V81.8571ZM2175.07 56.1429H2180.21V61.2857H2175.07V56.1429ZM2175.07 61.2857H2180.21V66.4286H2175.07V61.2857ZM2195.64 61.2857H2200.79V66.4286H2195.64V61.2857ZM2200.79 61.2857H2205.93V66.4286H2200.79V61.2857ZM2205.93 61.2857H2211.07V66.4286H2205.93V61.2857ZM2211.07 61.2857H2216.21V66.4286H2211.07V61.2857ZM2200.79 66.4286H2205.93V71.5714H2200.79V66.4286ZM2195.64 66.4286H2200.79V71.5714H2195.64V66.4286ZM2205.93 66.4286H2211.07V71.5714H2205.93V66.4286ZM2211.07 66.4286H2216.21V71.5714H2211.07V66.4286ZM2216.21 71.5714H2221.36V76.7143H2216.21V71.5714ZM2221.36 66.4286H2226.5V71.5714H2221.36V66.4286ZM2216.21 66.4286H2221.36V71.5714H2216.21V66.4286ZM2221.36 71.5714H2226.5V76.7143H2221.36V71.5714ZM2216.21 76.7143H2221.36V81.8571H2216.21V76.7143ZM2221.36 76.7143H2226.5V81.8571H2221.36V76.7143ZM2221.36 81.8571H2226.5V87H2221.36V81.8571ZM2216.21 81.8571H2221.36V87H2216.21V81.8571ZM2195.64 81.8571H2200.79V87H2195.64V81.8571ZM2190.5 81.8571H2195.64V87H2190.5V81.8571ZM2190.5 76.7143H2195.64V81.8571H2190.5V76.7143ZM2195.64 76.7143H2200.79V81.8571H2195.64V76.7143ZM2195.64 71.5714H2200.79V76.7143H2195.64V71.5714ZM2190.5 71.5714H2195.64V76.7143H2190.5V71.5714ZM2190.5 66.4286H2195.64V71.5714H2190.5V66.4286ZM2190.5 61.2857H2195.64V66.4286H2190.5V61.2857ZM2190.5 56.1429H2195.64V61.2857H2190.5V56.1429ZM2195.64 56.1429H2200.79V61.2857H2195.64V56.1429ZM2190.5 35.5714H2195.64V40.7143H2190.5V35.5714ZM2195.64 35.5714H2200.79V40.7143H2195.64V35.5714ZM2200.79 35.5714H2205.93V40.7143H2200.79V35.5714ZM2205.93 35.5714H2211.07V40.7143H2205.93V35.5714ZM2211.07 35.5714H2216.21V40.7143H2211.07V35.5714ZM2216.21 35.5714H2221.36V40.7143H2216.21V35.5714ZM2216.21 40.7143H2221.36V45.8571H2216.21V40.7143ZM2211.07 40.7143H2216.21V45.8571H2211.07V40.7143ZM2205.93 40.7143H2211.07V45.8571H2205.93V40.7143ZM2200.79 40.7143H2205.93V45.8571H2200.79V40.7143ZM2195.64 40.7143H2200.79V45.8571H2195.64V40.7143ZM2190.5 40.7143H2195.64V45.8571H2190.5V40.7143ZM2190.5 45.8571H2195.64V51H2190.5V45.8571ZM2190.5 51H2195.64V56.1429H2190.5V51ZM2195.64 51H2200.79V56.1429H2195.64V51ZM2195.64 45.8571H2200.79V51H2195.64V45.8571ZM2216.21 45.8571H2221.36V51H2216.21V45.8571ZM2221.36 45.8571H2226.5V51H2221.36V45.8571ZM2221.36 40.7143H2226.5V45.8571H2221.36V40.7143ZM2221.36 51H2226.5V56.1429H2221.36V51ZM2216.21 51H2221.36V56.1429H2216.21V51ZM2216.21 56.1429H2221.36V61.2857H2216.21V56.1429ZM2221.36 56.1429H2226.5V61.2857H2221.36V56.1429ZM2216.21 61.2857H2221.36V66.4286H2216.21V61.2857Z" fill="#E94041"/>
</g>
<defs>
<filter id="filter0_d_83_102" x="0" y="0" width="3765.09" height="129.82" filterUnits="userSpaceOnUse" color-interpolation-filters="sRGB">
<feFlood flood-opacity="0" result="BackgroundImageFix"/>
<feColorMatrix in="SourceAlpha" type="matrix" values="0 0 0 0 0 0 0 0 0 0 0 0 0 0 0 0 0 0 127 0" result="hardAlpha"/>
<feOffset dy="4"/>
<feGaussianBlur stdDeviation="2"/>
<feComposite in2="hardAlpha" operator="out"/>
<feColorMatrix type="matrix" values="0 0 0 0 0 0 0 0 0 0 0 0 0 0 0 0 0 0 0.25 0"/>
<feBlend mode="normal" in2="BackgroundImageFix" result="effect1_dropShadow_83_102"/>
<feBlend mode="normal" in="SourceGraphic" in2="effect1_dropShadow_83_102" result="shape"/>
</filter>
</defs>
</svg>
