<svg width="3758" height="122" viewBox="0 0 3758 122" fill="none" xmlns="http://www.w3.org/2000/svg">
<path fill-rule="evenodd" clip-rule="evenodd" d="M1398.97 0.0488291C1398.73 0.103355 1398.22 0.197614 1397.84 0.258186C1395.01 0.70983 1391.72 2.02265 1389.52 3.58036C1388.62 4.22009 1386.79 6.04858 1386.15 6.95338C1384.42 9.38771 1383.27 12.4648 1382.73 16.0712C1382.36 18.5233 1382.24 19.8137 1382.24 21.257C1382.24 24.0603 1382.98 30.5065 1383.86 35.331C1384.07 36.48 1384.28 37.889 1384.34 38.4621C1384.79 43.034 1385.11 45.1503 1386.12 50.2473C1386.38 51.5835 1386.79 53.7456 1387.03 55.052C1387.62 58.1999 1388.34 61.5629 1388.91 63.7775L1389.38 65.5792L1384.08 65.5798C1381.16 65.5801 1378.31 65.6111 1377.74 65.6487L1376.71 65.7171L1375.89 67.0248L1375.08 68.3325L1375.25 68.4059C1375.35 68.4463 1378.76 68.4829 1382.83 68.4874L1390.22 68.4953L1390.96 70.7015C1392.42 75.0227 1393.06 76.3694 1394.75 78.6277C1395.69 79.8863 1398.8 83.0658 1400.63 84.6278L1401.75 85.5879L1402.83 87.0555C1404.87 89.8122 1405.7 91.2011 1406.19 92.723C1406.52 93.7319 1406.86 95.7569 1407.01 97.6467C1407.27 100.903 1407.75 104.013 1408.37 106.389C1409.3 109.955 1411.13 113.587 1413.1 115.763C1415.55 118.474 1417.78 119.886 1421.65 121.18C1423.49 121.795 1424.2 121.865 1427.88 121.8L1431.03 121.744L1431.68 121.587C1435.31 120.707 1438.97 119.162 1441.74 117.348L1443.02 116.511L1444.38 115.15C1445.7 113.827 1447.09 112.155 1448.44 110.279C1450.73 107.102 1453.08 102.313 1454.14 98.6725C1454.49 97.4735 1455.1 94.7966 1455.32 93.4757C1455.8 90.6749 1455.73 85.825 1455.16 82.4228C1454.14 76.3884 1453.04 72.9266 1450.61 68.1375C1448.56 64.104 1446.25 60.7719 1443.09 57.2999C1441.09 55.1024 1437.77 52.1472 1435.91 50.8967L1435.25 50.4531L1434.87 50.4852L1434.49 50.5172L1434.31 51.0571C1434.21 51.354 1434.02 52.2616 1433.88 53.0739L1433.63 54.5508L1433.81 54.9236C1433.91 55.1285 1434.39 55.6508 1434.89 56.0845C1438.77 59.4918 1441.19 62.1948 1443.66 65.9032C1447.11 71.0589 1449.38 76.7625 1450.38 82.713L1450.56 83.7724L1450.6 87.3099L1450.65 90.8474L1450.42 92.4217C1449.9 96.0087 1448.59 99.9122 1446.88 102.991C1444.43 107.399 1440.61 111.736 1437.54 113.611C1435.17 115.055 1432.4 116.062 1429.6 116.498L1428.44 116.678L1426.39 116.658L1424.34 116.637L1423.26 116.417C1419.89 115.728 1417.27 114.17 1415.38 111.737C1414.1 110.087 1413.7 109.215 1412.53 105.583C1411.43 102.132 1411.32 101.658 1411 99.1044L1410.87 98.0246L1411.1 96.8186C1411.45 95.0107 1411.91 93.5897 1412.74 91.7324C1413.92 89.1078 1414.87 87.9301 1416.98 86.5109C1420.54 84.1096 1421.94 82.9036 1423.3 81.0788C1424.23 79.8429 1424.61 79.1984 1425.61 77.1862C1428.93 70.5257 1430.65 65.0393 1432.28 55.9158C1432.52 54.55 1432.86 52.6794 1433.04 51.7589C1433.76 47.903 1434.99 39.9123 1435.62 34.8614C1436.37 28.8187 1436.49 27.7101 1436.6 25.5219C1436.65 24.4826 1436.72 23.5109 1436.75 23.3624C1436.92 22.5937 1437.18 19.1046 1437.18 17.64C1437.18 14.3124 1436.5 10.9109 1435.35 8.50472C1434.37 6.46201 1432.72 4.41929 1431.25 3.42304C1429.03 1.9204 1426.2 1.12293 1422.81 1.03828L1421.17 0.997358L1420.67 1.2147C1420.4 1.33434 1420.18 1.48474 1420.18 1.5492C1420.18 1.61355 1419.87 1.42665 1419.49 1.13373C1419.11 0.840907 1418.51 0.493347 1418.17 0.361406L1417.54 0.121494L1416.51 0.108105L1415.49 0.0946089L1414.66 0.510191C1413.65 1.01118 1412.75 1.90464 1412.32 2.81754L1412.03 3.44172V4.79395V6.14608L1412.38 6.85502C1412.8 7.71685 1413.68 8.57986 1414.52 8.96338C1416.13 9.70017 1418.23 9.46275 1419.59 8.38919C1420.15 7.94607 1420.79 6.94561 1421.07 6.0543C1421.2 5.62695 1421.32 5.25769 1421.34 5.23372C1421.35 5.20986 1421.47 5.31492 1421.59 5.46726C1421.81 5.75684 1421.83 5.76192 1423.58 5.98391C1427.08 6.42637 1428.26 6.90145 1429.78 8.46261C1430.9 9.60732 1431.67 11.0558 1432.19 12.977L1432.41 13.807L1432.5 17.37C1432.55 19.5444 1432.55 21.1856 1432.49 21.5809C1432.43 21.9372 1432.39 22.7632 1432.38 23.4164C1432.38 24.0697 1432.34 25.0171 1432.28 25.5219C1432.23 26.0266 1432.13 26.9984 1432.06 27.6813C1431.92 29.2118 1431.76 30.717 1431.63 31.7842C1431.58 32.2296 1431.48 33.1042 1431.41 33.7277C1431.07 36.9255 1430.55 41.148 1430.33 42.5274C1430.28 42.8837 1430.13 43.8554 1430 44.6868C1429.72 46.5463 1429.33 48.7055 1429.04 50.0466C1428.92 50.6023 1428.62 52.1746 1428.39 53.5404C1427.23 60.2811 1425.96 65.1904 1424.29 69.4121C1422.56 73.7615 1419.33 78.9541 1417.62 80.1352C1416.29 81.0542 1415.21 81.7261 1414.59 82.0177C1413.79 82.3955 1411.67 82.8467 1410.68 82.8494C1408.74 82.8547 1405.62 81.737 1403.35 80.2186C1400.76 78.4925 1398.09 75.432 1396.87 72.7971C1396.29 71.5433 1395.3 68.7283 1395.4 68.6287C1395.44 68.5845 1401.75 68.5206 1409.42 68.4865C1417.09 68.4524 1423.37 68.416 1423.38 68.4055C1423.43 68.3209 1424.28 66.0286 1424.31 65.9032L1424.34 65.7412L1409.37 65.6872C1401.13 65.6575 1394.37 65.6059 1394.34 65.5727C1394.21 65.4467 1392.84 60.3476 1392.28 57.9133C1391.6 54.9796 1391.24 53.16 1390.93 51.1111C1390.58 48.8064 1389.1 38.5154 1388.81 36.373C1388.67 35.3041 1388.43 33.6521 1388.28 32.702C1387.86 30.0916 1387.51 27.5987 1387.29 25.7378L1387.09 24.0643L1387.09 20.6092L1387.09 17.1541L1387.35 15.9664C1388.07 12.5575 1389.45 9.87962 1391.42 8.03051C1393.07 6.47809 1395.35 5.36977 1397.62 5.01281C1399.34 4.74127 1399.59 4.57121 1399.71 3.56999C1399.8 2.79389 1400.02 2.2685 1400.58 1.55222C1401.14 0.833889 1401.32 0.501877 1401.23 0.365293C1401.08 0.107889 1399.6 -0.0975801 1398.97 0.0488291ZM1403.72 0.162091C1402.49 0.408806 1401.27 1.2146 1400.64 2.19876C1400.27 2.78461 1399.78 4.21512 1399.78 4.73004C1399.78 5.34083 1400.23 6.73949 1400.64 7.36292C1401.32 8.42244 1402.44 9.12685 1403.76 9.33232L1404.53 9.45076L1405.3 9.33059C1406.27 9.17965 1407.39 8.61193 1407.99 7.95698C1408.23 7.69212 1408.59 7.15086 1408.77 6.75428L1409.12 6.03303L1409.11 4.73738L1409.11 3.44172L1408.8 2.79389C1408.35 1.8662 1407.43 0.990771 1406.4 0.500797L1405.56 0.101735L1404.91 0.0777654C1404.55 0.0645929 1404.01 0.102491 1403.72 0.162091ZM1421.06 3.33375C1421.07 3.53825 1421.25 3.88268 1421.25 3.71165C1421.26 3.62257 1421.21 3.47681 1421.15 3.38774C1421.1 3.29866 1421.05 3.27437 1421.06 3.33375ZM1338.19 31.2474C1337.71 31.3937 1337.27 31.883 1337.09 32.4817C1336.93 33.0273 1336.62 34.599 1335.65 39.8281C1335.36 41.3721 1334.8 44.3602 1334.4 46.4683C1334.01 48.5765 1333.44 51.6132 1333.15 53.2165C1332.85 54.8199 1332.56 56.3261 1332.51 56.5636C1332.45 56.8012 1332.13 58.4531 1331.8 60.2347C1331.09 64.0645 1331.05 64.2209 1330.66 64.551L1330.36 64.8057L1329.68 64.8653C1329.31 64.8981 1325.96 64.978 1322.25 65.0428C1312.84 65.2074 1309.32 65.3224 1308.86 65.4802C1307.89 65.8193 1307.6 66.3086 1306.98 68.6564C1306.27 71.3243 1305.65 73.4677 1305.59 73.5374C1305.55 73.5746 1305.49 73.582 1305.47 73.5536C1305.4 73.492 1304.95 71.1311 1304.64 69.2503C1304.52 68.508 1304.25 67.0018 1304.05 65.9032C1303.84 64.8046 1303.53 62.9825 1303.36 61.8542C1302.76 57.8534 1301.71 51.7881 1301.5 51.1111C1301.09 49.7796 1299.4 49.5071 1298.54 50.6344C1298.24 51.0218 1297.28 53.3816 1296.16 56.4557C1295.11 59.3338 1293.49 63.6051 1293.18 64.2836C1292.88 64.9527 1292.56 65.3288 1292.17 65.4779C1292.01 65.5383 1287.92 65.5792 1282.04 65.5792C1276.62 65.5792 1270.8 65.6113 1269.09 65.6506L0 65.722V67.1622V68.6024L1278.28 68.5964C1285.04 68.5932 1291.37 68.5525 1292.35 68.5059L1294.13 68.4215L1294.54 68.2252C1294.77 68.1172 1295.07 67.8542 1295.21 67.6409C1295.51 67.1844 1296.42 64.9886 1297.74 61.5303C1298.86 58.6006 1299.09 58.0719 1299.26 57.9653C1299.53 57.7998 1299.58 58.0372 1300.5 63.6358C1300.77 65.2688 1301.33 68.6213 1301.75 71.0858C1302.17 73.5502 1302.63 76.344 1302.77 77.2941C1303.18 79.9934 1303.46 81.4478 1303.62 81.7589C1303.82 82.1417 1304.21 82.4898 1304.59 82.6371L1304.91 82.7578L1305.43 82.6341L1305.95 82.5102L1306.28 82.1306C1306.46 81.9218 1306.66 81.6227 1306.72 81.466C1306.92 80.9723 1307.89 77.5716 1308.27 76.0525C1308.82 73.8491 1310.14 69.2755 1310.34 68.8893C1310.6 68.3622 1310.92 68.0708 1311.28 68.0147C1311.47 67.9865 1313.66 67.9368 1316.15 67.9043C1318.65 67.8718 1323.31 67.7919 1326.52 67.7267L1332.35 67.6082L1332.81 67.3905C1333.33 67.1492 1333.73 66.6299 1333.9 65.9571C1334.02 65.5233 1334.7 62.0139 1334.83 61.2064C1334.93 60.58 1335.79 56.0163 1336.39 52.9466C1336.68 51.4917 1337.07 49.3903 1337.27 48.2768C1337.47 47.1634 1337.68 46.2524 1337.72 46.2524C1337.76 46.2524 1337.8 46.6046 1337.8 47.0352C1337.8 47.4658 1337.85 48.5468 1337.91 49.4375C1337.97 50.3283 1338.06 52.1017 1338.13 53.3785C1338.19 54.6552 1338.28 56.5258 1338.34 57.5354C1338.39 58.5449 1338.49 60.6827 1338.56 62.2861C1338.62 63.8895 1338.75 66.4403 1338.83 67.9546C1338.92 69.4689 1339.04 72.0197 1339.09 73.6231C1339.15 75.2265 1339.25 77.4129 1339.31 78.4818C1339.56 82.9352 1339.65 84.6717 1339.75 87.3355C1339.8 88.8795 1339.9 90.993 1339.96 92.0322C1340.1 94.6298 1340.26 97.9981 1340.4 101.588C1340.57 106.017 1340.92 111.649 1341.05 111.985C1341.21 112.405 1341.67 112.847 1342.08 112.985L1342.44 113.103L1342.85 112.974C1343.32 112.824 1343.69 112.51 1343.91 112.088C1344.07 111.788 1344.4 110.16 1344.81 107.688C1345.38 104.203 1346.3 98.4712 1346.77 95.4873C1346.89 94.6856 1347.38 91.6975 1347.85 88.8471C1348.32 85.9966 1348.75 83.3486 1348.81 82.9626C1348.86 82.5766 1349.16 80.8275 1349.46 79.0757C1349.76 77.3238 1350.22 74.5544 1350.49 72.9213C1351.01 69.7438 1351.15 69.2129 1351.58 68.8077L1351.85 68.5485L1359.16 68.4876C1363.18 68.4541 1366.47 68.4176 1366.48 68.4066C1366.67 68.1581 1368.05 65.9869 1368.1 65.8622L1368.16 65.6872L1366.13 65.6725C1360.51 65.632 1349.75 65.7077 1349.53 65.7891C1349.05 65.9716 1348.61 66.446 1348.45 66.9591C1348.28 67.5071 1348.26 67.6502 1347.35 73.1912C1347.03 75.2103 1346.64 77.5911 1346.49 78.4818C1346.35 79.3726 1345.89 82.1906 1345.48 84.7442C1343.71 95.6304 1343.47 97.0899 1343.43 97.0458C1343.4 97.0203 1343.27 94.9465 1343.13 92.4373C1342.89 88.1001 1342.81 86.4063 1342.55 80.8032C1342.2 73.2449 1341.99 68.9415 1341.79 65.0934C1341.59 61.3416 1341.49 59.3606 1341.32 55.8078C1341.22 53.9075 1341.1 51.6725 1341.04 50.8412C1340.99 50.0098 1340.91 48.6008 1340.88 47.71C1340.84 46.8192 1340.77 45.3859 1340.71 44.5248C1340.66 43.6638 1340.54 41.5028 1340.44 39.7227C1340.09 32.7049 1340.06 32.4163 1339.78 31.8662C1339.51 31.3342 1338.81 31.0606 1338.19 31.2474ZM1408.14 42.0408C1404.65 42.2161 1401.94 42.7259 1396.65 44.2056C1393.89 44.9749 1391.75 45.9648 1391.61 46.5391C1391.46 47.12 1391.93 49.6885 1392.28 50.2192L1392.44 50.4633H1392.83C1393.06 50.4633 1393.85 50.1971 1394.8 49.8007C1398.12 48.408 1398.8 48.159 1400.59 47.7065C1404.86 46.6223 1409.19 46.2513 1413.17 46.6308C1417.89 47.0823 1421.34 47.999 1425.76 49.9831C1426.57 50.3452 1427.22 50.5712 1427.46 50.5712H1427.85L1428.05 50.239C1428.3 49.8363 1428.74 47.8347 1428.75 47.0286L1428.77 46.4453L1428.4 46.1375C1427.97 45.7825 1425.94 44.9197 1423.91 44.233C1418.8 42.5052 1413.52 41.7712 1408.14 42.0408ZM1383.74 50.6697C1382.41 51.2903 1376.84 56.4122 1374.34 59.3169C1367.1 67.702 1363.38 76.4926 1363.1 85.8379L1363.05 87.4716L1363.22 87.8053C1363.54 88.4218 1363.86 88.4751 1366.01 88.2649C1367.21 88.1464 1367.56 88.0219 1367.67 87.6596C1367.71 87.5407 1367.73 86.9819 1367.72 86.4177C1367.7 85.4062 1367.93 82.7676 1368.15 81.505C1368.52 79.4094 1369.39 76.4354 1370.25 74.3088C1371.69 70.7657 1374.23 66.6702 1377.19 63.0959C1378.54 61.4655 1381.73 58.231 1383.65 56.5497C1384.5 55.806 1385.23 55.0689 1385.31 54.8939C1385.45 54.556 1385.43 54.4108 1385.07 52.4067C1384.86 51.2051 1384.56 50.4608 1384.3 50.4656C1384.23 50.4669 1383.98 50.5588 1383.74 50.6697ZM1431.21 66.1461C1430.8 67.1292 1430.41 68.2872 1430.48 68.3556C1430.52 68.3952 1433.5 68.4164 1437.11 68.4026L1443.67 68.3777L1443.65 68.2277C1443.65 68.1452 1443.28 67.5708 1442.84 66.9512L1442.05 65.8248L1441.09 65.756C1440.56 65.7182 1438.16 65.6872 1435.76 65.6872H1431.4L1431.21 66.1461ZM1451.21 65.8696L1451.08 65.9608L1451.69 67.1467L1452.31 68.3325L1457.27 68.3665C1460 68.3853 1464.68 68.3674 1467.66 68.3267L3757.09 68.2528V67.078V65.9032L1468.26 65.9031C1465.6 65.9029 1460.7 65.8749 1457.38 65.8406C1454.05 65.8064 1451.28 65.8194 1451.21 65.8696ZM1365.71 90.4174C1364.76 90.5072 1363.37 90.8891 1362.37 91.3302C1360.91 91.9779 1359.24 93.3289 1358.15 94.7391C1356.77 96.5244 1355.94 99.0395 1355.94 101.442V102.515L1356.21 103.588C1356.81 106.039 1357.77 107.72 1359.46 109.3C1361.4 111.117 1363.96 112.172 1366.74 112.301L1367.99 112.359L1368.89 112.177C1371.65 111.617 1373.54 110.623 1375.27 108.807C1376.6 107.418 1377.42 105.948 1377.91 104.074L1378.18 103.022V101.272V99.523L1377.96 98.6658C1376.97 94.8798 1374.35 92.0801 1370.69 90.8923C1368.96 90.3294 1367.8 90.2194 1365.71 90.4174Z" fill="#E94041"/>
<rect x="-2.5" y="2.5" width="804" height="87" rx="22.5" transform="matrix(-1 0 0 1 2277 15)" fill="#E9E6D7" stroke="#3B5A6D" stroke-width="5"/>
<path d="M1558.86 45.8571H1564V51H1558.86V45.8571ZM1553.71 45.8571H1558.86V51H1553.71V45.8571ZM1553.71 40.7143H1558.86V45.8571H1553.71V40.7143ZM1558.86 40.7143H1564V45.8571H1558.86V40.7143ZM1553.71 35.5714H1558.86V40.7143H1553.71V35.5714ZM1548.57 35.5714H1553.71V40.7143H1548.57V35.5714ZM1548.57 40.7143H1553.71V45.8571H1548.57V40.7143ZM1543.43 40.7143H1548.57V45.8571H1543.43V40.7143ZM1538.29 40.7143H1543.43V45.8571H1538.29V40.7143ZM1538.29 35.5714H1543.43V40.7143H1538.29V35.5714ZM1533.14 35.5714H1538.29V40.7143H1533.14V35.5714ZM1543.43 35.5714H1548.57V40.7143H1543.43V35.5714ZM1533.14 40.7143H1538.29V45.8571H1533.14V40.7143ZM1528 40.7143H1533.14V45.8571H1528V40.7143ZM1528 45.8571H1533.14V51H1528V45.8571ZM1533.14 45.8571H1538.29V51H1533.14V45.8571ZM1533.14 51H1538.29V56.1429H1533.14V51ZM1533.14 56.1429H1538.29V61.2857H1533.14V56.1429ZM1528 56.1429H1533.14V61.2857H1528V56.1429ZM1528 51H1533.14V56.1429H1528V51ZM1533.14 61.2857H1538.29V66.4286H1533.14V61.2857ZM1538.29 61.2857H1543.43V66.4286H1538.29V61.2857ZM1538.29 56.1429H1543.43V61.2857H1538.29V56.1429ZM1543.43 56.1429H1548.57V61.2857H1543.43V56.1429ZM1548.57 56.1429H1553.71V61.2857H1548.57V56.1429ZM1553.71 56.1429H1558.86V61.2857H1553.71V56.1429ZM1553.71 61.2857H1558.86V66.4286H1553.71V61.2857ZM1548.57 61.2857H1553.71V66.4286H1548.57V61.2857ZM1543.43 61.2857H1548.57V66.4286H1543.43V61.2857ZM1558.86 61.2857H1564V66.4286H1558.86V61.2857ZM1558.86 66.4286H1564V71.5714H1558.86V66.4286ZM1553.71 66.4286H1558.86V71.5714H1553.71V66.4286ZM1548.57 76.7143H1553.71V81.8571H1548.57V76.7143ZM1553.71 76.7143H1558.86V81.8571H1553.71V76.7143ZM1553.71 71.5714H1558.86V76.7143H1553.71V71.5714ZM1558.86 71.5714H1564V76.7143H1558.86V71.5714ZM1558.86 76.7143H1564V81.8571H1558.86V76.7143ZM1553.71 81.8571H1558.86V87H1553.71V81.8571ZM1548.57 81.8571H1553.71V87H1548.57V81.8571ZM1543.43 81.8571H1548.57V87H1543.43V81.8571ZM1538.29 81.8571H1543.43V87H1538.29V81.8571ZM1533.14 81.8571H1538.29V87H1533.14V81.8571ZM1533.14 76.7143H1538.29V81.8571H1533.14V76.7143ZM1538.29 76.7143H1543.43V81.8571H1538.29V76.7143ZM1543.43 76.7143H1548.57V81.8571H1543.43V76.7143ZM1528 76.7143H1533.14V81.8571H1528V76.7143ZM1528 71.5714H1533.14V76.7143H1528V71.5714ZM1533.14 71.5714H1538.29V76.7143H1533.14V71.5714ZM1569.16 35.5714H1574.3V40.7143H1569.16V35.5714ZM1574.3 35.5714H1579.44V40.7143H1574.3V35.5714ZM1574.3 40.7143H1579.44V45.8571H1574.3V40.7143ZM1574.3 45.8571H1579.44V51H1574.3V45.8571ZM1569.16 45.8571H1574.3V51H1569.16V45.8571ZM1569.16 40.7143H1574.3V45.8571H1569.16V40.7143ZM1569.16 51H1574.3V56.1429H1569.16V51ZM1569.16 56.1429H1574.3V61.2857H1569.16V56.1429ZM1574.3 56.1429H1579.44V61.2857H1574.3V56.1429ZM1574.3 51H1579.44V56.1429H1574.3V51ZM1574.3 61.2857H1579.44V66.4286H1574.3V61.2857ZM1579.44 61.2857H1584.58V66.4286H1579.44V61.2857ZM1579.44 56.1429H1584.58V61.2857H1579.44V56.1429ZM1579.44 66.4286H1584.58V71.5714H1579.44V66.4286ZM1584.58 66.4286H1589.73V71.5714H1584.58V66.4286ZM1584.58 61.2857H1589.73V66.4286H1584.58V61.2857ZM1589.73 61.2857H1594.87V66.4286H1589.73V61.2857ZM1589.73 66.4286H1594.87V71.5714H1589.73V66.4286ZM1594.87 66.4286H1600.01V71.5714H1594.87V66.4286ZM1594.87 61.2857H1600.01V66.4286H1594.87V61.2857ZM1594.87 56.1429H1600.01V61.2857H1594.87V56.1429ZM1600.01 56.1429H1605.16V61.2857H1600.01V56.1429ZM1600.01 61.2857H1605.16V66.4286H1600.01V61.2857ZM1600.01 51H1605.16V56.1429H1600.01V51ZM1600.01 45.8571H1605.16V51H1600.01V45.8571ZM1600.01 40.7143H1605.16V45.8571H1600.01V40.7143ZM1600.01 35.5714H1605.16V40.7143H1600.01V35.5714ZM1605.16 35.5714H1610.3V40.7143H1605.16V35.5714ZM1605.16 40.7143H1610.3V45.8571H1605.16V40.7143ZM1605.16 45.8571H1610.3V51H1605.16V45.8571ZM1605.16 51H1610.3V56.1429H1605.16V51ZM1605.16 56.1429H1610.3V61.2857H1605.16V56.1429ZM1584.58 71.5714H1589.73V76.7143H1584.58V71.5714ZM1584.58 76.7143H1589.73V81.8571H1584.58V76.7143ZM1584.58 81.8571H1589.73V87H1584.58V81.8571ZM1589.73 81.8571H1594.87V87H1589.73V81.8571ZM1589.73 76.7143H1594.87V81.8571H1589.73V76.7143ZM1589.73 71.5714H1594.87V76.7143H1589.73V71.5714ZM1615.47 81.8571H1620.61V87H1615.47V81.8571ZM1615.47 76.7143H1620.61V81.8571H1615.47V76.7143ZM1615.47 71.5714H1620.61V76.7143H1615.47V71.5714ZM1615.47 66.4286H1620.61V71.5714H1615.47V66.4286ZM1615.47 61.2857H1620.61V66.4286H1615.47V61.2857ZM1615.47 56.1429H1620.61V61.2857H1615.47V56.1429ZM1620.61 56.1429H1625.75V61.2857H1620.61V56.1429ZM1620.61 51H1625.75V56.1429H1620.61V51ZM1620.61 45.8571H1625.75V51H1620.61V45.8571ZM1620.61 40.7143H1625.75V45.8571H1620.61V40.7143ZM1615.47 40.7143H1620.61V45.8571H1615.47V40.7143ZM1615.47 35.5714H1620.61V40.7143H1615.47V35.5714ZM1615.47 45.8571H1620.61V51H1615.47V45.8571ZM1615.47 51H1620.61V56.1429H1615.47V51ZM1620.61 35.5714H1625.75V40.7143H1620.61V35.5714ZM1620.61 61.2857H1625.75V66.4286H1620.61V61.2857ZM1620.61 66.4286H1625.75V71.5714H1620.61V66.4286ZM1620.61 71.5714H1625.75V76.7143H1620.61V71.5714ZM1620.61 76.7143H1625.75V81.8571H1620.61V76.7143ZM1620.61 81.8571H1625.75V87H1620.61V81.8571ZM1625.75 45.8571H1630.9V51H1625.75V45.8571ZM1625.75 51H1630.9V56.1429H1625.75V51ZM1630.9 51H1636.04V56.1429H1630.9V51ZM1630.9 56.1429H1636.04V61.2857H1630.9V56.1429ZM1636.04 56.1429H1641.18V61.2857H1636.04V56.1429ZM1636.04 61.2857H1641.18V66.4286H1636.04V61.2857ZM1641.18 56.1429H1646.33V61.2857H1641.18V56.1429ZM1641.18 51H1646.33V56.1429H1641.18V51ZM1646.33 51H1651.47V56.1429H1646.33V51ZM1646.33 45.8571H1651.47V51H1646.33V45.8571ZM1651.47 35.5714H1656.61V40.7143H1651.47V35.5714ZM1651.47 40.7143H1656.61V45.8571H1651.47V40.7143ZM1651.47 45.8571H1656.61V51H1651.47V45.8571ZM1651.47 51H1656.61V56.1429H1651.47V51ZM1651.47 56.1429H1656.61V61.2857H1651.47V56.1429ZM1651.47 61.2857H1656.61V66.4286H1651.47V61.2857ZM1651.47 66.4286H1656.61V71.5714H1651.47V66.4286ZM1651.47 71.5714H1656.61V76.7143H1651.47V71.5714ZM1651.47 76.7143H1656.61V81.8571H1651.47V76.7143ZM1651.47 81.8571H1656.61V87H1651.47V81.8571ZM1656.61 81.8571H1661.75V87H1656.61V81.8571ZM1656.61 76.7143H1661.75V81.8571H1656.61V76.7143ZM1656.61 71.5714H1661.75V76.7143H1656.61V71.5714ZM1656.61 66.4286H1661.75V71.5714H1656.61V66.4286ZM1656.61 61.2857H1661.75V66.4286H1656.61V61.2857ZM1656.61 56.1429H1661.75V61.2857H1656.61V56.1429ZM1656.61 51H1661.75V56.1429H1656.61V51ZM1656.61 45.8571H1661.75V51H1656.61V45.8571ZM1656.61 40.7143H1661.75V45.8571H1656.61V40.7143ZM1656.61 35.5714H1661.75V40.7143H1656.61V35.5714ZM1625.75 40.7143H1630.9V45.8571H1625.75V40.7143ZM1630.9 45.8571H1636.04V51H1630.9V45.8571ZM1636.04 51H1641.18V56.1429H1636.04V51ZM1641.18 45.8571H1646.33V51H1641.18V45.8571ZM1646.33 40.7143H1651.47V45.8571H1646.33V40.7143ZM1666.94 35.5714H1672.08V40.7143H1666.94V35.5714ZM1672.08 35.5714H1677.22V40.7143H1672.08V35.5714ZM1677.22 35.5714H1682.37V40.7143H1677.22V35.5714ZM1682.37 35.5714H1687.51V40.7143H1682.37V35.5714ZM1687.51 35.5714H1692.65V40.7143H1687.51V35.5714ZM1692.65 35.5714H1697.79V40.7143H1692.65V35.5714ZM1692.65 40.7143H1697.79V45.8571H1692.65V40.7143ZM1687.51 40.7143H1692.65V45.8571H1687.51V40.7143ZM1682.37 40.7143H1687.51V45.8571H1682.37V40.7143ZM1677.22 40.7143H1682.37V45.8571H1677.22V40.7143ZM1672.08 40.7143H1677.22V45.8571H1672.08V40.7143ZM1666.94 40.7143H1672.08V45.8571H1666.94V40.7143ZM1697.79 40.7143H1702.94V45.8571H1697.79V40.7143ZM1692.65 45.8571H1697.79V51H1692.65V45.8571ZM1697.79 45.8571H1702.94V51H1697.79V45.8571ZM1697.79 51H1702.94V56.1429H1697.79V51ZM1697.79 56.1429H1702.94V61.2857H1697.79V56.1429ZM1692.65 56.1429H1697.79V61.2857H1692.65V56.1429ZM1692.65 51H1697.79V56.1429H1692.65V51ZM1692.65 61.2857H1697.79V66.4286H1692.65V61.2857ZM1692.65 66.4286H1697.79V71.5714H1692.65V66.4286ZM1687.51 66.4286H1692.65V71.5714H1687.51V66.4286ZM1687.51 61.2857H1692.65V66.4286H1687.51V61.2857ZM1682.37 61.2857H1687.51V66.4286H1682.37V61.2857ZM1682.37 66.4286H1687.51V71.5714H1682.37V66.4286ZM1677.22 66.4286H1682.37V71.5714H1677.22V66.4286ZM1677.22 61.2857H1682.37V66.4286H1677.22V61.2857ZM1672.08 61.2857H1677.22V66.4286H1672.08V61.2857ZM1666.94 61.2857H1672.08V66.4286H1666.94V61.2857ZM1666.94 66.4286H1672.08V71.5714H1666.94V66.4286ZM1672.08 66.4286H1677.22V71.5714H1672.08V66.4286ZM1666.94 45.8571H1672.08V51H1666.94V45.8571ZM1672.08 45.8571H1677.22V51H1672.08V45.8571ZM1672.08 51H1677.22V56.1429H1672.08V51ZM1672.08 56.1429H1677.22V61.2857H1672.08V56.1429ZM1666.94 51H1672.08V56.1429H1666.94V51ZM1666.94 56.1429H1672.08V61.2857H1666.94V56.1429ZM1666.94 71.5714H1672.08V76.7143H1666.94V71.5714ZM1672.08 71.5714H1677.22V76.7143H1672.08V71.5714ZM1672.08 76.7143H1677.22V81.8571H1672.08V76.7143ZM1672.08 81.8571H1677.22V87H1672.08V81.8571ZM1666.94 81.8571H1672.08V87H1666.94V81.8571ZM1666.94 76.7143H1672.08V81.8571H1666.94V76.7143ZM1697.79 61.2857H1702.94V66.4286H1697.79V61.2857ZM1708.09 35.5714H1713.24V40.7143H1708.09V35.5714ZM1713.24 35.5714H1718.38V40.7143H1713.24V35.5714ZM1718.38 35.5714H1723.52V40.7143H1718.38V35.5714ZM1723.52 35.5714H1728.67V40.7143H1723.52V35.5714ZM1728.67 35.5714H1733.81V40.7143H1728.67V35.5714ZM1733.81 35.5714H1738.95V40.7143H1733.81V35.5714ZM1733.81 40.7143H1738.95V45.8571H1733.81V40.7143ZM1728.67 40.7143H1733.81V45.8571H1728.67V40.7143ZM1723.52 40.7143H1728.67V45.8571H1723.52V40.7143ZM1718.38 40.7143H1723.52V45.8571H1718.38V40.7143ZM1713.24 40.7143H1718.38V45.8571H1713.24V40.7143ZM1708.09 40.7143H1713.24V45.8571H1708.09V40.7143ZM1718.38 45.8571H1723.52V51H1718.38V45.8571ZM1718.38 51H1723.52V56.1429H1718.38V51ZM1718.38 56.1429H1723.52V61.2857H1718.38V56.1429ZM1718.38 61.2857H1723.52V66.4286H1718.38V61.2857ZM1718.38 66.4286H1723.52V71.5714H1718.38V66.4286ZM1718.38 71.5714H1723.52V76.7143H1718.38V71.5714ZM1723.52 66.4286H1728.67V71.5714H1723.52V66.4286ZM1723.52 61.2857H1728.67V66.4286H1723.52V61.2857ZM1723.52 56.1429H1728.67V61.2857H1723.52V56.1429ZM1723.52 51H1728.67V56.1429H1723.52V51ZM1723.52 45.8571H1728.67V51H1723.52V45.8571ZM1723.52 71.5714H1728.67V76.7143H1723.52V71.5714ZM1723.52 76.7143H1728.67V81.8571H1723.52V76.7143ZM1723.52 81.8571H1728.67V87H1723.52V81.8571ZM1718.38 81.8571H1723.52V87H1718.38V81.8571ZM1718.38 76.7143H1723.52V81.8571H1718.38V76.7143ZM1754.38 35.5714H1759.52V40.7143H1754.38V35.5714ZM1749.24 35.5714H1754.38V40.7143H1749.24V35.5714ZM1749.24 40.7143H1754.38V45.8571H1749.24V40.7143ZM1754.38 40.7143H1759.52V45.8571H1754.38V40.7143ZM1759.52 40.7143H1764.67V45.8571H1759.52V40.7143ZM1759.52 35.5714H1764.67V40.7143H1759.52V35.5714ZM1764.67 35.5714H1769.81V40.7143H1764.67V35.5714ZM1769.81 35.5714H1774.95V40.7143H1769.81V35.5714ZM1769.81 40.7143H1774.95V45.8571H1769.81V40.7143ZM1764.67 40.7143H1769.81V45.8571H1764.67V40.7143ZM1764.67 45.8571H1769.81V51H1764.67V45.8571ZM1769.81 45.8571H1774.95V51H1769.81V45.8571ZM1774.95 40.7143H1780.09V45.8571H1774.95V40.7143ZM1774.95 45.8571H1780.09V51H1774.95V45.8571ZM1774.95 51H1780.09V56.1429H1774.95V51ZM1774.95 56.1429H1780.09V61.2857H1774.95V56.1429ZM1774.95 61.2857H1780.09V66.4286H1774.95V61.2857ZM1774.95 66.4286H1780.09V71.5714H1774.95V66.4286ZM1774.95 71.5714H1780.09V76.7143H1774.95V71.5714ZM1774.95 76.7143H1780.09V81.8571H1774.95V76.7143ZM1769.81 76.7143H1774.95V81.8571H1769.81V76.7143ZM1769.81 71.5714H1774.95V76.7143H1769.81V71.5714ZM1769.81 66.4286H1774.95V71.5714H1769.81V66.4286ZM1769.81 61.2857H1774.95V66.4286H1769.81V61.2857ZM1769.81 56.1429H1774.95V61.2857H1769.81V56.1429ZM1769.81 51H1774.95V56.1429H1769.81V51ZM1764.67 71.5714H1769.81V76.7143H1764.67V71.5714ZM1764.67 76.7143H1769.81V81.8571H1764.67V76.7143ZM1769.81 81.8571H1774.95V87H1769.81V81.8571ZM1764.67 81.8571H1769.81V87H1764.67V81.8571ZM1759.52 81.8571H1764.67V87H1759.52V81.8571ZM1759.52 76.7143H1764.67V81.8571H1759.52V76.7143ZM1754.38 81.8571H1759.52V87H1754.38V81.8571ZM1749.24 81.8571H1754.38V87H1749.24V81.8571ZM1749.24 76.7143H1754.38V81.8571H1749.24V76.7143ZM1754.38 76.7143H1759.52V81.8571H1754.38V76.7143ZM1754.38 71.5714H1759.52V76.7143H1754.38V71.5714ZM1749.24 71.5714H1754.38V76.7143H1749.24V71.5714ZM1744.09 76.7143H1749.24V81.8571H1744.09V76.7143ZM1744.09 71.5714H1749.24V76.7143H1744.09V71.5714ZM1744.09 66.4286H1749.24V71.5714H1744.09V66.4286ZM1744.09 61.2857H1749.24V66.4286H1744.09V61.2857ZM1744.09 56.1429H1749.24V61.2857H1744.09V56.1429ZM1744.09 51H1749.24V56.1429H1744.09V51ZM1744.09 45.8571H1749.24V51H1744.09V45.8571ZM1749.24 45.8571H1754.38V51H1749.24V45.8571ZM1744.09 40.7143H1749.24V45.8571H1744.09V40.7143ZM1754.38 45.8571H1759.52V51H1754.38V45.8571ZM1749.24 51H1754.38V56.1429H1749.24V51ZM1749.24 56.1429H1754.38V61.2857H1749.24V56.1429ZM1749.24 61.2857H1754.38V66.4286H1749.24V61.2857ZM1749.24 66.4286H1754.38V71.5714H1749.24V66.4286ZM1785.25 81.8571H1790.39V87H1785.25V81.8571ZM1785.25 76.7143H1790.39V81.8571H1785.25V76.7143ZM1785.25 71.5714H1790.39V76.7143H1785.25V71.5714ZM1785.25 66.4286H1790.39V71.5714H1785.25V66.4286ZM1785.25 61.2857H1790.39V66.4286H1785.25V61.2857ZM1785.25 56.1429H1790.39V61.2857H1785.25V56.1429ZM1790.39 56.1429H1795.54V61.2857H1790.39V56.1429ZM1790.39 51H1795.54V56.1429H1790.39V51ZM1790.39 45.8571H1795.54V51H1790.39V45.8571ZM1790.39 40.7143H1795.54V45.8571H1790.39V40.7143ZM1785.25 40.7143H1790.39V45.8571H1785.25V40.7143ZM1785.25 35.5714H1790.39V40.7143H1785.25V35.5714ZM1785.25 45.8571H1790.39V51H1785.25V45.8571ZM1785.25 51H1790.39V56.1429H1785.25V51ZM1790.39 35.5714H1795.54V40.7143H1790.39V35.5714ZM1790.39 61.2857H1795.54V66.4286H1790.39V61.2857ZM1790.39 66.4286H1795.54V71.5714H1790.39V66.4286ZM1790.39 71.5714H1795.54V76.7143H1790.39V71.5714ZM1790.39 76.7143H1795.54V81.8571H1790.39V76.7143ZM1790.39 81.8571H1795.54V87H1790.39V81.8571ZM1795.54 45.8571H1800.68V51H1795.54V45.8571ZM1795.54 51H1800.68V56.1429H1795.54V51ZM1800.68 51H1805.82V56.1429H1800.68V51ZM1800.68 56.1429H1805.82V61.2857H1800.68V56.1429ZM1805.82 56.1429H1810.96V61.2857H1805.82V56.1429ZM1805.82 61.2857H1810.96V66.4286H1805.82V61.2857ZM1810.96 56.1429H1816.11V61.2857H1810.96V56.1429ZM1810.96 51H1816.11V56.1429H1810.96V51ZM1816.11 51H1821.25V56.1429H1816.11V51ZM1816.11 45.8571H1821.25V51H1816.11V45.8571ZM1821.25 35.5714H1826.39V40.7143H1821.25V35.5714ZM1821.25 40.7143H1826.39V45.8571H1821.25V40.7143ZM1821.25 45.8571H1826.39V51H1821.25V45.8571ZM1821.25 51H1826.39V56.1429H1821.25V51ZM1821.25 56.1429H1826.39V61.2857H1821.25V56.1429ZM1821.25 61.2857H1826.39V66.4286H1821.25V61.2857ZM1821.25 66.4286H1826.39V71.5714H1821.25V66.4286ZM1821.25 71.5714H1826.39V76.7143H1821.25V71.5714ZM1821.25 76.7143H1826.39V81.8571H1821.25V76.7143ZM1821.25 81.8571H1826.39V87H1821.25V81.8571ZM1826.39 81.8571H1831.54V87H1826.39V81.8571ZM1826.39 76.7143H1831.54V81.8571H1826.39V76.7143ZM1826.39 71.5714H1831.54V76.7143H1826.39V71.5714ZM1826.39 66.4286H1831.54V71.5714H1826.39V66.4286ZM1826.39 61.2857H1831.54V66.4286H1826.39V61.2857ZM1826.39 56.1429H1831.54V61.2857H1826.39V56.1429ZM1826.39 51H1831.54V56.1429H1826.39V51ZM1826.39 45.8571H1831.54V51H1826.39V45.8571ZM1826.39 40.7143H1831.54V45.8571H1826.39V40.7143ZM1826.39 35.5714H1831.54V40.7143H1826.39V35.5714ZM1795.54 40.7143H1800.68V45.8571H1795.54V40.7143ZM1800.68 45.8571H1805.82V51H1800.68V45.8571ZM1805.82 51H1810.96V56.1429H1805.82V51ZM1810.96 45.8571H1816.11V51H1810.96V45.8571ZM1816.11 40.7143H1821.25V45.8571H1816.11V40.7143ZM1867.58 45.8571H1872.72V51H1867.58V45.8571ZM1862.43 45.8571H1867.58V51H1862.43V45.8571ZM1862.43 40.7143H1867.58V45.8571H1862.43V40.7143ZM1867.58 40.7143H1872.72V45.8571H1867.58V40.7143ZM1862.43 35.5714H1867.58V40.7143H1862.43V35.5714ZM1857.29 35.5714H1862.43V40.7143H1857.29V35.5714ZM1857.29 40.7143H1862.43V45.8571H1857.29V40.7143ZM1852.15 40.7143H1857.29V45.8571H1852.15V40.7143ZM1847 40.7143H1852.15V45.8571H1847V40.7143ZM1847 35.5714H1852.15V40.7143H1847V35.5714ZM1841.86 35.5714H1847V40.7143H1841.86V35.5714ZM1852.15 35.5714H1857.29V40.7143H1852.15V35.5714ZM1841.86 40.7143H1847V45.8571H1841.86V40.7143ZM1836.72 40.7143H1841.86V45.8571H1836.72V40.7143ZM1836.72 45.8571H1841.86V51H1836.72V45.8571ZM1841.86 45.8571H1847V51H1841.86V45.8571ZM1841.86 51H1847V56.1429H1841.86V51ZM1841.86 56.1429H1847V61.2857H1841.86V56.1429ZM1836.72 56.1429H1841.86V61.2857H1836.72V56.1429ZM1836.72 51H1841.86V56.1429H1836.72V51ZM1841.86 61.2857H1847V66.4286H1841.86V61.2857ZM1847 61.2857H1852.15V66.4286H1847V61.2857ZM1847 56.1429H1852.15V61.2857H1847V56.1429ZM1852.15 56.1429H1857.29V61.2857H1852.15V56.1429ZM1857.29 56.1429H1862.43V61.2857H1857.29V56.1429ZM1862.43 56.1429H1867.58V61.2857H1862.43V56.1429ZM1862.43 61.2857H1867.58V66.4286H1862.43V61.2857ZM1857.29 61.2857H1862.43V66.4286H1857.29V61.2857ZM1852.15 61.2857H1857.29V66.4286H1852.15V61.2857ZM1867.58 61.2857H1872.72V66.4286H1867.58V61.2857ZM1867.58 66.4286H1872.72V71.5714H1867.58V66.4286ZM1862.43 66.4286H1867.58V71.5714H1862.43V66.4286ZM1857.29 76.7143H1862.43V81.8571H1857.29V76.7143ZM1862.43 76.7143H1867.58V81.8571H1862.43V76.7143ZM1862.43 71.5714H1867.58V76.7143H1862.43V71.5714ZM1867.58 71.5714H1872.72V76.7143H1867.58V71.5714ZM1867.58 76.7143H1872.72V81.8571H1867.58V76.7143ZM1862.43 81.8571H1867.58V87H1862.43V81.8571ZM1857.29 81.8571H1862.43V87H1857.29V81.8571ZM1852.15 81.8571H1857.29V87H1852.15V81.8571ZM1847 81.8571H1852.15V87H1847V81.8571ZM1841.86 81.8571H1847V87H1841.86V81.8571ZM1841.86 76.7143H1847V81.8571H1841.86V76.7143ZM1847 76.7143H1852.15V81.8571H1847V76.7143ZM1852.15 76.7143H1857.29V81.8571H1852.15V76.7143ZM1836.72 76.7143H1841.86V81.8571H1836.72V76.7143ZM1836.72 71.5714H1841.86V76.7143H1836.72V71.5714ZM1841.86 71.5714H1847V76.7143H1841.86V71.5714ZM1908.69 40.7143H1913.83V45.8571H1908.69V40.7143ZM1913.83 40.7143H1918.98V45.8571H1913.83V40.7143ZM1913.83 35.5714H1918.98V40.7143H1913.83V35.5714ZM1918.98 40.7143H1924.12V45.8571H1918.98V40.7143ZM1918.98 45.8571H1924.12V51H1918.98V45.8571ZM1924.12 45.8571H1929.26V51H1924.12V45.8571ZM1913.83 45.8571H1918.98V51H1913.83V45.8571ZM1908.69 45.8571H1913.83V51H1908.69V45.8571ZM1903.55 45.8571H1908.69V51H1903.55V45.8571ZM1903.55 51H1908.69V56.1429H1903.55V51ZM1898.41 51H1903.55V56.1429H1898.41V51ZM1908.69 51H1913.83V56.1429H1908.69V51ZM1903.55 56.1429H1908.69V61.2857H1903.55V56.1429ZM1903.55 61.2857H1908.69V66.4286H1903.55V61.2857ZM1903.55 66.4286H1908.69V71.5714H1903.55V66.4286ZM1908.69 66.4286H1913.83V71.5714H1908.69V66.4286ZM1913.83 66.4286H1918.98V71.5714H1913.83V66.4286ZM1918.98 66.4286H1924.12V71.5714H1918.98V66.4286ZM1924.12 66.4286H1929.26V71.5714H1924.12V66.4286ZM1929.26 66.4286H1934.41V71.5714H1929.26V66.4286ZM1929.26 61.2857H1934.41V66.4286H1929.26V61.2857ZM1929.26 56.1429H1934.41V61.2857H1929.26V56.1429ZM1929.26 51H1934.41V56.1429H1929.26V51ZM1924.12 51H1929.26V56.1429H1924.12V51ZM1918.98 51H1924.12V56.1429H1918.98V51ZM1924.12 56.1429H1929.26V61.2857H1924.12V56.1429ZM1924.12 61.2857H1929.26V66.4286H1924.12V61.2857ZM1924.12 71.5714H1929.26V76.7143H1924.12V71.5714ZM1929.26 71.5714H1934.41V76.7143H1929.26V71.5714ZM1929.26 76.7143H1934.41V81.8571H1929.26V76.7143ZM1929.26 81.8571H1934.41V87H1929.26V81.8571ZM1924.12 81.8571H1929.26V87H1924.12V81.8571ZM1924.12 76.7143H1929.26V81.8571H1924.12V76.7143ZM1918.98 71.5714H1924.12V76.7143H1918.98V71.5714ZM1913.83 71.5714H1918.98V76.7143H1913.83V71.5714ZM1908.69 71.5714H1913.83V76.7143H1908.69V71.5714ZM1903.55 71.5714H1908.69V76.7143H1903.55V71.5714ZM1903.55 76.7143H1908.69V81.8571H1903.55V76.7143ZM1903.55 81.8571H1908.69V87H1903.55V81.8571ZM1898.41 81.8571H1903.55V87H1898.41V81.8571ZM1898.41 76.7143H1903.55V81.8571H1898.41V76.7143ZM1898.41 71.5714H1903.55V76.7143H1898.41V71.5714ZM1898.41 66.4286H1903.55V71.5714H1898.41V66.4286ZM1898.41 61.2857H1903.55V66.4286H1898.41V61.2857ZM1898.41 56.1429H1903.55V61.2857H1898.41V56.1429ZM1954.99 61.2857H1960.13V66.4286H1954.99V61.2857ZM1954.99 56.1429H1960.13V61.2857H1954.99V56.1429ZM1960.13 56.1429H1965.28V61.2857H1960.13V56.1429ZM1960.13 61.2857H1965.28V66.4286H1960.13V61.2857ZM1960.13 66.4286H1965.28V71.5714H1960.13V66.4286ZM1954.99 66.4286H1960.13V71.5714H1954.99V66.4286ZM1954.99 45.8571H1960.13V51H1954.99V45.8571ZM1954.99 51H1960.13V56.1429H1954.99V51ZM1949.85 56.1429H1954.99V61.2857H1949.85V56.1429ZM1949.85 51H1954.99V56.1429H1949.85V51ZM1949.85 45.8571H1954.99V51H1949.85V45.8571ZM1939.56 35.5714H1944.71V40.7143H1939.56V35.5714ZM1944.71 35.5714H1949.85V40.7143H1944.71V35.5714ZM1949.85 35.5714H1954.99V40.7143H1949.85V35.5714ZM1949.85 40.7143H1954.99V45.8571H1949.85V40.7143ZM1944.71 40.7143H1949.85V45.8571H1944.71V40.7143ZM1939.56 40.7143H1944.71V45.8571H1939.56V40.7143ZM1939.56 45.8571H1944.71V51H1939.56V45.8571ZM1944.71 45.8571H1949.85V51H1944.71V45.8571ZM1944.71 51H1949.85V56.1429H1944.71V51ZM1944.71 56.1429H1949.85V61.2857H1944.71V56.1429ZM1939.56 56.1429H1944.71V61.2857H1939.56V56.1429ZM1939.56 51H1944.71V56.1429H1939.56V51ZM1939.56 61.2857H1944.71V66.4286H1939.56V61.2857ZM1944.71 61.2857H1949.85V66.4286H1944.71V61.2857ZM1944.71 66.4286H1949.85V71.5714H1944.71V66.4286ZM1944.71 71.5714H1949.85V76.7143H1944.71V71.5714ZM1944.71 76.7143H1949.85V81.8571H1944.71V76.7143ZM1944.71 81.8571H1949.85V87H1944.71V81.8571ZM1939.56 81.8571H1944.71V87H1939.56V81.8571ZM1939.56 76.7143H1944.71V81.8571H1939.56V76.7143ZM1939.56 71.5714H1944.71V76.7143H1939.56V71.5714ZM1939.56 66.4286H1944.71V71.5714H1939.56V66.4286ZM1960.13 71.5714H1965.28V76.7143H1960.13V71.5714ZM1960.13 76.7143H1965.28V81.8571H1960.13V76.7143ZM1965.28 71.5714H1970.42V76.7143H1965.28V71.5714ZM1965.28 66.4286H1970.42V71.5714H1965.28V66.4286ZM1965.28 76.7143H1970.42V81.8571H1965.28V76.7143ZM1965.28 81.8571H1970.42V87H1965.28V81.8571ZM1970.42 81.8571H1975.56V87H1970.42V81.8571ZM1975.56 81.8571H1980.71V87H1975.56V81.8571ZM1975.56 76.7143H1980.71V81.8571H1975.56V76.7143ZM1975.56 71.5714H1980.71V76.7143H1975.56V71.5714ZM1970.42 71.5714H1975.56V76.7143H1970.42V71.5714ZM1970.42 76.7143H1975.56V81.8571H1970.42V76.7143ZM1970.42 66.4286H1975.56V71.5714H1970.42V66.4286ZM1975.56 61.2857H1980.71V66.4286H1975.56V61.2857ZM1975.56 56.1429H1980.71V61.2857H1975.56V56.1429ZM1975.56 66.4286H1980.71V71.5714H1975.56V66.4286ZM1970.42 61.2857H1975.56V66.4286H1970.42V61.2857ZM1970.42 56.1429H1975.56V61.2857H1970.42V56.1429ZM1970.42 51H1975.56V56.1429H1970.42V51ZM1975.56 51H1980.71V56.1429H1975.56V51ZM1975.56 45.8571H1980.71V51H1975.56V45.8571ZM1970.42 35.5714H1975.56V40.7143H1970.42V35.5714ZM1975.56 35.5714H1980.71V40.7143H1975.56V35.5714ZM1975.56 40.7143H1980.71V45.8571H1975.56V40.7143ZM1970.42 40.7143H1975.56V45.8571H1970.42V40.7143ZM1970.42 45.8571H1975.56V51H1970.42V45.8571ZM1996.16 40.7143H2001.3V45.8571H1996.16V40.7143ZM2001.3 40.7143H2006.45V45.8571H2001.3V40.7143ZM2001.3 35.5714H2006.45V40.7143H2001.3V35.5714ZM2006.45 40.7143H2011.59V45.8571H2006.45V40.7143ZM2006.45 45.8571H2011.59V51H2006.45V45.8571ZM2011.59 45.8571H2016.73V51H2011.59V45.8571ZM2001.3 45.8571H2006.45V51H2001.3V45.8571ZM1996.16 45.8571H2001.3V51H1996.16V45.8571ZM1991.02 45.8571H1996.16V51H1991.02V45.8571ZM1991.02 51H1996.16V56.1429H1991.02V51ZM1985.88 51H1991.02V56.1429H1985.88V51ZM1996.16 51H2001.3V56.1429H1996.16V51ZM1991.02 56.1429H1996.16V61.2857H1991.02V56.1429ZM1991.02 61.2857H1996.16V66.4286H1991.02V61.2857ZM1991.02 66.4286H1996.16V71.5714H1991.02V66.4286ZM1996.16 66.4286H2001.3V71.5714H1996.16V66.4286ZM2001.3 66.4286H2006.45V71.5714H2001.3V66.4286ZM2006.45 66.4286H2011.59V71.5714H2006.45V66.4286ZM2011.59 66.4286H2016.73V71.5714H2011.59V66.4286ZM2016.73 66.4286H2021.88V71.5714H2016.73V66.4286ZM2016.73 61.2857H2021.88V66.4286H2016.73V61.2857ZM2016.73 56.1429H2021.88V61.2857H2016.73V56.1429ZM2016.73 51H2021.88V56.1429H2016.73V51ZM2011.59 51H2016.73V56.1429H2011.59V51ZM2006.45 51H2011.59V56.1429H2006.45V51ZM2011.59 56.1429H2016.73V61.2857H2011.59V56.1429ZM2011.59 61.2857H2016.73V66.4286H2011.59V61.2857ZM2011.59 71.5714H2016.73V76.7143H2011.59V71.5714ZM2016.73 71.5714H2021.88V76.7143H2016.73V71.5714ZM2016.73 76.7143H2021.88V81.8571H2016.73V76.7143ZM2016.73 81.8571H2021.88V87H2016.73V81.8571ZM2011.59 81.8571H2016.73V87H2011.59V81.8571ZM2011.59 76.7143H2016.73V81.8571H2011.59V76.7143ZM2006.45 71.5714H2011.59V76.7143H2006.45V71.5714ZM2001.3 71.5714H2006.45V76.7143H2001.3V71.5714ZM1996.16 71.5714H2001.3V76.7143H1996.16V71.5714ZM1991.02 71.5714H1996.16V76.7143H1991.02V71.5714ZM1991.02 76.7143H1996.16V81.8571H1991.02V76.7143ZM1991.02 81.8571H1996.16V87H1991.02V81.8571ZM1985.88 81.8571H1991.02V87H1985.88V81.8571ZM1985.88 76.7143H1991.02V81.8571H1985.88V76.7143ZM1985.88 71.5714H1991.02V76.7143H1985.88V71.5714ZM1985.88 66.4286H1991.02V71.5714H1985.88V66.4286ZM1985.88 61.2857H1991.02V66.4286H1985.88V61.2857ZM1985.88 56.1429H1991.02V61.2857H1985.88V56.1429ZM2027.03 35.5714H2032.17V40.7143H2027.03V35.5714ZM2032.17 35.5714H2037.32V40.7143H2032.17V35.5714ZM2032.17 40.7143H2037.32V45.8571H2032.17V40.7143ZM2032.17 45.8571H2037.32V51H2032.17V45.8571ZM2032.17 51H2037.32V56.1429H2032.17V51ZM2027.03 51H2032.17V56.1429H2027.03V51ZM2027.03 45.8571H2032.17V51H2027.03V45.8571ZM2027.03 40.7143H2032.17V45.8571H2027.03V40.7143ZM2027.03 56.1429H2032.17V61.2857H2027.03V56.1429ZM2027.03 61.2857H2032.17V66.4286H2027.03V61.2857ZM2027.03 66.4286H2032.17V71.5714H2027.03V66.4286ZM2032.17 61.2857H2037.32V66.4286H2032.17V61.2857ZM2032.17 56.1429H2037.32V61.2857H2032.17V56.1429ZM2032.17 66.4286H2037.32V71.5714H2032.17V66.4286ZM2032.17 71.5714H2037.32V76.7143H2032.17V71.5714ZM2027.03 76.7143H2032.17V81.8571H2027.03V76.7143ZM2027.03 71.5714H2032.17V76.7143H2027.03V71.5714ZM2027.03 81.8571H2032.17V87H2027.03V81.8571ZM2032.17 81.8571H2037.32V87H2032.17V81.8571ZM2032.17 76.7143H2037.32V81.8571H2032.17V76.7143ZM2037.32 81.8571H2042.46V87H2037.32V81.8571ZM2042.46 81.8571H2047.6V87H2042.46V81.8571ZM2047.6 81.8571H2052.75V87H2047.6V81.8571ZM2047.6 76.7143H2052.75V81.8571H2047.6V76.7143ZM2042.46 76.7143H2047.6V81.8571H2042.46V76.7143ZM2037.32 76.7143H2042.46V81.8571H2037.32V76.7143ZM2057.88 35.5714H2063.02V40.7143H2057.88V35.5714ZM2063.02 35.5714H2068.16V40.7143H2063.02V35.5714ZM2063.02 40.7143H2068.16V45.8571H2063.02V40.7143ZM2063.02 45.8571H2068.16V51H2063.02V45.8571ZM2057.88 45.8571H2063.02V51H2057.88V45.8571ZM2057.88 40.7143H2063.02V45.8571H2057.88V40.7143ZM2057.88 51H2063.02V56.1429H2057.88V51ZM2057.88 56.1429H2063.02V61.2857H2057.88V56.1429ZM2063.02 56.1429H2068.16V61.2857H2063.02V56.1429ZM2063.02 51H2068.16V56.1429H2063.02V51ZM2063.02 61.2857H2068.16V66.4286H2063.02V61.2857ZM2068.16 61.2857H2073.3V66.4286H2068.16V61.2857ZM2068.16 56.1429H2073.3V61.2857H2068.16V56.1429ZM2068.16 66.4286H2073.3V71.5714H2068.16V66.4286ZM2073.3 66.4286H2078.45V71.5714H2073.3V66.4286ZM2073.3 61.2857H2078.45V66.4286H2073.3V61.2857ZM2078.45 61.2857H2083.59V66.4286H2078.45V61.2857ZM2078.45 66.4286H2083.59V71.5714H2078.45V66.4286ZM2083.59 66.4286H2088.73V71.5714H2083.59V66.4286ZM2083.59 61.2857H2088.73V66.4286H2083.59V61.2857ZM2083.59 56.1429H2088.73V61.2857H2083.59V56.1429ZM2088.73 56.1429H2093.88V61.2857H2088.73V56.1429ZM2088.73 61.2857H2093.88V66.4286H2088.73V61.2857ZM2088.73 51H2093.88V56.1429H2088.73V51ZM2088.73 45.8571H2093.88V51H2088.73V45.8571ZM2088.73 40.7143H2093.88V45.8571H2088.73V40.7143ZM2088.73 35.5714H2093.88V40.7143H2088.73V35.5714ZM2093.88 35.5714H2099.02V40.7143H2093.88V35.5714ZM2093.88 40.7143H2099.02V45.8571H2093.88V40.7143ZM2093.88 45.8571H2099.02V51H2093.88V45.8571ZM2093.88 51H2099.02V56.1429H2093.88V51ZM2093.88 56.1429H2099.02V61.2857H2093.88V56.1429ZM2073.3 71.5714H2078.45V76.7143H2073.3V71.5714ZM2073.3 76.7143H2078.45V81.8571H2073.3V76.7143ZM2073.3 81.8571H2078.45V87H2073.3V81.8571ZM2078.45 81.8571H2083.59V87H2078.45V81.8571ZM2078.45 76.7143H2083.59V81.8571H2078.45V76.7143ZM2078.45 71.5714H2083.59V76.7143H2078.45V71.5714ZM2104.19 35.5714H2109.33V40.7143H2104.19V35.5714ZM2109.33 35.5714H2114.47V40.7143H2109.33V35.5714ZM2114.47 35.5714H2119.62V40.7143H2114.47V35.5714ZM2119.62 35.5714H2124.76V40.7143H2119.62V35.5714ZM2124.76 35.5714H2129.9V40.7143H2124.76V35.5714ZM2129.9 35.5714H2135.04V40.7143H2129.9V35.5714ZM2135.04 35.5714H2140.19V40.7143H2135.04V35.5714ZM2140.19 35.5714H2145.33V40.7143H2140.19V35.5714ZM2140.19 40.7143H2145.33V45.8571H2140.19V40.7143ZM2135.04 40.7143H2140.19V45.8571H2135.04V40.7143ZM2129.9 40.7143H2135.04V45.8571H2129.9V40.7143ZM2124.76 40.7143H2129.9V45.8571H2124.76V40.7143ZM2104.19 40.7143H2109.33V45.8571H2104.19V40.7143ZM2109.33 40.7143H2114.47V45.8571H2109.33V40.7143ZM2114.47 40.7143H2119.62V45.8571H2114.47V40.7143ZM2119.62 40.7143H2124.76V45.8571H2119.62V40.7143ZM2135.04 45.8571H2140.19V51H2135.04V45.8571ZM2129.9 45.8571H2135.04V51H2129.9V45.8571ZM2140.19 45.8571H2145.33V51H2140.19V45.8571ZM2129.9 51H2135.04V56.1429H2129.9V51ZM2135.04 51H2140.19V56.1429H2135.04V51ZM2129.9 56.1429H2135.04V61.2857H2129.9V56.1429ZM2124.76 56.1429H2129.9V61.2857H2124.76V56.1429ZM2124.76 61.2857H2129.9V66.4286H2124.76V61.2857ZM2119.62 56.1429H2124.76V61.2857H2119.62V56.1429ZM2124.76 51H2129.9V56.1429H2124.76V51ZM2119.62 61.2857H2124.76V66.4286H2119.62V61.2857ZM2114.47 61.2857H2119.62V66.4286H2114.47V61.2857ZM2114.47 66.4286H2119.62V71.5714H2114.47V66.4286ZM2119.62 66.4286H2124.76V71.5714H2119.62V66.4286ZM2109.33 66.4286H2114.47V71.5714H2109.33V66.4286ZM2109.33 71.5714H2114.47V76.7143H2109.33V71.5714ZM2104.19 71.5714H2109.33V76.7143H2104.19V71.5714ZM2114.47 71.5714H2119.62V76.7143H2114.47V71.5714ZM2114.47 76.7143H2119.62V81.8571H2114.47V76.7143ZM2109.33 76.7143H2114.47V81.8571H2109.33V76.7143ZM2109.33 81.8571H2114.47V87H2109.33V81.8571ZM2104.19 81.8571H2109.33V87H2104.19V81.8571ZM2104.19 76.7143H2109.33V81.8571H2104.19V76.7143ZM2114.47 81.8571H2119.62V87H2114.47V81.8571ZM2119.62 81.8571H2124.76V87H2119.62V81.8571ZM2124.76 81.8571H2129.9V87H2124.76V81.8571ZM2129.9 81.8571H2135.04V87H2129.9V81.8571ZM2135.04 81.8571H2140.19V87H2135.04V81.8571ZM2135.04 76.7143H2140.19V81.8571H2135.04V76.7143ZM2140.19 81.8571H2145.33V87H2140.19V81.8571ZM2140.19 76.7143H2145.33V81.8571H2140.19V76.7143ZM2129.9 76.7143H2135.04V81.8571H2129.9V76.7143ZM2119.62 76.7143H2124.76V81.8571H2119.62V76.7143ZM2124.76 76.7143H2129.9V81.8571H2124.76V76.7143ZM2150.5 35.5714H2155.64V40.7143H2150.5V35.5714ZM2155.64 35.5714H2160.79V40.7143H2155.64V35.5714ZM2155.64 40.7143H2160.79V45.8571H2155.64V40.7143ZM2155.64 45.8571H2160.79V51H2155.64V45.8571ZM2155.64 51H2160.79V56.1429H2155.64V51ZM2150.5 51H2155.64V56.1429H2150.5V51ZM2150.5 45.8571H2155.64V51H2150.5V45.8571ZM2150.5 40.7143H2155.64V45.8571H2150.5V40.7143ZM2150.5 56.1429H2155.64V61.2857H2150.5V56.1429ZM2150.5 61.2857H2155.64V66.4286H2150.5V61.2857ZM2150.5 66.4286H2155.64V71.5714H2150.5V66.4286ZM2155.64 61.2857H2160.79V66.4286H2155.64V61.2857ZM2155.64 56.1429H2160.79V61.2857H2155.64V56.1429ZM2155.64 66.4286H2160.79V71.5714H2155.64V66.4286ZM2155.64 71.5714H2160.79V76.7143H2155.64V71.5714ZM2150.5 76.7143H2155.64V81.8571H2150.5V76.7143ZM2150.5 71.5714H2155.64V76.7143H2150.5V71.5714ZM2150.5 81.8571H2155.64V87H2150.5V81.8571ZM2155.64 81.8571H2160.79V87H2155.64V81.8571ZM2155.64 76.7143H2160.79V81.8571H2155.64V76.7143ZM2160.79 81.8571H2165.93V87H2160.79V81.8571ZM2165.93 81.8571H2171.07V87H2165.93V81.8571ZM2171.07 81.8571H2176.21V87H2171.07V81.8571ZM2171.07 76.7143H2176.21V81.8571H2171.07V76.7143ZM2165.93 76.7143H2171.07V81.8571H2165.93V76.7143ZM2160.79 76.7143H2165.93V81.8571H2160.79V76.7143ZM2160.79 35.5714H2165.93V40.7143H2160.79V35.5714ZM2165.93 35.5714H2171.07V40.7143H2165.93V35.5714ZM2171.07 35.5714H2176.21V40.7143H2171.07V35.5714ZM2176.21 35.5714H2181.36V40.7143H2176.21V35.5714ZM2171.07 40.7143H2176.21V45.8571H2171.07V40.7143ZM2165.93 40.7143H2171.07V45.8571H2165.93V40.7143ZM2160.79 40.7143H2165.93V45.8571H2160.79V40.7143ZM2160.79 61.2857H2165.93V66.4286H2160.79V61.2857ZM2165.93 56.1429H2171.07V61.2857H2165.93V56.1429ZM2160.79 56.1429H2165.93V61.2857H2160.79V56.1429ZM2165.93 61.2857H2171.07V66.4286H2165.93V61.2857ZM2176.21 40.7143H2181.36V45.8571H2176.21V40.7143ZM2176.21 76.7143H2181.36V81.8571H2176.21V76.7143ZM2176.21 81.8571H2181.36V87H2176.21V81.8571ZM2171.07 56.1429H2176.21V61.2857H2171.07V56.1429ZM2171.07 61.2857H2176.21V66.4286H2171.07V61.2857ZM2191.64 61.2857H2196.79V66.4286H2191.64V61.2857ZM2196.79 61.2857H2201.93V66.4286H2196.79V61.2857ZM2201.93 61.2857H2207.07V66.4286H2201.93V61.2857ZM2207.07 61.2857H2212.21V66.4286H2207.07V61.2857ZM2196.79 66.4286H2201.93V71.5714H2196.79V66.4286ZM2191.64 66.4286H2196.79V71.5714H2191.64V66.4286ZM2201.93 66.4286H2207.07V71.5714H2201.93V66.4286ZM2207.07 66.4286H2212.21V71.5714H2207.07V66.4286ZM2212.21 71.5714H2217.36V76.7143H2212.21V71.5714ZM2217.36 66.4286H2222.5V71.5714H2217.36V66.4286ZM2212.21 66.4286H2217.36V71.5714H2212.21V66.4286ZM2217.36 71.5714H2222.5V76.7143H2217.36V71.5714ZM2212.21 76.7143H2217.36V81.8571H2212.21V76.7143ZM2217.36 76.7143H2222.5V81.8571H2217.36V76.7143ZM2217.36 81.8571H2222.5V87H2217.36V81.8571ZM2212.21 81.8571H2217.36V87H2212.21V81.8571ZM2191.64 81.8571H2196.79V87H2191.64V81.8571ZM2186.5 81.8571H2191.64V87H2186.5V81.8571ZM2186.5 76.7143H2191.64V81.8571H2186.5V76.7143ZM2191.64 76.7143H2196.79V81.8571H2191.64V76.7143ZM2191.64 71.5714H2196.79V76.7143H2191.64V71.5714ZM2186.5 71.5714H2191.64V76.7143H2186.5V71.5714ZM2186.5 66.4286H2191.64V71.5714H2186.5V66.4286ZM2186.5 61.2857H2191.64V66.4286H2186.5V61.2857ZM2186.5 56.1429H2191.64V61.2857H2186.5V56.1429ZM2191.64 56.1429H2196.79V61.2857H2191.64V56.1429ZM2186.5 35.5714H2191.64V40.7143H2186.5V35.5714ZM2191.64 35.5714H2196.79V40.7143H2191.64V35.5714ZM2196.79 35.5714H2201.93V40.7143H2196.79V35.5714ZM2201.93 35.5714H2207.07V40.7143H2201.93V35.5714ZM2207.07 35.5714H2212.21V40.7143H2207.07V35.5714ZM2212.21 35.5714H2217.36V40.7143H2212.21V35.5714ZM2212.21 40.7143H2217.36V45.8571H2212.21V40.7143ZM2207.07 40.7143H2212.21V45.8571H2207.07V40.7143ZM2201.93 40.7143H2207.07V45.8571H2201.93V40.7143ZM2196.79 40.7143H2201.93V45.8571H2196.79V40.7143ZM2191.64 40.7143H2196.79V45.8571H2191.64V40.7143ZM2186.5 40.7143H2191.64V45.8571H2186.5V40.7143ZM2186.5 45.8571H2191.64V51H2186.5V45.8571ZM2186.5 51H2191.64V56.1429H2186.5V51ZM2191.64 51H2196.79V56.1429H2191.64V51ZM2191.64 45.8571H2196.79V51H2191.64V45.8571ZM2212.21 45.8571H2217.36V51H2212.21V45.8571ZM2217.36 45.8571H2222.5V51H2217.36V45.8571ZM2217.36 40.7143H2222.5V45.8571H2217.36V40.7143ZM2217.36 51H2222.5V56.1429H2217.36V51ZM2212.21 51H2217.36V56.1429H2212.21V51ZM2212.21 56.1429H2217.36V61.2857H2212.21V56.1429ZM2217.36 56.1429H2222.5V61.2857H2217.36V56.1429ZM2212.21 61.2857H2217.36V66.4286H2212.21V61.2857Z" fill="#E94041"/>
</svg>
