<svg width="1920" height="122" viewBox="0 0 1920 122" fill="none" xmlns="http://www.w3.org/2000/svg">
<path fill-rule="evenodd" clip-rule="evenodd" d="M480.967 0.0488291C480.729 0.103355 480.224 0.197614 479.844 0.258186C477.009 0.70983 473.719 2.02265 471.519 3.58036C470.616 4.22009 468.788 6.04858 468.147 6.95338C466.423 9.38771 465.269 12.4648 464.727 16.0712C464.359 18.5233 464.237 19.8137 464.239 21.257C464.241 24.0603 464.982 30.5065 465.857 35.331C466.065 36.48 466.282 37.889 466.34 38.4621C466.795 43.034 467.114 45.1503 468.116 50.2473C468.379 51.5835 468.792 53.7456 469.033 55.052C469.615 58.1999 470.339 61.5629 470.912 63.7775L471.378 65.5792L466.077 65.5798C463.162 65.5801 460.312 65.6111 459.744 65.6487L458.712 65.7171L457.895 67.0248L457.078 68.3325L457.253 68.4059C457.35 68.4463 460.757 68.4829 464.825 68.4874L472.221 68.4953L472.964 70.7015C474.42 75.0227 475.064 76.3694 476.751 78.6277C477.692 79.8863 480.805 83.0658 482.626 84.6278L483.746 85.5879L484.832 87.0555C486.873 89.8122 487.697 91.2011 488.194 92.723C488.523 93.7319 488.858 95.7569 489.008 97.6467C489.267 100.903 489.752 104.013 490.371 106.389C491.301 109.955 493.134 113.587 495.102 115.763C497.554 118.474 499.784 119.886 503.654 121.18C505.494 121.795 506.201 121.865 509.884 121.8L513.034 121.744L513.682 121.587C517.308 120.707 520.974 119.162 523.743 117.348L525.019 116.511L526.377 115.15C527.696 113.827 529.091 112.155 530.443 110.279C532.731 107.102 535.081 102.313 536.138 98.6725C536.486 97.4735 537.096 94.7966 537.323 93.4757C537.803 90.6749 537.73 85.825 537.156 82.4228C536.138 76.3884 535.036 72.9266 532.609 68.1375C530.565 64.104 528.253 60.7719 525.088 57.2999C523.086 55.1024 519.773 52.1472 517.911 50.8967L517.25 50.4531L516.87 50.4852L516.489 50.5172L516.31 51.0571C516.212 51.354 516.019 52.2616 515.882 53.0739L515.632 54.5508L515.81 54.9236C515.908 55.1285 516.392 55.6508 516.886 56.0845C520.771 59.4918 523.187 62.1948 525.663 65.9032C529.106 71.0589 531.385 76.7625 532.38 82.713L532.557 83.7724L532.603 87.3099L532.649 90.8474L532.421 92.4217C531.901 96.0087 530.593 99.9122 528.88 102.991C526.428 107.399 522.615 111.736 519.54 113.611C517.174 115.055 514.402 116.062 511.599 116.498L510.443 116.678L508.391 116.658L506.34 116.637L505.26 116.417C501.893 115.728 499.27 114.17 497.381 111.737C496.1 110.087 495.697 109.215 494.534 105.583C493.43 102.132 493.318 101.658 493.003 99.1044L492.87 98.0246L493.102 96.8186C493.448 95.0107 493.906 93.5897 494.74 91.7324C495.918 89.1078 496.875 87.9301 498.979 86.5109C502.54 84.1096 503.944 82.9036 505.304 81.0788C506.225 79.8429 506.607 79.1984 507.611 77.1862C510.933 70.5257 512.653 65.0393 514.278 55.9158C514.521 54.55 514.862 52.6794 515.036 51.7589C515.765 47.903 516.986 39.9123 517.618 34.8614C518.373 28.8187 518.49 27.7101 518.599 25.5219C518.65 24.4826 518.719 23.5109 518.751 23.3624C518.918 22.5937 519.18 19.1046 519.18 17.64C519.181 14.3124 518.499 10.9109 517.349 8.50472C516.372 6.46201 514.724 4.41929 513.25 3.42304C511.027 1.9204 508.204 1.12293 504.807 1.03828L503.166 0.997358L502.675 1.2147C502.404 1.33434 502.183 1.48474 502.183 1.5492C502.183 1.61355 501.871 1.42665 501.488 1.13373C501.106 0.840907 500.511 0.493347 500.166 0.361406L499.538 0.121494L498.512 0.108105L497.486 0.0946089L496.656 0.510191C495.655 1.01118 494.752 1.90464 494.324 2.81754L494.031 3.44172V4.79395V6.14608L494.38 6.85502C494.805 7.71685 495.68 8.57986 496.517 8.96338C498.127 9.70017 500.225 9.46275 501.591 8.38919C502.155 7.94607 502.786 6.94561 503.065 6.0543C503.199 5.62695 503.321 5.25769 503.338 5.23372C503.354 5.20986 503.466 5.31492 503.586 5.46726C503.814 5.75684 503.833 5.76192 505.584 5.98391C509.075 6.42637 510.263 6.90145 511.784 8.46261C512.898 9.60732 513.67 11.0558 514.188 12.977L514.413 13.807L514.501 17.37C514.555 19.5444 514.55 21.1856 514.487 21.5809C514.431 21.9372 514.385 22.7632 514.384 23.4164C514.384 24.0697 514.338 25.0171 514.282 25.5219C514.226 26.0266 514.128 26.9984 514.063 27.6813C513.917 29.2118 513.759 30.717 513.63 31.7842C513.576 32.2296 513.478 33.1042 513.411 33.7277C513.07 36.9255 512.554 41.148 512.334 42.5274C512.278 42.8837 512.129 43.8554 512.003 44.6868C511.721 46.5463 511.332 48.7055 511.038 50.0466C510.915 50.6023 510.624 52.1746 510.389 53.5404C509.233 60.2811 507.964 65.1904 506.286 69.4121C504.558 73.7615 501.332 78.9541 499.623 80.1352C498.294 81.0542 497.213 81.7261 496.595 82.0177C495.793 82.3955 493.67 82.8467 492.682 82.8494C490.74 82.8547 487.624 81.737 485.348 80.2186C482.76 78.4925 480.09 75.432 478.873 72.7971C478.293 71.5433 477.296 68.7283 477.395 68.6287C477.44 68.5845 483.751 68.5206 491.422 68.4865C499.092 68.4524 505.374 68.416 505.38 68.4055C505.434 68.3209 506.284 66.0286 506.308 65.9032L506.34 65.7412L491.368 65.6872C483.133 65.6575 476.369 65.6059 476.335 65.5727C476.209 65.4467 474.842 60.3476 474.281 57.9133C473.605 54.9796 473.244 53.16 472.932 51.1111C472.581 48.8064 471.101 38.5154 470.813 36.373C470.67 35.3041 470.428 33.6521 470.277 32.702C469.863 30.0916 469.509 27.5987 469.289 25.7378L469.091 24.0643L469.091 20.6092L469.091 17.1541L469.345 15.9664C470.074 12.5575 471.448 9.87962 473.419 8.03051C475.073 6.47809 477.35 5.36977 479.617 5.01281C481.342 4.74127 481.589 4.57121 481.706 3.56999C481.797 2.79389 482.025 2.2685 482.58 1.55222C483.136 0.833889 483.319 0.501877 483.235 0.365293C483.076 0.107889 481.603 -0.0975801 480.967 0.0488291ZM485.719 0.162091C484.49 0.408806 483.273 1.2146 482.641 2.19876C482.265 2.78461 481.777 4.21512 481.777 4.73004C481.777 5.34083 482.233 6.73949 482.636 7.36292C483.321 8.42244 484.44 9.12685 485.763 9.33232L486.527 9.45076L487.302 9.33059C488.274 9.17965 489.385 8.61193 489.989 7.95698C490.233 7.69212 490.586 7.15086 490.774 6.75428L491.116 6.03303L491.114 4.73738L491.113 3.44172L490.798 2.79389C490.347 1.8662 489.431 0.990771 488.399 0.500797L487.559 0.101735L486.908 0.0777654C486.55 0.0645929 486.015 0.102491 485.719 0.162091ZM503.056 3.33375C503.067 3.53825 503.247 3.88268 503.254 3.71165C503.257 3.62257 503.212 3.47681 503.155 3.38774C503.097 3.29866 503.053 3.27437 503.056 3.33375ZM420.19 31.2474C419.707 31.3937 419.272 31.883 419.093 32.4817C418.93 33.0273 418.621 34.599 417.645 39.8281C417.358 41.3721 416.799 44.3602 416.404 46.4683C416.01 48.5765 415.444 51.6132 415.147 53.2165C414.85 54.8199 414.562 56.3261 414.505 56.5636C414.449 56.8012 414.133 58.4531 413.802 60.2347C413.092 64.0645 413.051 64.2209 412.658 64.551L412.355 64.8057L411.678 64.8653C411.306 64.8981 407.965 64.978 404.253 65.0428C394.835 65.2074 391.317 65.3224 390.865 65.4802C389.894 65.8193 389.603 66.3086 388.978 68.6564C388.266 71.3243 387.655 73.4677 387.585 73.5374C387.548 73.5746 387.494 73.582 387.466 73.5536C387.404 73.492 386.954 71.1311 386.644 69.2503C386.522 68.508 386.253 67.0018 386.046 65.9032C385.839 64.8046 385.531 62.9825 385.362 61.8542C384.761 57.8534 383.712 51.7881 383.504 51.1111C383.095 49.7796 381.399 49.5071 380.539 50.6344C380.244 51.0218 379.28 53.3816 378.161 56.4557C377.115 59.3338 375.488 63.6051 375.181 64.2836C374.877 64.9527 374.558 65.3288 374.166 65.4779C374.007 65.5383 369.924 65.5792 364.044 65.5792C358.624 65.5792 352.797 65.6113 351.095 65.6506L-8 65.722V67.1622V68.6024L360.282 68.5964C367.037 68.5932 373.365 68.5525 374.346 68.5059L376.128 68.4215L376.542 68.2252C376.769 68.1172 377.071 67.8542 377.212 67.6409C377.513 67.1844 378.423 64.9886 379.743 61.5303C380.861 58.6006 381.086 58.0719 381.258 57.9653C381.526 57.7998 381.578 58.0372 382.498 63.6358C382.767 65.2688 383.329 68.6213 383.748 71.0858C384.166 73.5502 384.627 76.344 384.772 77.2941C385.182 79.9934 385.459 81.4478 385.621 81.7589C385.82 82.1417 386.206 82.4898 386.594 82.6371L386.913 82.7578L387.429 82.6341L387.945 82.5102L388.278 82.1306C388.462 81.9218 388.663 81.6227 388.725 81.466C388.921 80.9723 389.894 77.5716 390.274 76.0525C390.825 73.8491 392.142 69.2755 392.337 68.8893C392.604 68.3622 392.919 68.0708 393.284 68.0147C393.468 67.9865 395.659 67.9368 398.153 67.9043C400.647 67.8718 405.311 67.7919 408.518 67.7267L414.348 67.6082L414.814 67.3905C415.331 67.1492 415.725 66.6299 415.903 65.9571C416.018 65.5233 416.701 62.0139 416.828 61.2064C416.926 60.58 417.79 56.0163 418.392 52.9466C418.677 51.4917 419.074 49.3903 419.275 48.2768C419.475 47.1634 419.675 46.2524 419.72 46.2524C419.764 46.2524 419.801 46.6046 419.801 47.0352C419.8 47.4658 419.848 48.5468 419.907 49.4375C419.966 50.3283 420.065 52.1017 420.126 53.3785C420.188 54.6552 420.284 56.5258 420.339 57.5354C420.394 58.5449 420.492 60.6827 420.557 62.2861C420.622 63.8895 420.746 66.4403 420.833 67.9546C420.92 69.4689 421.037 72.0197 421.094 73.6231C421.15 75.2265 421.246 77.4129 421.307 78.4818C421.561 82.9352 421.647 84.6717 421.745 87.3355C421.802 88.8795 421.897 90.993 421.956 92.0322C422.102 94.6298 422.258 97.9981 422.398 101.588C422.571 106.017 422.925 111.649 423.052 111.985C423.21 112.405 423.667 112.847 424.084 112.985L424.444 113.103L424.849 112.974C425.317 112.824 425.695 112.51 425.914 112.088C426.07 111.788 426.401 110.16 426.806 107.688C427.379 104.203 428.3 98.4712 428.766 95.4873C428.892 94.6856 429.379 91.6975 429.849 88.8471C430.318 85.9966 430.75 83.3486 430.807 82.9626C430.864 82.5766 431.157 80.8275 431.456 79.0757C431.756 77.3238 432.22 74.5544 432.487 72.9213C433.007 69.7438 433.147 69.2129 433.579 68.8077L433.854 68.5485L441.161 68.4876C445.179 68.4541 448.474 68.4176 448.483 68.4066C448.671 68.1581 450.049 65.9869 450.097 65.8622L450.164 65.6872L448.128 65.6725C442.506 65.632 431.746 65.7077 431.532 65.7891C431.052 65.9716 430.614 66.446 430.453 66.9591C430.281 67.5071 430.255 67.6502 429.354 73.1912C429.026 75.2103 428.638 77.5911 428.493 78.4818C428.347 79.3726 427.89 82.1906 427.476 84.7442C425.714 95.6304 425.47 97.0899 425.426 97.0458C425.401 97.0203 425.268 94.9465 425.131 92.4373C424.895 88.1001 424.81 86.4063 424.55 80.8032C424.2 73.2449 423.991 68.9415 423.788 65.0934C423.59 61.3416 423.489 59.3606 423.316 55.8078C423.223 53.9075 423.101 51.6725 423.044 50.8412C422.988 50.0098 422.913 48.6008 422.878 47.71C422.844 46.8192 422.769 45.3859 422.712 44.5248C422.656 43.6638 422.535 41.5028 422.445 39.7227C422.089 32.7049 422.064 32.4163 421.783 31.8662C421.511 31.3342 420.807 31.0606 420.19 31.2474ZM490.144 42.0408C486.652 42.2161 483.943 42.7259 478.645 44.2056C475.891 44.9749 473.755 45.9648 473.611 46.5391C473.465 47.12 473.932 49.6885 474.28 50.2192L474.439 50.4633H474.828C475.061 50.4633 475.852 50.1971 476.796 49.8007C480.116 48.408 480.804 48.159 482.586 47.7065C486.856 46.6223 491.193 46.2513 495.165 46.6308C499.892 47.0823 503.336 47.999 507.76 49.9831C508.567 50.3452 509.221 50.5712 509.462 50.5712H509.852L510.054 50.239C510.299 49.8363 510.735 47.8347 510.754 47.0286L510.767 46.4453L510.399 46.1375C509.974 45.7825 507.939 44.9197 505.908 44.233C500.798 42.5052 495.519 41.7712 490.144 42.0408ZM465.743 50.6697C464.414 51.2903 458.843 56.4122 456.337 59.3169C449.104 67.702 445.378 76.4926 445.096 85.8379L445.047 87.4716L445.22 87.8053C445.539 88.4218 445.862 88.4751 448.005 88.2649C449.212 88.1464 449.556 88.0219 449.674 87.6596C449.712 87.5407 449.733 86.9819 449.721 86.4177C449.698 85.4062 449.928 82.7676 450.15 81.505C450.518 79.4094 451.386 76.4354 452.251 74.3088C453.693 70.7657 456.228 66.6702 459.192 63.0959C460.544 61.4655 463.735 58.231 465.65 56.5497C466.497 55.806 467.234 55.0689 467.307 54.8939C467.447 54.556 467.433 54.4108 467.073 52.4067C466.858 51.2051 466.561 50.4608 466.301 50.4656C466.231 50.4669 465.98 50.5588 465.743 50.6697ZM513.211 66.1461C512.795 67.1292 512.413 68.2872 512.482 68.3556C512.521 68.3952 515.504 68.4164 519.11 68.4026L525.667 68.3777L525.653 68.2277C525.646 68.1452 525.281 67.5708 524.843 66.9512L524.047 65.8248L523.086 65.756C522.557 65.7182 520.163 65.6872 517.765 65.6872H513.404L513.211 66.1461ZM533.205 65.8696L533.078 65.9608L533.692 67.1467L534.307 68.3325L539.273 68.3665C542.004 68.3853 546.679 68.3674 549.664 68.3267L1933.09 68.2528V67.078V65.9032L550.257 65.9031C547.6 65.9029 542.705 65.8749 539.379 65.8406C536.054 65.8064 533.275 65.8194 533.205 65.8696ZM447.712 90.4174C446.763 90.5072 445.366 90.8891 444.373 91.3302C442.914 91.9779 441.241 93.3289 440.15 94.7391C438.769 96.5244 437.94 99.0395 437.94 101.442V102.515L438.206 103.588C438.812 106.039 439.769 107.72 441.459 109.3C443.401 111.117 445.962 112.172 448.744 112.301L449.992 112.359L450.889 112.177C453.654 111.617 455.537 110.623 457.274 108.807C458.604 107.418 459.422 105.948 459.909 104.074L460.182 103.022V101.272V99.523L459.958 98.6658C458.97 94.8798 456.353 92.0801 452.694 90.8923C450.959 90.3294 449.805 90.2194 447.712 90.4174Z" fill="#E94041"/>
<rect x="-2.5" y="2.5" width="804" height="87" rx="22.5" transform="matrix(-1 0 0 1 1359 15)" fill="#E9E6D7" stroke="#3B5A6D" stroke-width="5"/>
<path d="M640.857 45.8571H646V51H640.857V45.8571ZM635.714 45.8571H640.857V51H635.714V45.8571ZM635.714 40.7143H640.857V45.8571H635.714V40.7143ZM640.857 40.7143H646V45.8571H640.857V40.7143ZM635.714 35.5714H640.857V40.7143H635.714V35.5714ZM630.571 35.5714H635.714V40.7143H630.571V35.5714ZM630.571 40.7143H635.714V45.8571H630.571V40.7143ZM625.429 40.7143H630.571V45.8571H625.429V40.7143ZM620.286 40.7143H625.429V45.8571H620.286V40.7143ZM620.286 35.5714H625.429V40.7143H620.286V35.5714ZM615.143 35.5714H620.286V40.7143H615.143V35.5714ZM625.429 35.5714H630.571V40.7143H625.429V35.5714ZM615.143 40.7143H620.286V45.8571H615.143V40.7143ZM610 40.7143H615.143V45.8571H610V40.7143ZM610 45.8571H615.143V51H610V45.8571ZM615.143 45.8571H620.286V51H615.143V45.8571ZM615.143 51H620.286V56.1429H615.143V51ZM615.143 56.1429H620.286V61.2857H615.143V56.1429ZM610 56.1429H615.143V61.2857H610V56.1429ZM610 51H615.143V56.1429H610V51ZM615.143 61.2857H620.286V66.4286H615.143V61.2857ZM620.286 61.2857H625.429V66.4286H620.286V61.2857ZM620.286 56.1429H625.429V61.2857H620.286V56.1429ZM625.429 56.1429H630.571V61.2857H625.429V56.1429ZM630.571 56.1429H635.714V61.2857H630.571V56.1429ZM635.714 56.1429H640.857V61.2857H635.714V56.1429ZM635.714 61.2857H640.857V66.4286H635.714V61.2857ZM630.571 61.2857H635.714V66.4286H630.571V61.2857ZM625.429 61.2857H630.571V66.4286H625.429V61.2857ZM640.857 61.2857H646V66.4286H640.857V61.2857ZM640.857 66.4286H646V71.5714H640.857V66.4286ZM635.714 66.4286H640.857V71.5714H635.714V66.4286ZM630.571 76.7143H635.714V81.8571H630.571V76.7143ZM635.714 76.7143H640.857V81.8571H635.714V76.7143ZM635.714 71.5714H640.857V76.7143H635.714V71.5714ZM640.857 71.5714H646V76.7143H640.857V71.5714ZM640.857 76.7143H646V81.8571H640.857V76.7143ZM635.714 81.8571H640.857V87H635.714V81.8571ZM630.571 81.8571H635.714V87H630.571V81.8571ZM625.429 81.8571H630.571V87H625.429V81.8571ZM620.286 81.8571H625.429V87H620.286V81.8571ZM615.143 81.8571H620.286V87H615.143V81.8571ZM615.143 76.7143H620.286V81.8571H615.143V76.7143ZM620.286 76.7143H625.429V81.8571H620.286V76.7143ZM625.429 76.7143H630.571V81.8571H625.429V76.7143ZM610 76.7143H615.143V81.8571H610V76.7143ZM610 71.5714H615.143V76.7143H610V71.5714ZM615.143 71.5714H620.286V76.7143H615.143V71.5714ZM651.156 35.5714H656.299V40.7143H651.156V35.5714ZM656.299 35.5714H661.442V40.7143H656.299V35.5714ZM656.299 40.7143H661.442V45.8571H656.299V40.7143ZM656.299 45.8571H661.442V51H656.299V45.8571ZM651.156 45.8571H656.299V51H651.156V45.8571ZM651.156 40.7143H656.299V45.8571H651.156V40.7143ZM651.156 51H656.299V56.1429H651.156V51ZM651.156 56.1429H656.299V61.2857H651.156V56.1429ZM656.299 56.1429H661.442V61.2857H656.299V56.1429ZM656.299 51H661.442V56.1429H656.299V51ZM656.299 61.2857H661.442V66.4286H656.299V61.2857ZM661.442 61.2857H666.585V66.4286H661.442V61.2857ZM661.442 56.1429H666.585V61.2857H661.442V56.1429ZM661.442 66.4286H666.585V71.5714H661.442V66.4286ZM666.585 66.4286H671.728V71.5714H666.585V66.4286ZM666.585 61.2857H671.728V66.4286H666.585V61.2857ZM671.728 61.2857H676.871V66.4286H671.728V61.2857ZM671.728 66.4286H676.871V71.5714H671.728V66.4286ZM676.871 66.4286H682.013V71.5714H676.871V66.4286ZM676.871 61.2857H682.013V66.4286H676.871V61.2857ZM676.871 56.1429H682.013V61.2857H676.871V56.1429ZM682.013 56.1429H687.156V61.2857H682.013V56.1429ZM682.013 61.2857H687.156V66.4286H682.013V61.2857ZM682.013 51H687.156V56.1429H682.013V51ZM682.013 45.8571H687.156V51H682.013V45.8571ZM682.013 40.7143H687.156V45.8571H682.013V40.7143ZM682.013 35.5714H687.156V40.7143H682.013V35.5714ZM687.156 35.5714H692.299V40.7143H687.156V35.5714ZM687.156 40.7143H692.299V45.8571H687.156V40.7143ZM687.156 45.8571H692.299V51H687.156V45.8571ZM687.156 51H692.299V56.1429H687.156V51ZM687.156 56.1429H692.299V61.2857H687.156V56.1429ZM666.585 71.5714H671.728V76.7143H666.585V71.5714ZM666.585 76.7143H671.728V81.8571H666.585V76.7143ZM666.585 81.8571H671.728V87H666.585V81.8571ZM671.728 81.8571H676.871V87H671.728V81.8571ZM671.728 76.7143H676.871V81.8571H671.728V76.7143ZM671.728 71.5714H676.871V76.7143H671.728V71.5714ZM697.469 81.8571H702.612V87H697.469V81.8571ZM697.469 76.7143H702.612V81.8571H697.469V76.7143ZM697.469 71.5714H702.612V76.7143H697.469V71.5714ZM697.469 66.4286H702.612V71.5714H697.469V66.4286ZM697.469 61.2857H702.612V66.4286H697.469V61.2857ZM697.469 56.1429H702.612V61.2857H697.469V56.1429ZM702.612 56.1429H707.754V61.2857H702.612V56.1429ZM702.612 51H707.754V56.1429H702.612V51ZM702.612 45.8571H707.754V51H702.612V45.8571ZM702.612 40.7143H707.754V45.8571H702.612V40.7143ZM697.469 40.7143H702.612V45.8571H697.469V40.7143ZM697.469 35.5714H702.612V40.7143H697.469V35.5714ZM697.469 45.8571H702.612V51H697.469V45.8571ZM697.469 51H702.612V56.1429H697.469V51ZM702.612 35.5714H707.754V40.7143H702.612V35.5714ZM702.612 61.2857H707.754V66.4286H702.612V61.2857ZM702.612 66.4286H707.754V71.5714H702.612V66.4286ZM702.612 71.5714H707.754V76.7143H702.612V71.5714ZM702.612 76.7143H707.754V81.8571H702.612V76.7143ZM702.612 81.8571H707.754V87H702.612V81.8571ZM707.754 45.8571H712.897V51H707.754V45.8571ZM707.754 51H712.897V56.1429H707.754V51ZM712.897 51H718.04V56.1429H712.897V51ZM712.897 56.1429H718.04V61.2857H712.897V56.1429ZM718.04 56.1429H723.183V61.2857H718.04V56.1429ZM718.04 61.2857H723.183V66.4286H718.04V61.2857ZM723.183 56.1429H728.326V61.2857H723.183V56.1429ZM723.183 51H728.326V56.1429H723.183V51ZM728.326 51H733.469V56.1429H728.326V51ZM728.326 45.8571H733.469V51H728.326V45.8571ZM733.469 35.5714H738.612V40.7143H733.469V35.5714ZM733.469 40.7143H738.612V45.8571H733.469V40.7143ZM733.469 45.8571H738.612V51H733.469V45.8571ZM733.469 51H738.612V56.1429H733.469V51ZM733.469 56.1429H738.612V61.2857H733.469V56.1429ZM733.469 61.2857H738.612V66.4286H733.469V61.2857ZM733.469 66.4286H738.612V71.5714H733.469V66.4286ZM733.469 71.5714H738.612V76.7143H733.469V71.5714ZM733.469 76.7143H738.612V81.8571H733.469V76.7143ZM733.469 81.8571H738.612V87H733.469V81.8571ZM738.612 81.8571H743.754V87H738.612V81.8571ZM738.612 76.7143H743.754V81.8571H738.612V76.7143ZM738.612 71.5714H743.754V76.7143H738.612V71.5714ZM738.612 66.4286H743.754V71.5714H738.612V66.4286ZM738.612 61.2857H743.754V66.4286H738.612V61.2857ZM738.612 56.1429H743.754V61.2857H738.612V56.1429ZM738.612 51H743.754V56.1429H738.612V51ZM738.612 45.8571H743.754V51H738.612V45.8571ZM738.612 40.7143H743.754V45.8571H738.612V40.7143ZM738.612 35.5714H743.754V40.7143H738.612V35.5714ZM707.754 40.7143H712.897V45.8571H707.754V40.7143ZM712.897 45.8571H718.04V51H712.897V45.8571ZM718.04 51H723.183V56.1429H718.04V51ZM723.183 45.8571H728.326V51H723.183V45.8571ZM728.326 40.7143H733.469V45.8571H728.326V40.7143ZM748.938 35.5714H754.08V40.7143H748.938V35.5714ZM754.08 35.5714H759.223V40.7143H754.08V35.5714ZM759.223 35.5714H764.366V40.7143H759.223V35.5714ZM764.366 35.5714H769.509V40.7143H764.366V35.5714ZM769.509 35.5714H774.652V40.7143H769.509V35.5714ZM774.652 35.5714H779.795V40.7143H774.652V35.5714ZM774.652 40.7143H779.795V45.8571H774.652V40.7143ZM769.509 40.7143H774.652V45.8571H769.509V40.7143ZM764.366 40.7143H769.509V45.8571H764.366V40.7143ZM759.223 40.7143H764.366V45.8571H759.223V40.7143ZM754.08 40.7143H759.223V45.8571H754.08V40.7143ZM748.938 40.7143H754.08V45.8571H748.938V40.7143ZM779.795 40.7143H784.938V45.8571H779.795V40.7143ZM774.652 45.8571H779.795V51H774.652V45.8571ZM779.795 45.8571H784.938V51H779.795V45.8571ZM779.795 51H784.938V56.1429H779.795V51ZM779.795 56.1429H784.938V61.2857H779.795V56.1429ZM774.652 56.1429H779.795V61.2857H774.652V56.1429ZM774.652 51H779.795V56.1429H774.652V51ZM774.652 61.2857H779.795V66.4286H774.652V61.2857ZM774.652 66.4286H779.795V71.5714H774.652V66.4286ZM769.509 66.4286H774.652V71.5714H769.509V66.4286ZM769.509 61.2857H774.652V66.4286H769.509V61.2857ZM764.366 61.2857H769.509V66.4286H764.366V61.2857ZM764.366 66.4286H769.509V71.5714H764.366V66.4286ZM759.223 66.4286H764.366V71.5714H759.223V66.4286ZM759.223 61.2857H764.366V66.4286H759.223V61.2857ZM754.08 61.2857H759.223V66.4286H754.08V61.2857ZM748.938 61.2857H754.08V66.4286H748.938V61.2857ZM748.938 66.4286H754.08V71.5714H748.938V66.4286ZM754.08 66.4286H759.223V71.5714H754.08V66.4286ZM748.938 45.8571H754.08V51H748.938V45.8571ZM754.08 45.8571H759.223V51H754.08V45.8571ZM754.08 51H759.223V56.1429H754.08V51ZM754.08 56.1429H759.223V61.2857H754.08V56.1429ZM748.938 51H754.08V56.1429H748.938V51ZM748.938 56.1429H754.08V61.2857H748.938V56.1429ZM748.938 71.5714H754.08V76.7143H748.938V71.5714ZM754.08 71.5714H759.223V76.7143H754.08V71.5714ZM754.08 76.7143H759.223V81.8571H754.08V76.7143ZM754.08 81.8571H759.223V87H754.08V81.8571ZM748.938 81.8571H754.08V87H748.938V81.8571ZM748.938 76.7143H754.08V81.8571H748.938V76.7143ZM779.795 61.2857H784.938V66.4286H779.795V61.2857ZM790.094 35.5714H795.237V40.7143H790.094V35.5714ZM795.237 35.5714H800.379V40.7143H795.237V35.5714ZM800.379 35.5714H805.522V40.7143H800.379V35.5714ZM805.522 35.5714H810.665V40.7143H805.522V35.5714ZM810.665 35.5714H815.808V40.7143H810.665V35.5714ZM815.808 35.5714H820.951V40.7143H815.808V35.5714ZM815.808 40.7143H820.951V45.8571H815.808V40.7143ZM810.665 40.7143H815.808V45.8571H810.665V40.7143ZM805.522 40.7143H810.665V45.8571H805.522V40.7143ZM800.379 40.7143H805.522V45.8571H800.379V40.7143ZM795.237 40.7143H800.379V45.8571H795.237V40.7143ZM790.094 40.7143H795.237V45.8571H790.094V40.7143ZM800.379 45.8571H805.522V51H800.379V45.8571ZM800.379 51H805.522V56.1429H800.379V51ZM800.379 56.1429H805.522V61.2857H800.379V56.1429ZM800.379 61.2857H805.522V66.4286H800.379V61.2857ZM800.379 66.4286H805.522V71.5714H800.379V66.4286ZM800.379 71.5714H805.522V76.7143H800.379V71.5714ZM805.522 66.4286H810.665V71.5714H805.522V66.4286ZM805.522 61.2857H810.665V66.4286H805.522V61.2857ZM805.522 56.1429H810.665V61.2857H805.522V56.1429ZM805.522 51H810.665V56.1429H805.522V51ZM805.522 45.8571H810.665V51H805.522V45.8571ZM805.522 71.5714H810.665V76.7143H805.522V71.5714ZM805.522 76.7143H810.665V81.8571H805.522V76.7143ZM805.522 81.8571H810.665V87H805.522V81.8571ZM800.379 81.8571H805.522V87H800.379V81.8571ZM800.379 76.7143H805.522V81.8571H800.379V76.7143ZM836.379 35.5714H841.522V40.7143H836.379V35.5714ZM831.237 35.5714H836.379V40.7143H831.237V35.5714ZM831.237 40.7143H836.379V45.8571H831.237V40.7143ZM836.379 40.7143H841.522V45.8571H836.379V40.7143ZM841.522 40.7143H846.665V45.8571H841.522V40.7143ZM841.522 35.5714H846.665V40.7143H841.522V35.5714ZM846.665 35.5714H851.808V40.7143H846.665V35.5714ZM851.808 35.5714H856.951V40.7143H851.808V35.5714ZM851.808 40.7143H856.951V45.8571H851.808V40.7143ZM846.665 40.7143H851.808V45.8571H846.665V40.7143ZM846.665 45.8571H851.808V51H846.665V45.8571ZM851.808 45.8571H856.951V51H851.808V45.8571ZM856.951 40.7143H862.094V45.8571H856.951V40.7143ZM856.951 45.8571H862.094V51H856.951V45.8571ZM856.951 51H862.094V56.1429H856.951V51ZM856.951 56.1429H862.094V61.2857H856.951V56.1429ZM856.951 61.2857H862.094V66.4286H856.951V61.2857ZM856.951 66.4286H862.094V71.5714H856.951V66.4286ZM856.951 71.5714H862.094V76.7143H856.951V71.5714ZM856.951 76.7143H862.094V81.8571H856.951V76.7143ZM851.808 76.7143H856.951V81.8571H851.808V76.7143ZM851.808 71.5714H856.951V76.7143H851.808V71.5714ZM851.808 66.4286H856.951V71.5714H851.808V66.4286ZM851.808 61.2857H856.951V66.4286H851.808V61.2857ZM851.808 56.1429H856.951V61.2857H851.808V56.1429ZM851.808 51H856.951V56.1429H851.808V51ZM846.665 71.5714H851.808V76.7143H846.665V71.5714ZM846.665 76.7143H851.808V81.8571H846.665V76.7143ZM851.808 81.8571H856.951V87H851.808V81.8571ZM846.665 81.8571H851.808V87H846.665V81.8571ZM841.522 81.8571H846.665V87H841.522V81.8571ZM841.522 76.7143H846.665V81.8571H841.522V76.7143ZM836.379 81.8571H841.522V87H836.379V81.8571ZM831.237 81.8571H836.379V87H831.237V81.8571ZM831.237 76.7143H836.379V81.8571H831.237V76.7143ZM836.379 76.7143H841.522V81.8571H836.379V76.7143ZM836.379 71.5714H841.522V76.7143H836.379V71.5714ZM831.237 71.5714H836.379V76.7143H831.237V71.5714ZM826.094 76.7143H831.237V81.8571H826.094V76.7143ZM826.094 71.5714H831.237V76.7143H826.094V71.5714ZM826.094 66.4286H831.237V71.5714H826.094V66.4286ZM826.094 61.2857H831.237V66.4286H826.094V61.2857ZM826.094 56.1429H831.237V61.2857H826.094V56.1429ZM826.094 51H831.237V56.1429H826.094V51ZM826.094 45.8571H831.237V51H826.094V45.8571ZM831.237 45.8571H836.379V51H831.237V45.8571ZM826.094 40.7143H831.237V45.8571H826.094V40.7143ZM836.379 45.8571H841.522V51H836.379V45.8571ZM831.237 51H836.379V56.1429H831.237V51ZM831.237 56.1429H836.379V61.2857H831.237V56.1429ZM831.237 61.2857H836.379V66.4286H831.237V61.2857ZM831.237 66.4286H836.379V71.5714H831.237V66.4286ZM867.25 81.8571H872.393V87H867.25V81.8571ZM867.25 76.7143H872.393V81.8571H867.25V76.7143ZM867.25 71.5714H872.393V76.7143H867.25V71.5714ZM867.25 66.4286H872.393V71.5714H867.25V66.4286ZM867.25 61.2857H872.393V66.4286H867.25V61.2857ZM867.25 56.1429H872.393V61.2857H867.25V56.1429ZM872.393 56.1429H877.536V61.2857H872.393V56.1429ZM872.393 51H877.536V56.1429H872.393V51ZM872.393 45.8571H877.536V51H872.393V45.8571ZM872.393 40.7143H877.536V45.8571H872.393V40.7143ZM867.25 40.7143H872.393V45.8571H867.25V40.7143ZM867.25 35.5714H872.393V40.7143H867.25V35.5714ZM867.25 45.8571H872.393V51H867.25V45.8571ZM867.25 51H872.393V56.1429H867.25V51ZM872.393 35.5714H877.536V40.7143H872.393V35.5714ZM872.393 61.2857H877.536V66.4286H872.393V61.2857ZM872.393 66.4286H877.536V71.5714H872.393V66.4286ZM872.393 71.5714H877.536V76.7143H872.393V71.5714ZM872.393 76.7143H877.536V81.8571H872.393V76.7143ZM872.393 81.8571H877.536V87H872.393V81.8571ZM877.536 45.8571H882.679V51H877.536V45.8571ZM877.536 51H882.679V56.1429H877.536V51ZM882.679 51H887.821V56.1429H882.679V51ZM882.679 56.1429H887.821V61.2857H882.679V56.1429ZM887.821 56.1429H892.964V61.2857H887.821V56.1429ZM887.821 61.2857H892.964V66.4286H887.821V61.2857ZM892.964 56.1429H898.107V61.2857H892.964V56.1429ZM892.964 51H898.107V56.1429H892.964V51ZM898.107 51H903.25V56.1429H898.107V51ZM898.107 45.8571H903.25V51H898.107V45.8571ZM903.25 35.5714H908.393V40.7143H903.25V35.5714ZM903.25 40.7143H908.393V45.8571H903.25V40.7143ZM903.25 45.8571H908.393V51H903.25V45.8571ZM903.25 51H908.393V56.1429H903.25V51ZM903.25 56.1429H908.393V61.2857H903.25V56.1429ZM903.25 61.2857H908.393V66.4286H903.25V61.2857ZM903.25 66.4286H908.393V71.5714H903.25V66.4286ZM903.25 71.5714H908.393V76.7143H903.25V71.5714ZM903.25 76.7143H908.393V81.8571H903.25V76.7143ZM903.25 81.8571H908.393V87H903.25V81.8571ZM908.393 81.8571H913.536V87H908.393V81.8571ZM908.393 76.7143H913.536V81.8571H908.393V76.7143ZM908.393 71.5714H913.536V76.7143H908.393V71.5714ZM908.393 66.4286H913.536V71.5714H908.393V66.4286ZM908.393 61.2857H913.536V66.4286H908.393V61.2857ZM908.393 56.1429H913.536V61.2857H908.393V56.1429ZM908.393 51H913.536V56.1429H908.393V51ZM908.393 45.8571H913.536V51H908.393V45.8571ZM908.393 40.7143H913.536V45.8571H908.393V40.7143ZM908.393 35.5714H913.536V40.7143H908.393V35.5714ZM877.536 40.7143H882.679V45.8571H877.536V40.7143ZM882.679 45.8571H887.821V51H882.679V45.8571ZM887.821 51H892.964V56.1429H887.821V51ZM892.964 45.8571H898.107V51H892.964V45.8571ZM898.107 40.7143H903.25V45.8571H898.107V40.7143ZM949.576 45.8571H954.719V51H949.576V45.8571ZM944.433 45.8571H949.576V51H944.433V45.8571ZM944.433 40.7143H949.576V45.8571H944.433V40.7143ZM949.576 40.7143H954.719V45.8571H949.576V40.7143ZM944.433 35.5714H949.576V40.7143H944.433V35.5714ZM939.29 35.5714H944.433V40.7143H939.29V35.5714ZM939.29 40.7143H944.433V45.8571H939.29V40.7143ZM934.147 40.7143H939.29V45.8571H934.147V40.7143ZM929.004 40.7143H934.147V45.8571H929.004V40.7143ZM929.004 35.5714H934.147V40.7143H929.004V35.5714ZM923.862 35.5714H929.004V40.7143H923.862V35.5714ZM934.147 35.5714H939.29V40.7143H934.147V35.5714ZM923.862 40.7143H929.004V45.8571H923.862V40.7143ZM918.719 40.7143H923.862V45.8571H918.719V40.7143ZM918.719 45.8571H923.862V51H918.719V45.8571ZM923.862 45.8571H929.004V51H923.862V45.8571ZM923.862 51H929.004V56.1429H923.862V51ZM923.862 56.1429H929.004V61.2857H923.862V56.1429ZM918.719 56.1429H923.862V61.2857H918.719V56.1429ZM918.719 51H923.862V56.1429H918.719V51ZM923.862 61.2857H929.004V66.4286H923.862V61.2857ZM929.004 61.2857H934.147V66.4286H929.004V61.2857ZM929.004 56.1429H934.147V61.2857H929.004V56.1429ZM934.147 56.1429H939.29V61.2857H934.147V56.1429ZM939.29 56.1429H944.433V61.2857H939.29V56.1429ZM944.433 56.1429H949.576V61.2857H944.433V56.1429ZM944.433 61.2857H949.576V66.4286H944.433V61.2857ZM939.29 61.2857H944.433V66.4286H939.29V61.2857ZM934.147 61.2857H939.29V66.4286H934.147V61.2857ZM949.576 61.2857H954.719V66.4286H949.576V61.2857ZM949.576 66.4286H954.719V71.5714H949.576V66.4286ZM944.433 66.4286H949.576V71.5714H944.433V66.4286ZM939.29 76.7143H944.433V81.8571H939.29V76.7143ZM944.433 76.7143H949.576V81.8571H944.433V76.7143ZM944.433 71.5714H949.576V76.7143H944.433V71.5714ZM949.576 71.5714H954.719V76.7143H949.576V71.5714ZM949.576 76.7143H954.719V81.8571H949.576V76.7143ZM944.433 81.8571H949.576V87H944.433V81.8571ZM939.29 81.8571H944.433V87H939.29V81.8571ZM934.147 81.8571H939.29V87H934.147V81.8571ZM929.004 81.8571H934.147V87H929.004V81.8571ZM923.862 81.8571H929.004V87H923.862V81.8571ZM923.862 76.7143H929.004V81.8571H923.862V76.7143ZM929.004 76.7143H934.147V81.8571H929.004V76.7143ZM934.147 76.7143H939.29V81.8571H934.147V76.7143ZM918.719 76.7143H923.862V81.8571H918.719V76.7143ZM918.719 71.5714H923.862V76.7143H918.719V71.5714ZM923.862 71.5714H929.004V76.7143H923.862V71.5714ZM990.692 40.7143H995.835V45.8571H990.692V40.7143ZM995.835 40.7143H1000.98V45.8571H995.835V40.7143ZM995.835 35.5714H1000.98V40.7143H995.835V35.5714ZM1000.98 40.7143H1006.12V45.8571H1000.98V40.7143ZM1000.98 45.8571H1006.12V51H1000.98V45.8571ZM1006.12 45.8571H1011.26V51H1006.12V45.8571ZM995.835 45.8571H1000.98V51H995.835V45.8571ZM990.692 45.8571H995.835V51H990.692V45.8571ZM985.549 45.8571H990.692V51H985.549V45.8571ZM985.549 51H990.692V56.1429H985.549V51ZM980.406 51H985.549V56.1429H980.406V51ZM990.692 51H995.835V56.1429H990.692V51ZM985.549 56.1429H990.692V61.2857H985.549V56.1429ZM985.549 61.2857H990.692V66.4286H985.549V61.2857ZM985.549 66.4286H990.692V71.5714H985.549V66.4286ZM990.692 66.4286H995.835V71.5714H990.692V66.4286ZM995.835 66.4286H1000.98V71.5714H995.835V66.4286ZM1000.98 66.4286H1006.12V71.5714H1000.98V66.4286ZM1006.12 66.4286H1011.26V71.5714H1006.12V66.4286ZM1011.26 66.4286H1016.41V71.5714H1011.26V66.4286ZM1011.26 61.2857H1016.41V66.4286H1011.26V61.2857ZM1011.26 56.1429H1016.41V61.2857H1011.26V56.1429ZM1011.26 51H1016.41V56.1429H1011.26V51ZM1006.12 51H1011.26V56.1429H1006.12V51ZM1000.98 51H1006.12V56.1429H1000.98V51ZM1006.12 56.1429H1011.26V61.2857H1006.12V56.1429ZM1006.12 61.2857H1011.26V66.4286H1006.12V61.2857ZM1006.12 71.5714H1011.26V76.7143H1006.12V71.5714ZM1011.26 71.5714H1016.41V76.7143H1011.26V71.5714ZM1011.26 76.7143H1016.41V81.8571H1011.26V76.7143ZM1011.26 81.8571H1016.41V87H1011.26V81.8571ZM1006.12 81.8571H1011.26V87H1006.12V81.8571ZM1006.12 76.7143H1011.26V81.8571H1006.12V76.7143ZM1000.98 71.5714H1006.12V76.7143H1000.98V71.5714ZM995.835 71.5714H1000.98V76.7143H995.835V71.5714ZM990.692 71.5714H995.835V76.7143H990.692V71.5714ZM985.549 71.5714H990.692V76.7143H985.549V71.5714ZM985.549 76.7143H990.692V81.8571H985.549V76.7143ZM985.549 81.8571H990.692V87H985.549V81.8571ZM980.406 81.8571H985.549V87H980.406V81.8571ZM980.406 76.7143H985.549V81.8571H980.406V76.7143ZM980.406 71.5714H985.549V76.7143H980.406V71.5714ZM980.406 66.4286H985.549V71.5714H980.406V66.4286ZM980.406 61.2857H985.549V66.4286H980.406V61.2857ZM980.406 56.1429H985.549V61.2857H980.406V56.1429ZM1036.99 61.2857H1042.13V66.4286H1036.99V61.2857ZM1036.99 56.1429H1042.13V61.2857H1036.99V56.1429ZM1042.13 56.1429H1047.28V61.2857H1042.13V56.1429ZM1042.13 61.2857H1047.28V66.4286H1042.13V61.2857ZM1042.13 66.4286H1047.28V71.5714H1042.13V66.4286ZM1036.99 66.4286H1042.13V71.5714H1036.99V66.4286ZM1036.99 45.8571H1042.13V51H1036.99V45.8571ZM1036.99 51H1042.13V56.1429H1036.99V51ZM1031.85 56.1429H1036.99V61.2857H1031.85V56.1429ZM1031.85 51H1036.99V56.1429H1031.85V51ZM1031.85 45.8571H1036.99V51H1031.85V45.8571ZM1021.56 35.5714H1026.71V40.7143H1021.56V35.5714ZM1026.71 35.5714H1031.85V40.7143H1026.71V35.5714ZM1031.85 35.5714H1036.99V40.7143H1031.85V35.5714ZM1031.85 40.7143H1036.99V45.8571H1031.85V40.7143ZM1026.71 40.7143H1031.85V45.8571H1026.71V40.7143ZM1021.56 40.7143H1026.71V45.8571H1021.56V40.7143ZM1021.56 45.8571H1026.71V51H1021.56V45.8571ZM1026.71 45.8571H1031.85V51H1026.71V45.8571ZM1026.71 51H1031.85V56.1429H1026.71V51ZM1026.71 56.1429H1031.85V61.2857H1026.71V56.1429ZM1021.56 56.1429H1026.71V61.2857H1021.56V56.1429ZM1021.56 51H1026.71V56.1429H1021.56V51ZM1021.56 61.2857H1026.71V66.4286H1021.56V61.2857ZM1026.71 61.2857H1031.85V66.4286H1026.71V61.2857ZM1026.71 66.4286H1031.85V71.5714H1026.71V66.4286ZM1026.71 71.5714H1031.85V76.7143H1026.71V71.5714ZM1026.71 76.7143H1031.85V81.8571H1026.71V76.7143ZM1026.71 81.8571H1031.85V87H1026.71V81.8571ZM1021.56 81.8571H1026.71V87H1021.56V81.8571ZM1021.56 76.7143H1026.71V81.8571H1021.56V76.7143ZM1021.56 71.5714H1026.71V76.7143H1021.56V71.5714ZM1021.56 66.4286H1026.71V71.5714H1021.56V66.4286ZM1042.13 71.5714H1047.28V76.7143H1042.13V71.5714ZM1042.13 76.7143H1047.28V81.8571H1042.13V76.7143ZM1047.28 71.5714H1052.42V76.7143H1047.28V71.5714ZM1047.28 66.4286H1052.42V71.5714H1047.28V66.4286ZM1047.28 76.7143H1052.42V81.8571H1047.28V76.7143ZM1047.28 81.8571H1052.42V87H1047.28V81.8571ZM1052.42 81.8571H1057.56V87H1052.42V81.8571ZM1057.56 81.8571H1062.71V87H1057.56V81.8571ZM1057.56 76.7143H1062.71V81.8571H1057.56V76.7143ZM1057.56 71.5714H1062.71V76.7143H1057.56V71.5714ZM1052.42 71.5714H1057.56V76.7143H1052.42V71.5714ZM1052.42 76.7143H1057.56V81.8571H1052.42V76.7143ZM1052.42 66.4286H1057.56V71.5714H1052.42V66.4286ZM1057.56 61.2857H1062.71V66.4286H1057.56V61.2857ZM1057.56 56.1429H1062.71V61.2857H1057.56V56.1429ZM1057.56 66.4286H1062.71V71.5714H1057.56V66.4286ZM1052.42 61.2857H1057.56V66.4286H1052.42V61.2857ZM1052.42 56.1429H1057.56V61.2857H1052.42V56.1429ZM1052.42 51H1057.56V56.1429H1052.42V51ZM1057.56 51H1062.71V56.1429H1057.56V51ZM1057.56 45.8571H1062.71V51H1057.56V45.8571ZM1052.42 35.5714H1057.56V40.7143H1052.42V35.5714ZM1057.56 35.5714H1062.71V40.7143H1057.56V35.5714ZM1057.56 40.7143H1062.71V45.8571H1057.56V40.7143ZM1052.42 40.7143H1057.56V45.8571H1052.42V40.7143ZM1052.42 45.8571H1057.56V51H1052.42V45.8571ZM1078.16 40.7143H1083.3V45.8571H1078.16V40.7143ZM1083.3 40.7143H1088.45V45.8571H1083.3V40.7143ZM1083.3 35.5714H1088.45V40.7143H1083.3V35.5714ZM1088.45 40.7143H1093.59V45.8571H1088.45V40.7143ZM1088.45 45.8571H1093.59V51H1088.45V45.8571ZM1093.59 45.8571H1098.73V51H1093.59V45.8571ZM1083.3 45.8571H1088.45V51H1083.3V45.8571ZM1078.16 45.8571H1083.3V51H1078.16V45.8571ZM1073.02 45.8571H1078.16V51H1073.02V45.8571ZM1073.02 51H1078.16V56.1429H1073.02V51ZM1067.88 51H1073.02V56.1429H1067.88V51ZM1078.16 51H1083.3V56.1429H1078.16V51ZM1073.02 56.1429H1078.16V61.2857H1073.02V56.1429ZM1073.02 61.2857H1078.16V66.4286H1073.02V61.2857ZM1073.02 66.4286H1078.16V71.5714H1073.02V66.4286ZM1078.16 66.4286H1083.3V71.5714H1078.16V66.4286ZM1083.3 66.4286H1088.45V71.5714H1083.3V66.4286ZM1088.45 66.4286H1093.59V71.5714H1088.45V66.4286ZM1093.59 66.4286H1098.73V71.5714H1093.59V66.4286ZM1098.73 66.4286H1103.88V71.5714H1098.73V66.4286ZM1098.73 61.2857H1103.88V66.4286H1098.73V61.2857ZM1098.73 56.1429H1103.88V61.2857H1098.73V56.1429ZM1098.73 51H1103.88V56.1429H1098.73V51ZM1093.59 51H1098.73V56.1429H1093.59V51ZM1088.45 51H1093.59V56.1429H1088.45V51ZM1093.59 56.1429H1098.73V61.2857H1093.59V56.1429ZM1093.59 61.2857H1098.73V66.4286H1093.59V61.2857ZM1093.59 71.5714H1098.73V76.7143H1093.59V71.5714ZM1098.73 71.5714H1103.88V76.7143H1098.73V71.5714ZM1098.73 76.7143H1103.88V81.8571H1098.73V76.7143ZM1098.73 81.8571H1103.88V87H1098.73V81.8571ZM1093.59 81.8571H1098.73V87H1093.59V81.8571ZM1093.59 76.7143H1098.73V81.8571H1093.59V76.7143ZM1088.45 71.5714H1093.59V76.7143H1088.45V71.5714ZM1083.3 71.5714H1088.45V76.7143H1083.3V71.5714ZM1078.16 71.5714H1083.3V76.7143H1078.16V71.5714ZM1073.02 71.5714H1078.16V76.7143H1073.02V71.5714ZM1073.02 76.7143H1078.16V81.8571H1073.02V76.7143ZM1073.02 81.8571H1078.16V87H1073.02V81.8571ZM1067.88 81.8571H1073.02V87H1067.88V81.8571ZM1067.88 76.7143H1073.02V81.8571H1067.88V76.7143ZM1067.88 71.5714H1073.02V76.7143H1067.88V71.5714ZM1067.88 66.4286H1073.02V71.5714H1067.88V66.4286ZM1067.88 61.2857H1073.02V66.4286H1067.88V61.2857ZM1067.88 56.1429H1073.02V61.2857H1067.88V56.1429ZM1109.03 35.5714H1114.17V40.7143H1109.03V35.5714ZM1114.17 35.5714H1119.32V40.7143H1114.17V35.5714ZM1114.17 40.7143H1119.32V45.8571H1114.17V40.7143ZM1114.17 45.8571H1119.32V51H1114.17V45.8571ZM1114.17 51H1119.32V56.1429H1114.17V51ZM1109.03 51H1114.17V56.1429H1109.03V51ZM1109.03 45.8571H1114.17V51H1109.03V45.8571ZM1109.03 40.7143H1114.17V45.8571H1109.03V40.7143ZM1109.03 56.1429H1114.17V61.2857H1109.03V56.1429ZM1109.03 61.2857H1114.17V66.4286H1109.03V61.2857ZM1109.03 66.4286H1114.17V71.5714H1109.03V66.4286ZM1114.17 61.2857H1119.32V66.4286H1114.17V61.2857ZM1114.17 56.1429H1119.32V61.2857H1114.17V56.1429ZM1114.17 66.4286H1119.32V71.5714H1114.17V66.4286ZM1114.17 71.5714H1119.32V76.7143H1114.17V71.5714ZM1109.03 76.7143H1114.17V81.8571H1109.03V76.7143ZM1109.03 71.5714H1114.17V76.7143H1109.03V71.5714ZM1109.03 81.8571H1114.17V87H1109.03V81.8571ZM1114.17 81.8571H1119.32V87H1114.17V81.8571ZM1114.17 76.7143H1119.32V81.8571H1114.17V76.7143ZM1119.32 81.8571H1124.46V87H1119.32V81.8571ZM1124.46 81.8571H1129.6V87H1124.46V81.8571ZM1129.6 81.8571H1134.75V87H1129.6V81.8571ZM1129.6 76.7143H1134.75V81.8571H1129.6V76.7143ZM1124.46 76.7143H1129.6V81.8571H1124.46V76.7143ZM1119.32 76.7143H1124.46V81.8571H1119.32V76.7143ZM1139.88 35.5714H1145.02V40.7143H1139.88V35.5714ZM1145.02 35.5714H1150.16V40.7143H1145.02V35.5714ZM1145.02 40.7143H1150.16V45.8571H1145.02V40.7143ZM1145.02 45.8571H1150.16V51H1145.02V45.8571ZM1139.88 45.8571H1145.02V51H1139.88V45.8571ZM1139.88 40.7143H1145.02V45.8571H1139.88V40.7143ZM1139.88 51H1145.02V56.1429H1139.88V51ZM1139.88 56.1429H1145.02V61.2857H1139.88V56.1429ZM1145.02 56.1429H1150.16V61.2857H1145.02V56.1429ZM1145.02 51H1150.16V56.1429H1145.02V51ZM1145.02 61.2857H1150.16V66.4286H1145.02V61.2857ZM1150.16 61.2857H1155.3V66.4286H1150.16V61.2857ZM1150.16 56.1429H1155.3V61.2857H1150.16V56.1429ZM1150.16 66.4286H1155.3V71.5714H1150.16V66.4286ZM1155.3 66.4286H1160.45V71.5714H1155.3V66.4286ZM1155.3 61.2857H1160.45V66.4286H1155.3V61.2857ZM1160.45 61.2857H1165.59V66.4286H1160.45V61.2857ZM1160.45 66.4286H1165.59V71.5714H1160.45V66.4286ZM1165.59 66.4286H1170.73V71.5714H1165.59V66.4286ZM1165.59 61.2857H1170.73V66.4286H1165.59V61.2857ZM1165.59 56.1429H1170.73V61.2857H1165.59V56.1429ZM1170.73 56.1429H1175.88V61.2857H1170.73V56.1429ZM1170.73 61.2857H1175.88V66.4286H1170.73V61.2857ZM1170.73 51H1175.88V56.1429H1170.73V51ZM1170.73 45.8571H1175.88V51H1170.73V45.8571ZM1170.73 40.7143H1175.88V45.8571H1170.73V40.7143ZM1170.73 35.5714H1175.88V40.7143H1170.73V35.5714ZM1175.88 35.5714H1181.02V40.7143H1175.88V35.5714ZM1175.88 40.7143H1181.02V45.8571H1175.88V40.7143ZM1175.88 45.8571H1181.02V51H1175.88V45.8571ZM1175.88 51H1181.02V56.1429H1175.88V51ZM1175.88 56.1429H1181.02V61.2857H1175.88V56.1429ZM1155.3 71.5714H1160.45V76.7143H1155.3V71.5714ZM1155.3 76.7143H1160.45V81.8571H1155.3V76.7143ZM1155.3 81.8571H1160.45V87H1155.3V81.8571ZM1160.45 81.8571H1165.59V87H1160.45V81.8571ZM1160.45 76.7143H1165.59V81.8571H1160.45V76.7143ZM1160.45 71.5714H1165.59V76.7143H1160.45V71.5714ZM1186.19 35.5714H1191.33V40.7143H1186.19V35.5714ZM1191.33 35.5714H1196.47V40.7143H1191.33V35.5714ZM1196.47 35.5714H1201.62V40.7143H1196.47V35.5714ZM1201.62 35.5714H1206.76V40.7143H1201.62V35.5714ZM1206.76 35.5714H1211.9V40.7143H1206.76V35.5714ZM1211.9 35.5714H1217.04V40.7143H1211.9V35.5714ZM1217.04 35.5714H1222.19V40.7143H1217.04V35.5714ZM1222.19 35.5714H1227.33V40.7143H1222.19V35.5714ZM1222.19 40.7143H1227.33V45.8571H1222.19V40.7143ZM1217.04 40.7143H1222.19V45.8571H1217.04V40.7143ZM1211.9 40.7143H1217.04V45.8571H1211.9V40.7143ZM1206.76 40.7143H1211.9V45.8571H1206.76V40.7143ZM1186.19 40.7143H1191.33V45.8571H1186.19V40.7143ZM1191.33 40.7143H1196.47V45.8571H1191.33V40.7143ZM1196.47 40.7143H1201.62V45.8571H1196.47V40.7143ZM1201.62 40.7143H1206.76V45.8571H1201.62V40.7143ZM1217.04 45.8571H1222.19V51H1217.04V45.8571ZM1211.9 45.8571H1217.04V51H1211.9V45.8571ZM1222.19 45.8571H1227.33V51H1222.19V45.8571ZM1211.9 51H1217.04V56.1429H1211.9V51ZM1217.04 51H1222.19V56.1429H1217.04V51ZM1211.9 56.1429H1217.04V61.2857H1211.9V56.1429ZM1206.76 56.1429H1211.9V61.2857H1206.76V56.1429ZM1206.76 61.2857H1211.9V66.4286H1206.76V61.2857ZM1201.62 56.1429H1206.76V61.2857H1201.62V56.1429ZM1206.76 51H1211.9V56.1429H1206.76V51ZM1201.62 61.2857H1206.76V66.4286H1201.62V61.2857ZM1196.47 61.2857H1201.62V66.4286H1196.47V61.2857ZM1196.47 66.4286H1201.62V71.5714H1196.47V66.4286ZM1201.62 66.4286H1206.76V71.5714H1201.62V66.4286ZM1191.33 66.4286H1196.47V71.5714H1191.33V66.4286ZM1191.33 71.5714H1196.47V76.7143H1191.33V71.5714ZM1186.19 71.5714H1191.33V76.7143H1186.19V71.5714ZM1196.47 71.5714H1201.62V76.7143H1196.47V71.5714ZM1196.47 76.7143H1201.62V81.8571H1196.47V76.7143ZM1191.33 76.7143H1196.47V81.8571H1191.33V76.7143ZM1191.33 81.8571H1196.47V87H1191.33V81.8571ZM1186.19 81.8571H1191.33V87H1186.19V81.8571ZM1186.19 76.7143H1191.33V81.8571H1186.19V76.7143ZM1196.47 81.8571H1201.62V87H1196.47V81.8571ZM1201.62 81.8571H1206.76V87H1201.62V81.8571ZM1206.76 81.8571H1211.9V87H1206.76V81.8571ZM1211.9 81.8571H1217.04V87H1211.9V81.8571ZM1217.04 81.8571H1222.19V87H1217.04V81.8571ZM1217.04 76.7143H1222.19V81.8571H1217.04V76.7143ZM1222.19 81.8571H1227.33V87H1222.19V81.8571ZM1222.19 76.7143H1227.33V81.8571H1222.19V76.7143ZM1211.9 76.7143H1217.04V81.8571H1211.9V76.7143ZM1201.62 76.7143H1206.76V81.8571H1201.62V76.7143ZM1206.76 76.7143H1211.9V81.8571H1206.76V76.7143ZM1232.5 35.5714H1237.64V40.7143H1232.5V35.5714ZM1237.64 35.5714H1242.79V40.7143H1237.64V35.5714ZM1237.64 40.7143H1242.79V45.8571H1237.64V40.7143ZM1237.64 45.8571H1242.79V51H1237.64V45.8571ZM1237.64 51H1242.79V56.1429H1237.64V51ZM1232.5 51H1237.64V56.1429H1232.5V51ZM1232.5 45.8571H1237.64V51H1232.5V45.8571ZM1232.5 40.7143H1237.64V45.8571H1232.5V40.7143ZM1232.5 56.1429H1237.64V61.2857H1232.5V56.1429ZM1232.5 61.2857H1237.64V66.4286H1232.5V61.2857ZM1232.5 66.4286H1237.64V71.5714H1232.5V66.4286ZM1237.64 61.2857H1242.79V66.4286H1237.64V61.2857ZM1237.64 56.1429H1242.79V61.2857H1237.64V56.1429ZM1237.64 66.4286H1242.79V71.5714H1237.64V66.4286ZM1237.64 71.5714H1242.79V76.7143H1237.64V71.5714ZM1232.5 76.7143H1237.64V81.8571H1232.5V76.7143ZM1232.5 71.5714H1237.64V76.7143H1232.5V71.5714ZM1232.5 81.8571H1237.64V87H1232.5V81.8571ZM1237.64 81.8571H1242.79V87H1237.64V81.8571ZM1237.64 76.7143H1242.79V81.8571H1237.64V76.7143ZM1242.79 81.8571H1247.93V87H1242.79V81.8571ZM1247.93 81.8571H1253.07V87H1247.93V81.8571ZM1253.07 81.8571H1258.21V87H1253.07V81.8571ZM1253.07 76.7143H1258.21V81.8571H1253.07V76.7143ZM1247.93 76.7143H1253.07V81.8571H1247.93V76.7143ZM1242.79 76.7143H1247.93V81.8571H1242.79V76.7143ZM1242.79 35.5714H1247.93V40.7143H1242.79V35.5714ZM1247.93 35.5714H1253.07V40.7143H1247.93V35.5714ZM1253.07 35.5714H1258.21V40.7143H1253.07V35.5714ZM1258.21 35.5714H1263.36V40.7143H1258.21V35.5714ZM1253.07 40.7143H1258.21V45.8571H1253.07V40.7143ZM1247.93 40.7143H1253.07V45.8571H1247.93V40.7143ZM1242.79 40.7143H1247.93V45.8571H1242.79V40.7143ZM1242.79 61.2857H1247.93V66.4286H1242.79V61.2857ZM1247.93 56.1429H1253.07V61.2857H1247.93V56.1429ZM1242.79 56.1429H1247.93V61.2857H1242.79V56.1429ZM1247.93 61.2857H1253.07V66.4286H1247.93V61.2857ZM1258.21 40.7143H1263.36V45.8571H1258.21V40.7143ZM1258.21 76.7143H1263.36V81.8571H1258.21V76.7143ZM1258.21 81.8571H1263.36V87H1258.21V81.8571ZM1253.07 56.1429H1258.21V61.2857H1253.07V56.1429ZM1253.07 61.2857H1258.21V66.4286H1253.07V61.2857ZM1273.64 61.2857H1278.79V66.4286H1273.64V61.2857ZM1278.79 61.2857H1283.93V66.4286H1278.79V61.2857ZM1283.93 61.2857H1289.07V66.4286H1283.93V61.2857ZM1289.07 61.2857H1294.21V66.4286H1289.07V61.2857ZM1278.79 66.4286H1283.93V71.5714H1278.79V66.4286ZM1273.64 66.4286H1278.79V71.5714H1273.64V66.4286ZM1283.93 66.4286H1289.07V71.5714H1283.93V66.4286ZM1289.07 66.4286H1294.21V71.5714H1289.07V66.4286ZM1294.21 71.5714H1299.36V76.7143H1294.21V71.5714ZM1299.36 66.4286H1304.5V71.5714H1299.36V66.4286ZM1294.21 66.4286H1299.36V71.5714H1294.21V66.4286ZM1299.36 71.5714H1304.5V76.7143H1299.36V71.5714ZM1294.21 76.7143H1299.36V81.8571H1294.21V76.7143ZM1299.36 76.7143H1304.5V81.8571H1299.36V76.7143ZM1299.36 81.8571H1304.5V87H1299.36V81.8571ZM1294.21 81.8571H1299.36V87H1294.21V81.8571ZM1273.64 81.8571H1278.79V87H1273.64V81.8571ZM1268.5 81.8571H1273.64V87H1268.5V81.8571ZM1268.5 76.7143H1273.64V81.8571H1268.5V76.7143ZM1273.64 76.7143H1278.79V81.8571H1273.64V76.7143ZM1273.64 71.5714H1278.79V76.7143H1273.64V71.5714ZM1268.5 71.5714H1273.64V76.7143H1268.5V71.5714ZM1268.5 66.4286H1273.64V71.5714H1268.5V66.4286ZM1268.5 61.2857H1273.64V66.4286H1268.5V61.2857ZM1268.5 56.1429H1273.64V61.2857H1268.5V56.1429ZM1273.64 56.1429H1278.79V61.2857H1273.64V56.1429ZM1268.5 35.5714H1273.64V40.7143H1268.5V35.5714ZM1273.64 35.5714H1278.79V40.7143H1273.64V35.5714ZM1278.79 35.5714H1283.93V40.7143H1278.79V35.5714ZM1283.93 35.5714H1289.07V40.7143H1283.93V35.5714ZM1289.07 35.5714H1294.21V40.7143H1289.07V35.5714ZM1294.21 35.5714H1299.36V40.7143H1294.21V35.5714ZM1294.21 40.7143H1299.36V45.8571H1294.21V40.7143ZM1289.07 40.7143H1294.21V45.8571H1289.07V40.7143ZM1283.93 40.7143H1289.07V45.8571H1283.93V40.7143ZM1278.79 40.7143H1283.93V45.8571H1278.79V40.7143ZM1273.64 40.7143H1278.79V45.8571H1273.64V40.7143ZM1268.5 40.7143H1273.64V45.8571H1268.5V40.7143ZM1268.5 45.8571H1273.64V51H1268.5V45.8571ZM1268.5 51H1273.64V56.1429H1268.5V51ZM1273.64 51H1278.79V56.1429H1273.64V51ZM1273.64 45.8571H1278.79V51H1273.64V45.8571ZM1294.21 45.8571H1299.36V51H1294.21V45.8571ZM1299.36 45.8571H1304.5V51H1299.36V45.8571ZM1299.36 40.7143H1304.5V45.8571H1299.36V40.7143ZM1299.36 51H1304.5V56.1429H1299.36V51ZM1294.21 51H1299.36V56.1429H1294.21V51ZM1294.21 56.1429H1299.36V61.2857H1294.21V56.1429ZM1299.36 56.1429H1304.5V61.2857H1299.36V56.1429ZM1294.21 61.2857H1299.36V66.4286H1294.21V61.2857Z" fill="#E94041"/>
</svg>
